<ttFont>
    <TTGlyph name=".notdef" xMin="184" yMin="0" xMax="1123" yMax="1000">
      <contour>
        <pt x="184" y="1000" on="1"/>
        <pt x="1123" y="1000" on="1"/>
        <pt x="1123" y="0" on="1"/>
        <pt x="184" y="0" on="1"/>
      </contour>
      <contour>
        <pt x="892" y="863" on="1"/>
        <pt x="423" y="863" on="1"/>
        <pt x="657" y="599" on="1"/>
      </contour>
      <contour>
        <pt x="568" y="499" on="1"/>
        <pt x="329" y="767" on="1"/>
        <pt x="329" y="230" on="1"/>
      </contour>
      <contour>
        <pt x="978" y="239" on="1"/>
        <pt x="978" y="758" on="1"/>
        <pt x="747" y="499" on="1"/>
      </contour>
      <contour>
        <pt x="889" y="138" on="1"/>
        <pt x="657" y="398" on="1"/>
        <pt x="425" y="138" on="1"/>
      </contour>
    </TTGlyph>
    <TTGlyph name="A" xMin="25" yMin="0" xMax="1405" yMax="1416">
      <contour>
        <pt x="687" y="1416" on="1"/>
        <pt x="792" y="1416" on="1"/>
        <pt x="1405" y="0" on="1"/>
        <pt x="1203" y="0" on="1"/>
        <pt x="1069" y="310" on="1"/>
        <pt x="360" y="310" on="1"/>
        <pt x="215" y="0" on="1"/>
        <pt x="25" y="0" on="1"/>
      </contour>
      <contour>
        <pt x="997" y="478" on="1"/>
        <pt x="869" y="775" on="1"/>
        <pt x="845" y="831" on="0"/>
        <pt x="822" y="891" on="1"/>
        <pt x="782" y="1004" on="1"/>
        <pt x="744" y="1114" on="0"/>
        <pt x="737" y="1154" on="1"/>
        <pt x="725" y="1154" on="1"/>
        <pt x="717" y="1114" on="0"/>
        <pt x="689" y="1040" on="1"/>
        <pt x="689" y="1040" on="0"/>
        <pt x="638" y="910" on="1"/>
        <pt x="615" y="854" on="0"/>
        <pt x="588" y="796" on="1"/>
        <pt x="439" y="478" on="1"/>
      </contour>
    </TTGlyph>
    <TTGlyph name="AE" xMin="-65" yMin="0" xMax="2009" yMax="1416">
      <contour>
        <pt x="952" y="1416" on="1"/>
        <pt x="1989" y="1416" on="1"/>
        <pt x="1989" y="1248" on="1"/>
        <pt x="1137" y="1248" on="1"/>
        <pt x="1137" y="866" on="1"/>
        <pt x="1894" y="866" on="1"/>
        <pt x="1894" y="698" on="1"/>
        <pt x="1137" y="698" on="1"/>
        <pt x="1137" y="168" on="1"/>
        <pt x="2009" y="168" on="1"/>
        <pt x="2009" y="0" on="1"/>
        <pt x="952" y="0" on="1"/>
        <pt x="952" y="277" on="1"/>
        <pt x="332" y="277" on="1"/>
        <pt x="135" y="0" on="1"/>
        <pt x="-65" y="0" on="1"/>
      </contour>
      <contour>
        <pt x="952" y="445" on="1"/>
        <pt x="952" y="1149" on="1"/>
        <pt x="451" y="445" on="1"/>
      </contour>
    </TTGlyph>
    <TTGlyph name="Aacute" xMin="25" yMin="0" xMax="1405" yMax="1876">
      <component glyphName="A" x="0" y="0" flags="0x1204"/>
      <component glyphName="acute.cap" x="509" y="0" flags="0x1004"/>
    </TTGlyph>
    <TTGlyph name="Acircumflex" xMin="25" yMin="0" xMax="1405" yMax="1886">
      <component glyphName="A" x="0" y="0" flags="0x1204"/>
      <component glyphName="circumflex.cap" x="434" y="0" flags="0x1004"/>
    </TTGlyph>
    <TTGlyph name="Adieresis" xMin="25" yMin="0" xMax="1405" yMax="1784">
      <component glyphName="A" x="0" y="0" flags="0x1204"/>
      <component glyphName="dieresis.cap" x="433" y="0" flags="0x1004"/>
    </TTGlyph>
    <TTGlyph name="Agrave" xMin="25" yMin="0" xMax="1405" yMax="1862">
      <component glyphName="A" x="0" y="0" flags="0x1204"/>
      <component glyphName="grave.cap" x="336" y="0" flags="0x1004"/>
    </TTGlyph>
    <TTGlyph name="Aring" xMin="25" yMin="0" xMax="1405" yMax="1920">
      <component glyphName="A" x="0" y="0" flags="0x1204"/>
      <component glyphName="ring.cap" x="275" y="0" flags="0x1004"/>
    </TTGlyph>
    <TTGlyph name="Atilde" xMin="25" yMin="0" xMax="1405" yMax="1808">
      <component glyphName="A" x="0" y="0" flags="0x1204"/>
      <component glyphName="tilde.cap" x="440" y="0" flags="0x1004"/>
    </TTGlyph>
    <TTGlyph name="B" xMin="184" yMin="0" xMax="1393" yMax="1416">
      <contour>
        <pt x="184" y="1416" on="1"/>
        <pt x="705" y="1416" on="1"/>
        <pt x="958" y="1416" on="0"/>
        <pt x="1092" y="1354" on="1"/>
        <pt x="1263" y="1273" on="0"/>
        <pt x="1263" y="1075" on="1"/>
        <pt x="1263" y="989" on="0"/>
        <pt x="1202" y="908" on="1"/>
        <pt x="1147" y="834" on="0"/>
        <pt x="1076" y="812" on="1"/>
        <pt x="1219" y="785" on="0"/>
        <pt x="1305" y="687" on="1"/>
        <pt x="1393" y="586" on="0"/>
        <pt x="1393" y="441" on="1"/>
        <pt x="1393" y="133" on="0"/>
        <pt x="1058" y="38" on="1"/>
        <pt x="921" y="0" on="0"/>
        <pt x="737" y="0" on="1"/>
        <pt x="184" y="0" on="1"/>
      </contour>
      <contour>
        <pt x="723" y="866" on="1"/>
        <pt x="949" y="866" on="0"/>
        <pt x="1035" y="968" on="1"/>
        <pt x="1067" y="1006" on="0"/>
        <pt x="1067" y="1128" on="0"/>
        <pt x="992" y="1201" on="0"/>
        <pt x="934" y="1220" on="1"/>
        <pt x="846" y="1248" on="0"/>
        <pt x="676" y="1248" on="1"/>
        <pt x="369" y="1248" on="1"/>
        <pt x="369" y="866" on="1"/>
      </contour>
      <contour>
        <pt x="1197" y="429" on="1"/>
        <pt x="1197" y="698" on="0"/>
        <pt x="756" y="698" on="1"/>
        <pt x="369" y="698" on="1"/>
        <pt x="369" y="168" on="1"/>
        <pt x="762" y="168" on="1"/>
        <pt x="1065" y="168" on="0"/>
        <pt x="1160" y="297" on="1"/>
        <pt x="1197" y="348" on="0"/>
      </contour>
    </TTGlyph>
    <TTGlyph name="C" xMin="137" yMin="-20" xMax="1435" yMax="1436">
      <contour>
        <pt x="1329" y="1122" on="1"/>
        <pt x="1163" y="1270" on="0"/>
        <pt x="902" y="1270" on="1"/>
        <pt x="665" y="1270" on="0"/>
        <pt x="500" y="1114" on="1"/>
        <pt x="333" y="957" on="0"/>
        <pt x="333" y="723" on="1"/>
        <pt x="333" y="481" on="0"/>
        <pt x="505" y="313" on="1"/>
        <pt x="676" y="146" on="0"/>
        <pt x="920" y="146" on="1"/>
        <pt x="1097" y="146" on="0"/>
        <pt x="1273" y="236" on="1"/>
        <pt x="1325" y="262" on="0"/>
        <pt x="1363" y="293" on="1"/>
        <pt x="1435" y="155" on="1"/>
        <pt x="1288" y="29" on="0"/>
        <pt x="1056" y="-8" on="1"/>
        <pt x="981" y="-20" on="0"/>
        <pt x="902" y="-20" on="1"/>
        <pt x="745" y="-20" on="0"/>
        <pt x="467" y="85" on="0"/>
        <pt x="258" y="274" on="0"/>
        <pt x="137" y="536" on="0"/>
        <pt x="137" y="802" on="0"/>
        <pt x="192" y="997" on="0"/>
        <pt x="294" y="1162" on="0"/>
        <pt x="436" y="1294" on="0"/>
        <pt x="523" y="1340" on="1"/>
        <pt x="705" y="1436" on="0"/>
        <pt x="920" y="1436" on="1"/>
        <pt x="1211" y="1436" on="0"/>
        <pt x="1422" y="1270" on="1"/>
      </contour>
    </TTGlyph>
    <TTGlyph name="Ccedilla" xMin="137" yMin="-486" xMax="1435" yMax="1436">
      <contour>
        <pt x="1329" y="1122" on="1"/>
        <pt x="1163" y="1270" on="0"/>
        <pt x="902" y="1270" on="1"/>
        <pt x="665" y="1270" on="0"/>
        <pt x="500" y="1114" on="1"/>
        <pt x="333" y="957" on="0"/>
        <pt x="333" y="723" on="1"/>
        <pt x="333" y="481" on="0"/>
        <pt x="505" y="313" on="1"/>
        <pt x="676" y="146" on="0"/>
        <pt x="920" y="146" on="1"/>
        <pt x="1097" y="146" on="0"/>
        <pt x="1273" y="236" on="1"/>
        <pt x="1325" y="262" on="0"/>
        <pt x="1363" y="293" on="1"/>
        <pt x="1435" y="155" on="1"/>
        <pt x="1288" y="29" on="0"/>
        <pt x="1056" y="-8" on="1"/>
        <pt x="981" y="-20" on="0"/>
        <pt x="938" y="-20" on="1"/>
        <pt x="888" y="-20" on="1"/>
        <pt x="881" y="-20" on="0"/>
        <pt x="874" y="-19" on="1"/>
        <pt x="858" y="-57" on="1"/>
        <pt x="847" y="-82" on="0"/>
        <pt x="843" y="-100" on="1"/>
        <pt x="907" y="-116" on="0"/>
        <pt x="980" y="-192" on="0"/>
        <pt x="980" y="-283" on="0"/>
        <pt x="939" y="-352" on="0"/>
        <pt x="908" y="-384" on="1"/>
        <pt x="846" y="-445" on="0"/>
        <pt x="762" y="-486" on="1"/>
        <pt x="688" y="-411" on="1"/>
        <pt x="728" y="-380" on="1"/>
        <pt x="803" y="-320" on="0"/>
        <pt x="803" y="-279" on="1"/>
        <pt x="803" y="-234" on="0"/>
        <pt x="686" y="-209" on="1"/>
        <pt x="696" y="-166" on="0"/>
        <pt x="713" y="-123" on="1"/>
        <pt x="742" y="-56" on="1"/>
        <pt x="754" y="-30" on="0"/>
        <pt x="765" y="-9" on="1"/>
        <pt x="494" y="34" on="0"/>
        <pt x="318" y="224" on="1"/>
        <pt x="137" y="420" on="0"/>
        <pt x="137" y="693" on="1"/>
        <pt x="137" y="1016" on="0"/>
        <pt x="365" y="1228" on="1"/>
        <pt x="508" y="1361" on="0"/>
        <pt x="710" y="1411" on="1"/>
        <pt x="811" y="1436" on="0"/>
        <pt x="1067" y="1436" on="0"/>
        <pt x="1323" y="1348" on="0"/>
        <pt x="1422" y="1270" on="1"/>
      </contour>
    </TTGlyph>
    <TTGlyph name="D" xMin="184" yMin="0" xMax="1493" yMax="1416">
      <contour>
        <pt x="184" y="1416" on="1"/>
        <pt x="765" y="1416" on="1"/>
        <pt x="1090" y="1416" on="0"/>
        <pt x="1288" y="1234" on="1"/>
        <pt x="1493" y="1046" on="0"/>
        <pt x="1493" y="731" on="1"/>
        <pt x="1493" y="398" on="0"/>
        <pt x="1283" y="198" on="1"/>
        <pt x="1076" y="0" on="0"/>
        <pt x="737" y="0" on="1"/>
        <pt x="184" y="0" on="1"/>
      </contour>
      <contour>
        <pt x="762" y="168" on="1"/>
        <pt x="1011" y="168" on="0"/>
        <pt x="1155" y="318" on="1"/>
        <pt x="1297" y="466" on="0"/>
        <pt x="1297" y="719" on="1"/>
        <pt x="1297" y="963" on="0"/>
        <pt x="1140" y="1107" on="1"/>
        <pt x="987" y="1248" on="0"/>
        <pt x="736" y="1248" on="1"/>
        <pt x="369" y="1248" on="1"/>
        <pt x="369" y="168" on="1"/>
      </contour>
    </TTGlyph>
    <TTGlyph name="E" xMin="184" yMin="0" xMax="1261" yMax="1416">
      <contour>
        <pt x="184" y="1416" on="1"/>
        <pt x="1241" y="1416" on="1"/>
        <pt x="1241" y="1248" on="1"/>
        <pt x="369" y="1248" on="1"/>
        <pt x="369" y="866" on="1"/>
        <pt x="1146" y="866" on="1"/>
        <pt x="1146" y="698" on="1"/>
        <pt x="369" y="698" on="1"/>
        <pt x="369" y="168" on="1"/>
        <pt x="1261" y="168" on="1"/>
        <pt x="1261" y="0" on="1"/>
        <pt x="184" y="0" on="1"/>
      </contour>
    </TTGlyph>
    <TTGlyph name="Eacute" xMin="184" yMin="0" xMax="1261" yMax="1876">
      <component glyphName="E" x="0" y="0" flags="0x1204"/>
      <component glyphName="acute.cap" x="417" y="0" flags="0x1004"/>
    </TTGlyph>
    <TTGlyph name="Ecircumflex" xMin="184" yMin="0" xMax="1261" yMax="1886">
      <component glyphName="E" x="0" y="0" flags="0x1204"/>
      <component glyphName="circumflex.cap" x="422" y="0" flags="0x1004"/>
    </TTGlyph>
    <TTGlyph name="Edieresis" xMin="184" yMin="0" xMax="1261" yMax="1784">
      <component glyphName="E" x="0" y="0" flags="0x1204"/>
      <component glyphName="dieresis.cap" x="386" y="0" flags="0x1004"/>
    </TTGlyph>
    <TTGlyph name="Egrave" xMin="184" yMin="0" xMax="1261" yMax="1862">
      <component glyphName="E" x="0" y="0" flags="0x1204"/>
      <component glyphName="grave.cap" x="396" y="0" flags="0x1004"/>
    </TTGlyph>
    <TTGlyph name="Eth" xMin="27" yMin="0" xMax="1594" yMax="1416">
      <contour>
        <pt x="285" y="706" on="1"/>
        <pt x="27" y="706" on="1"/>
        <pt x="27" y="860" on="1"/>
        <pt x="285" y="860" on="1"/>
        <pt x="285" y="1416" on="1"/>
        <pt x="866" y="1416" on="1"/>
        <pt x="1191" y="1416" on="0"/>
        <pt x="1390" y="1234" on="1"/>
        <pt x="1594" y="1046" on="0"/>
        <pt x="1594" y="731" on="1"/>
        <pt x="1594" y="398" on="0"/>
        <pt x="1384" y="198" on="1"/>
        <pt x="1177" y="0" on="0"/>
        <pt x="838" y="0" on="1"/>
        <pt x="285" y="0" on="1"/>
      </contour>
      <contour>
        <pt x="863" y="168" on="1"/>
        <pt x="1112" y="168" on="0"/>
        <pt x="1256" y="318" on="1"/>
        <pt x="1398" y="466" on="0"/>
        <pt x="1398" y="719" on="1"/>
        <pt x="1398" y="963" on="0"/>
        <pt x="1241" y="1107" on="1"/>
        <pt x="1088" y="1248" on="0"/>
        <pt x="837" y="1248" on="1"/>
        <pt x="470" y="1248" on="1"/>
        <pt x="470" y="860" on="1"/>
        <pt x="969" y="860" on="1"/>
        <pt x="969" y="706" on="1"/>
        <pt x="470" y="706" on="1"/>
        <pt x="470" y="168" on="1"/>
      </contour>
    </TTGlyph>
    <TTGlyph name="Euro" xMin="65" yMin="-20" xMax="1530" yMax="1436">
      <contour>
        <pt x="482" y="795" on="1"/>
        <pt x="478" y="759" on="0"/>
        <pt x="478" y="653" on="0"/>
        <pt x="489" y="598" on="1"/>
        <pt x="1267" y="598" on="1"/>
        <pt x="1247" y="444" on="1"/>
        <pt x="538" y="444" on="1"/>
        <pt x="639" y="232" on="0"/>
        <pt x="859" y="168" on="1"/>
        <pt x="932" y="146" on="0"/>
        <pt x="1074" y="146" on="0"/>
        <pt x="1199" y="169" on="0"/>
        <pt x="1258" y="189" on="1"/>
        <pt x="1383" y="232" on="0"/>
        <pt x="1458" y="293" on="1"/>
        <pt x="1530" y="155" on="1"/>
        <pt x="1383" y="29" on="0"/>
        <pt x="1151" y="-8" on="1"/>
        <pt x="1076" y="-20" on="0"/>
        <pt x="874" y="-20" on="0"/>
        <pt x="658" y="46" on="0"/>
        <pt x="570" y="106" on="1"/>
        <pt x="392" y="230" on="0"/>
        <pt x="321" y="444" on="1"/>
        <pt x="65" y="444" on="1"/>
        <pt x="85" y="598" on="1"/>
        <pt x="287" y="598" on="1"/>
        <pt x="282" y="656" on="0"/>
        <pt x="282" y="745" on="0"/>
        <pt x="288" y="795" on="1"/>
        <pt x="105" y="795" on="1"/>
        <pt x="125" y="949" on="1"/>
        <pt x="320" y="949" on="1"/>
        <pt x="390" y="1172" on="0"/>
        <pt x="573" y="1303" on="1"/>
        <pt x="758" y="1436" on="0"/>
        <pt x="1015" y="1436" on="1"/>
        <pt x="1306" y="1436" on="0"/>
        <pt x="1517" y="1270" on="1"/>
        <pt x="1424" y="1122" on="1"/>
        <pt x="1258" y="1270" on="0"/>
        <pt x="997" y="1270" on="1"/>
        <pt x="736" y="1270" on="0"/>
        <pt x="592" y="1080" on="1"/>
        <pt x="546" y="1021" on="0"/>
        <pt x="518" y="949" on="1"/>
        <pt x="1307" y="949" on="1"/>
        <pt x="1287" y="795" on="1"/>
      </contour>
    </TTGlyph>
    <TTGlyph name="F" xMin="184" yMin="0" xMax="1141" yMax="1416">
      <contour>
        <pt x="184" y="1416" on="1"/>
        <pt x="1141" y="1416" on="1"/>
        <pt x="1141" y="1248" on="1"/>
        <pt x="369" y="1248" on="1"/>
        <pt x="369" y="646" on="1"/>
        <pt x="1066" y="646" on="1"/>
        <pt x="1066" y="478" on="1"/>
        <pt x="369" y="478" on="1"/>
        <pt x="369" y="0" on="1"/>
        <pt x="184" y="0" on="1"/>
      </contour>
    </TTGlyph>
    <TTGlyph name="G" xMin="137" yMin="-20" xMax="1520" yMax="1436">
      <contour>
        <pt x="189" y="401" on="0"/>
        <pt x="137" y="588" on="0"/>
        <pt x="137" y="802" on="0"/>
        <pt x="192" y="997" on="0"/>
        <pt x="294" y="1162" on="0"/>
        <pt x="436" y="1294" on="0"/>
        <pt x="523" y="1340" on="1"/>
        <pt x="705" y="1436" on="0"/>
        <pt x="920" y="1436" on="1"/>
        <pt x="1236" y="1436" on="0"/>
        <pt x="1443" y="1260" on="1"/>
        <pt x="1339" y="1118" on="1"/>
        <pt x="1164" y="1270" on="0"/>
        <pt x="902" y="1270" on="1"/>
        <pt x="665" y="1270" on="0"/>
        <pt x="500" y="1114" on="1"/>
        <pt x="333" y="957" on="0"/>
        <pt x="333" y="723" on="1"/>
        <pt x="333" y="468" on="0"/>
        <pt x="498" y="307" on="1"/>
        <pt x="662" y="146" on="0"/>
        <pt x="917" y="146" on="1"/>
        <pt x="1110" y="146" on="0"/>
        <pt x="1262" y="259" on="1"/>
        <pt x="1305" y="291" on="0"/>
        <pt x="1335" y="326" on="1"/>
        <pt x="1335" y="479" on="1"/>
        <pt x="844" y="479" on="1"/>
        <pt x="844" y="647" on="1"/>
        <pt x="1520" y="647" on="1"/>
        <pt x="1520" y="0" on="1"/>
        <pt x="1335" y="0" on="1"/>
        <pt x="1335" y="137" on="1"/>
        <pt x="1221" y="34" on="0"/>
        <pt x="1030" y="-6" on="1"/>
        <pt x="960" y="-20" on="0"/>
        <pt x="774" y="-20" on="0"/>
        <pt x="582" y="27" on="0"/>
        <pt x="418" y="116" on="0"/>
        <pt x="283" y="242" on="0"/>
      </contour>
    </TTGlyph>
    <TTGlyph name="H" xMin="184" yMin="0" xMax="1423" yMax="1416">
      <contour>
        <pt x="184" y="1416" on="1"/>
        <pt x="369" y="1416" on="1"/>
        <pt x="369" y="647" on="1"/>
        <pt x="1238" y="647" on="1"/>
        <pt x="1238" y="1416" on="1"/>
        <pt x="1423" y="1416" on="1"/>
        <pt x="1423" y="0" on="1"/>
        <pt x="1238" y="0" on="1"/>
        <pt x="1238" y="479" on="1"/>
        <pt x="369" y="479" on="1"/>
        <pt x="369" y="0" on="1"/>
        <pt x="184" y="0" on="1"/>
      </contour>
    </TTGlyph>
    <TTGlyph name="I" xMin="184" yMin="0" xMax="369" yMax="1416">
      <contour>
        <pt x="184" y="1416" on="1"/>
        <pt x="369" y="1416" on="1"/>
        <pt x="369" y="0" on="1"/>
        <pt x="184" y="0" on="1"/>
      </contour>
    </TTGlyph>
    <TTGlyph name="IJ" xMin="184" yMin="-20" xMax="1244" yMax="1416">
      <contour>
        <pt x="776" y="299" on="1"/>
        <pt x="795" y="227" on="0"/>
        <pt x="865" y="146" on="0"/>
        <pt x="1002" y="146" on="0"/>
        <pt x="1059" y="250" on="0"/>
        <pt x="1059" y="354" on="1"/>
        <pt x="1059" y="1416" on="1"/>
        <pt x="1244" y="1416" on="1"/>
        <pt x="1244" y="384" on="1"/>
        <pt x="1244" y="178" on="0"/>
        <pt x="1068" y="-20" on="0"/>
        <pt x="905" y="-20" on="1"/>
        <pt x="798" y="-20" on="0"/>
        <pt x="724" y="54" on="1"/>
        <pt x="652" y="126" on="0"/>
        <pt x="632" y="254" on="1"/>
      </contour>
      <contour>
        <pt x="184" y="1416" on="1"/>
        <pt x="369" y="1416" on="1"/>
        <pt x="369" y="0" on="1"/>
        <pt x="184" y="0" on="1"/>
      </contour>
    </TTGlyph>
    <TTGlyph name="Iacute" xMin="31" yMin="0" xMax="605" yMax="1876">
      <component glyphName="I" x="0" y="0" flags="0x1204"/>
      <component glyphName="acute.cap" x="-20" y="0" flags="0x1004"/>
    </TTGlyph>
    <TTGlyph name="Icircumflex" xMin="-116" yMin="0" xMax="672" yMax="1886">
      <component glyphName="I" x="0" y="0" flags="0x1204"/>
      <component glyphName="circumflex.cap" x="-25" y="0" flags="0x1004"/>
    </TTGlyph>
    <TTGlyph name="Idieresis" xMin="-74" yMin="0" xMax="630" yMax="1784">
      <component glyphName="I" x="0" y="0" flags="0x1204"/>
      <component glyphName="dieresis.cap" x="-21" y="0" flags="0x1004"/>
    </TTGlyph>
    <TTGlyph name="Igrave" xMin="-62" yMin="0" xMax="507" yMax="1862">
      <component glyphName="I" x="0" y="0" flags="0x1204"/>
      <component glyphName="grave.cap" x="-82" y="0" flags="0x1004"/>
    </TTGlyph>
    <TTGlyph name="Itilde" xMin="-125" yMin="0" xMax="658" yMax="1808">
      <component glyphName="I" x="0" y="0" flags="0x1204"/>
      <component glyphName="tilde.cap" x="-22" y="0" flags="0x1004"/>
    </TTGlyph>
    <TTGlyph name="J" xMin="90" yMin="-20" xMax="1006" yMax="1416">
      <contour>
        <pt x="540" y="146" on="1"/>
        <pt x="821" y="146" on="0"/>
        <pt x="821" y="502" on="1"/>
        <pt x="821" y="1416" on="1"/>
        <pt x="1006" y="1416" on="1"/>
        <pt x="1006" y="522" on="1"/>
        <pt x="1006" y="130" on="0"/>
        <pt x="735" y="18" on="1"/>
        <pt x="643" y="-20" on="0"/>
        <pt x="420" y="-20" on="0"/>
        <pt x="261" y="60" on="0"/>
        <pt x="206" y="128" on="1"/>
        <pt x="90" y="268" on="0"/>
        <pt x="90" y="473" on="1"/>
        <pt x="270" y="498" on="1"/>
        <pt x="270" y="354" on="0"/>
        <pt x="338" y="256" on="1"/>
        <pt x="413" y="146" on="0"/>
      </contour>
    </TTGlyph>
    <TTGlyph name="Jcircumflex" xMin="90" yMin="-20" xMax="1306" yMax="1886">
      <component glyphName="J" x="0" y="0" flags="0x1204"/>
      <component glyphName="circumflex.cap" x="609" y="0" flags="0x1004"/>
    </TTGlyph>
    <TTGlyph name="K" xMin="184" yMin="0" xMax="1381" yMax="1416">
      <contour>
        <pt x="184" y="1416" on="1"/>
        <pt x="374" y="1416" on="1"/>
        <pt x="374" y="711" on="1"/>
        <pt x="1109" y="1416" on="1"/>
        <pt x="1348" y="1416" on="1"/>
        <pt x="578" y="682" on="1"/>
        <pt x="1381" y="0" on="1"/>
        <pt x="1089" y="0" on="1"/>
        <pt x="374" y="625" on="1"/>
        <pt x="374" y="0" on="1"/>
        <pt x="184" y="0" on="1"/>
      </contour>
    </TTGlyph>
    <TTGlyph name="L" xMin="184" yMin="0" xMax="1141" yMax="1416">
      <contour>
        <pt x="184" y="1416" on="1"/>
        <pt x="369" y="1416" on="1"/>
        <pt x="369" y="168" on="1"/>
        <pt x="1141" y="168" on="1"/>
        <pt x="1141" y="0" on="1"/>
        <pt x="184" y="0" on="1"/>
      </contour>
    </TTGlyph>
    <TTGlyph name="Lslash" xMin="23" yMin="0" xMax="1261" yMax="1416">
      <contour>
        <pt x="304" y="504" on="1"/>
        <pt x="85" y="406" on="1"/>
        <pt x="23" y="547" on="1"/>
        <pt x="304" y="672" on="1"/>
        <pt x="304" y="1416" on="1"/>
        <pt x="489" y="1416" on="1"/>
        <pt x="489" y="755" on="1"/>
        <pt x="957" y="964" on="1"/>
        <pt x="1019" y="823" on="1"/>
        <pt x="489" y="586" on="1"/>
        <pt x="489" y="168" on="1"/>
        <pt x="1261" y="168" on="1"/>
        <pt x="1261" y="0" on="1"/>
        <pt x="304" y="0" on="1"/>
      </contour>
    </TTGlyph>
    <TTGlyph name="M" xMin="177" yMin="0" xMax="1770" yMax="1415">
      <contour>
        <pt x="287" y="1415" on="1"/>
        <pt x="342" y="1415" on="1"/>
        <pt x="967" y="730" on="1"/>
        <pt x="1591" y="1415" on="1"/>
        <pt x="1650" y="1415" on="1"/>
        <pt x="1770" y="0" on="1"/>
        <pt x="1589" y="0" on="1"/>
        <pt x="1498" y="1065" on="1"/>
        <pt x="969" y="479" on="1"/>
        <pt x="949" y="479" on="1"/>
        <pt x="436" y="1056" on="1"/>
        <pt x="356" y="0" on="1"/>
        <pt x="177" y="0" on="1"/>
      </contour>
    </TTGlyph>
    <TTGlyph name="N" xMin="184" yMin="0" xMax="1423" yMax="1416">
      <contour>
        <pt x="184" y="1416" on="1"/>
        <pt x="346" y="1416" on="1"/>
        <pt x="1258" y="298" on="1"/>
        <pt x="1258" y="1416" on="1"/>
        <pt x="1423" y="1416" on="1"/>
        <pt x="1423" y="0" on="1"/>
        <pt x="1268" y="0" on="1"/>
        <pt x="349" y="1126" on="1"/>
        <pt x="349" y="0" on="1"/>
        <pt x="184" y="0" on="1"/>
      </contour>
    </TTGlyph>
    <TTGlyph name="Nacute" xMin="184" yMin="0" xMax="1423" yMax="1876">
      <component glyphName="N" x="0" y="0" flags="0x1204"/>
      <component glyphName="acute.cap" x="485" y="0" flags="0x1004"/>
    </TTGlyph>
    <TTGlyph name="Ntilde" xMin="184" yMin="0" xMax="1423" yMax="1808">
      <component glyphName="N" x="0" y="0" flags="0x1204"/>
      <component glyphName="tilde.cap" x="504" y="0" flags="0x1004"/>
    </TTGlyph>
    <TTGlyph name="O" xMin="137" yMin="-20" xMax="1685" yMax="1436">
      <contour>
        <pt x="258" y="274" on="0"/>
        <pt x="137" y="536" on="0"/>
        <pt x="137" y="802" on="0"/>
        <pt x="192" y="997" on="0"/>
        <pt x="294" y="1162" on="0"/>
        <pt x="436" y="1294" on="0"/>
        <pt x="523" y="1340" on="1"/>
        <pt x="705" y="1436" on="0"/>
        <pt x="920" y="1436" on="1"/>
        <pt x="1126" y="1436" on="0"/>
        <pt x="1304" y="1344" on="1"/>
        <pt x="1477" y="1254" on="0"/>
        <pt x="1580" y="1094" on="1"/>
        <pt x="1685" y="927" on="0"/>
        <pt x="1685" y="723" on="1"/>
        <pt x="1685" y="400" on="0"/>
        <pt x="1457" y="188" on="1"/>
        <pt x="1314" y="55" on="0"/>
        <pt x="1112" y="5" on="1"/>
        <pt x="1011" y="-20" on="0"/>
        <pt x="745" y="-20" on="0"/>
        <pt x="467" y="85" on="0"/>
      </contour>
      <contour>
        <pt x="422" y="1041" on="0"/>
        <pt x="333" y="841" on="0"/>
        <pt x="333" y="601" on="0"/>
        <pt x="425" y="391" on="0"/>
        <pt x="505" y="313" on="1"/>
        <pt x="676" y="146" on="0"/>
        <pt x="920" y="146" on="1"/>
        <pt x="1157" y="146" on="0"/>
        <pt x="1322" y="302" on="1"/>
        <pt x="1489" y="460" on="0"/>
        <pt x="1489" y="693" on="1"/>
        <pt x="1489" y="851" on="0"/>
        <pt x="1409" y="986" on="1"/>
        <pt x="1334" y="1114" on="0"/>
        <pt x="1198" y="1192" on="1"/>
        <pt x="1064" y="1270" on="0"/>
        <pt x="784" y="1270" on="0"/>
        <pt x="577" y="1187" on="0"/>
      </contour>
    </TTGlyph>
    <TTGlyph name="OE" xMin="137" yMin="-20" xMax="2143" yMax="1436">
      <contour>
        <pt x="258" y="274" on="0"/>
        <pt x="137" y="536" on="0"/>
        <pt x="137" y="802" on="0"/>
        <pt x="192" y="997" on="0"/>
        <pt x="294" y="1162" on="0"/>
        <pt x="436" y="1294" on="0"/>
        <pt x="523" y="1340" on="1"/>
        <pt x="705" y="1436" on="0"/>
        <pt x="920" y="1436" on="1"/>
        <pt x="1013" y="1436" on="0"/>
        <pt x="1104" y="1416" on="1"/>
        <pt x="2123" y="1416" on="1"/>
        <pt x="2123" y="1248" on="1"/>
        <pt x="1271" y="1248" on="1"/>
        <pt x="1271" y="866" on="1"/>
        <pt x="2028" y="866" on="1"/>
        <pt x="2028" y="698" on="1"/>
        <pt x="1271" y="698" on="1"/>
        <pt x="1271" y="168" on="1"/>
        <pt x="2143" y="168" on="1"/>
        <pt x="2143" y="0" on="1"/>
        <pt x="1090" y="0" on="1"/>
        <pt x="998" y="-20" on="0"/>
        <pt x="745" y="-20" on="0"/>
        <pt x="467" y="85" on="0"/>
      </contour>
      <contour>
        <pt x="422" y="1041" on="0"/>
        <pt x="333" y="841" on="0"/>
        <pt x="333" y="601" on="0"/>
        <pt x="425" y="391" on="0"/>
        <pt x="505" y="313" on="1"/>
        <pt x="676" y="146" on="0"/>
        <pt x="920" y="146" on="1"/>
        <pt x="1008" y="146" on="0"/>
        <pt x="1086" y="168" on="1"/>
        <pt x="1086" y="1241" on="1"/>
        <pt x="997" y="1270" on="0"/>
        <pt x="784" y="1270" on="0"/>
        <pt x="577" y="1187" on="0"/>
      </contour>
    </TTGlyph>
    <TTGlyph name="Oacute" xMin="137" yMin="-20" xMax="1685" yMax="1876">
      <component glyphName="O" x="0" y="0" flags="0x1204"/>
      <component glyphName="acute.cap" x="593" y="0" flags="0x1004"/>
    </TTGlyph>
    <TTGlyph name="Ocircumflex" xMin="137" yMin="-20" xMax="1685" yMax="1886">
      <component glyphName="O" x="0" y="0" flags="0x1204"/>
      <component glyphName="circumflex.cap" x="608" y="0" flags="0x1004"/>
    </TTGlyph>
    <TTGlyph name="Odieresis" xMin="137" yMin="-20" xMax="1685" yMax="1784">
      <component glyphName="O" x="0" y="0" flags="0x1204"/>
      <component glyphName="dieresis.cap" x="612" y="0" flags="0x1004"/>
    </TTGlyph>
    <TTGlyph name="Ograve" xMin="137" yMin="-20" xMax="1685" yMax="1862">
      <component glyphName="O" x="0" y="0" flags="0x1204"/>
      <component glyphName="grave.cap" x="631" y="0" flags="0x1004"/>
    </TTGlyph>
    <TTGlyph name="Oslash" xMin="137" yMin="-124" xMax="1685" yMax="1536">
      <contour>
        <pt x="902" y="-20" on="1"/>
        <pt x="699" y="-20" on="0"/>
        <pt x="531" y="65" on="1"/>
        <pt x="392" y="-124" on="1"/>
        <pt x="258" y="-30" on="1"/>
        <pt x="393" y="153" on="1"/>
        <pt x="275" y="249" on="0"/>
        <pt x="137" y="524" on="0"/>
        <pt x="137" y="693" on="1"/>
        <pt x="137" y="1016" on="0"/>
        <pt x="365" y="1228" on="1"/>
        <pt x="508" y="1361" on="0"/>
        <pt x="710" y="1411" on="1"/>
        <pt x="811" y="1436" on="0"/>
        <pt x="920" y="1436" on="1"/>
        <pt x="1113" y="1436" on="0"/>
        <pt x="1281" y="1355" on="1"/>
        <pt x="1415" y="1536" on="1"/>
        <pt x="1549" y="1442" on="1"/>
        <pt x="1421" y="1268" on="1"/>
        <pt x="1685" y="1057" on="0"/>
        <pt x="1685" y="723" on="1"/>
        <pt x="1685" y="400" on="0"/>
        <pt x="1457" y="188" on="1"/>
        <pt x="1314" y="55" on="0"/>
        <pt x="1112" y="5" on="1"/>
        <pt x="1011" y="-20" on="0"/>
      </contour>
      <contour>
        <pt x="1171" y="1206" on="1"/>
        <pt x="1045" y="1270" on="0"/>
        <pt x="784" y="1270" on="0"/>
        <pt x="577" y="1187" on="0"/>
        <pt x="500" y="1114" on="1"/>
        <pt x="333" y="957" on="0"/>
        <pt x="333" y="723" on="1"/>
        <pt x="333" y="478" on="0"/>
        <pt x="508" y="309" on="1"/>
      </contour>
      <contour>
        <pt x="641" y="214" on="1"/>
        <pt x="771" y="146" on="0"/>
        <pt x="1038" y="146" on="0"/>
        <pt x="1245" y="229" on="0"/>
        <pt x="1322" y="302" on="1"/>
        <pt x="1489" y="460" on="0"/>
        <pt x="1489" y="693" on="1"/>
        <pt x="1489" y="819" on="0"/>
        <pt x="1391" y="1035" on="0"/>
        <pt x="1306" y="1113" on="1"/>
      </contour>
    </TTGlyph>
    <TTGlyph name="Otilde" xMin="137" yMin="-20" xMax="1685" yMax="1808">
      <component glyphName="O" x="0" y="0" flags="0x1204"/>
      <component glyphName="tilde.cap" x="611" y="0" flags="0x1004"/>
    </TTGlyph>
    <TTGlyph name="P" xMin="184" yMin="0" xMax="1383" yMax="1416">
      <contour>
        <pt x="184" y="1416" on="1"/>
        <pt x="745" y="1416" on="1"/>
        <pt x="1029" y="1416" on="0"/>
        <pt x="1199" y="1288" on="1"/>
        <pt x="1383" y="1150" on="0"/>
        <pt x="1383" y="891" on="1"/>
        <pt x="1383" y="621" on="0"/>
        <pt x="1189" y="461" on="1"/>
        <pt x="1005" y="310" on="0"/>
        <pt x="717" y="310" on="1"/>
        <pt x="369" y="310" on="1"/>
        <pt x="369" y="0" on="1"/>
        <pt x="184" y="0" on="1"/>
      </contour>
      <contour>
        <pt x="742" y="478" on="1"/>
        <pt x="946" y="478" on="0"/>
        <pt x="1064" y="580" on="1"/>
        <pt x="1187" y="686" on="0"/>
        <pt x="1187" y="879" on="1"/>
        <pt x="1187" y="1064" on="0"/>
        <pt x="1049" y="1161" on="1"/>
        <pt x="925" y="1248" on="0"/>
        <pt x="716" y="1248" on="1"/>
        <pt x="369" y="1248" on="1"/>
        <pt x="369" y="478" on="1"/>
      </contour>
    </TTGlyph>
    <TTGlyph name="Q" xMin="137" yMin="-329" xMax="1685" yMax="1436">
      <contour>
        <pt x="239" y="305" on="0"/>
        <pt x="137" y="549" on="0"/>
        <pt x="137" y="802" on="0"/>
        <pt x="192" y="997" on="0"/>
        <pt x="294" y="1162" on="0"/>
        <pt x="436" y="1294" on="0"/>
        <pt x="523" y="1340" on="1"/>
        <pt x="705" y="1436" on="0"/>
        <pt x="920" y="1436" on="1"/>
        <pt x="1126" y="1436" on="0"/>
        <pt x="1304" y="1344" on="1"/>
        <pt x="1477" y="1254" on="0"/>
        <pt x="1580" y="1094" on="1"/>
        <pt x="1685" y="927" on="0"/>
        <pt x="1685" y="723" on="1"/>
        <pt x="1685" y="444" on="0"/>
        <pt x="1510" y="242" on="1"/>
        <pt x="1339" y="47" on="0"/>
        <pt x="1068" y="-4" on="1"/>
        <pt x="1419" y="-246" on="1"/>
        <pt x="1219" y="-329" on="1"/>
        <pt x="798" y="-13" on="1"/>
        <pt x="517" y="19" on="0"/>
        <pt x="328" y="213" on="1"/>
      </contour>
      <contour>
        <pt x="422" y="1041" on="0"/>
        <pt x="333" y="841" on="0"/>
        <pt x="333" y="601" on="0"/>
        <pt x="425" y="391" on="0"/>
        <pt x="505" y="313" on="1"/>
        <pt x="676" y="146" on="0"/>
        <pt x="920" y="146" on="1"/>
        <pt x="1157" y="146" on="0"/>
        <pt x="1322" y="302" on="1"/>
        <pt x="1489" y="460" on="0"/>
        <pt x="1489" y="693" on="1"/>
        <pt x="1489" y="851" on="0"/>
        <pt x="1409" y="986" on="1"/>
        <pt x="1334" y="1114" on="0"/>
        <pt x="1198" y="1192" on="1"/>
        <pt x="1064" y="1270" on="0"/>
        <pt x="784" y="1270" on="0"/>
        <pt x="577" y="1187" on="0"/>
      </contour>
    </TTGlyph>
    <TTGlyph name="R" xMin="184" yMin="0" xMax="1423" yMax="1416">
      <contour>
        <pt x="1423" y="980" on="1"/>
        <pt x="1423" y="665" on="0"/>
        <pt x="1133" y="545" on="1"/>
        <pt x="1402" y="0" on="1"/>
        <pt x="1187" y="0" on="1"/>
        <pt x="944" y="493" on="1"/>
        <pt x="845" y="478" on="0"/>
        <pt x="737" y="478" on="1"/>
        <pt x="369" y="478" on="1"/>
        <pt x="369" y="0" on="1"/>
        <pt x="184" y="0" on="1"/>
        <pt x="184" y="1416" on="1"/>
        <pt x="765" y="1416" on="1"/>
        <pt x="1079" y="1416" on="0"/>
        <pt x="1234" y="1330" on="1"/>
        <pt x="1423" y="1226" on="0"/>
      </contour>
      <contour>
        <pt x="762" y="646" on="1"/>
        <pt x="986" y="646" on="0"/>
        <pt x="1094" y="708" on="1"/>
        <pt x="1227" y="785" on="0"/>
        <pt x="1227" y="968" on="1"/>
        <pt x="1227" y="1206" on="0"/>
        <pt x="919" y="1238" on="1"/>
        <pt x="830" y="1248" on="0"/>
        <pt x="736" y="1248" on="1"/>
        <pt x="369" y="1248" on="1"/>
        <pt x="369" y="646" on="1"/>
      </contour>
    </TTGlyph>
    <TTGlyph name="Racute" xMin="184" yMin="0" xMax="1423" yMax="1876">
      <component glyphName="R" x="0" y="0" flags="0x1204"/>
      <component glyphName="acute.cap" x="457" y="0" flags="0x1004"/>
    </TTGlyph>
    <TTGlyph name="Rcaron" xMin="184" yMin="0" xMax="1423" yMax="1886">
      <component glyphName="R" x="0" y="0" flags="0x1204"/>
      <component glyphName="caron.cap" x="356" y="0" flags="0x1004"/>
    </TTGlyph>
    <TTGlyph name="Rcommaaccent" xMin="184" yMin="-486" xMax="1423" yMax="1416">
      <component glyphName="R" x="0" y="0" flags="0x1204"/>
      <component glyphName="commaaccent" x="361" y="0" flags="0x1004"/>
    </TTGlyph>
    <TTGlyph name="S" xMin="135" yMin="-21" xMax="1324" yMax="1436">
      <contour>
        <pt x="223" y="319" on="1"/>
        <pt x="409" y="199" on="0"/>
        <pt x="601" y="161" on="1"/>
        <pt x="666" y="148" on="0"/>
        <pt x="800" y="148" on="0"/>
        <pt x="943" y="173" on="0"/>
        <pt x="998" y="202" on="1"/>
        <pt x="1122" y="268" on="0"/>
        <pt x="1122" y="405" on="1"/>
        <pt x="1122" y="546" on="0"/>
        <pt x="914" y="602" on="1"/>
        <pt x="853" y="618" on="0"/>
        <pt x="784" y="631" on="1"/>
        <pt x="641" y="656" on="1"/>
        <pt x="368" y="703" on="0"/>
        <pt x="260" y="794" on="1"/>
        <pt x="160" y="877" on="0"/>
        <pt x="160" y="1018" on="1"/>
        <pt x="160" y="1210" on="0"/>
        <pt x="344" y="1329" on="1"/>
        <pt x="508" y="1436" on="0"/>
        <pt x="731" y="1436" on="1"/>
        <pt x="945" y="1436" on="0"/>
        <pt x="1116" y="1366" on="1"/>
        <pt x="1177" y="1342" on="0"/>
        <pt x="1243" y="1306" on="1"/>
        <pt x="1175" y="1143" on="1"/>
        <pt x="1030" y="1230" on="0"/>
        <pt x="833" y="1256" on="1"/>
        <pt x="771" y="1265" on="0"/>
        <pt x="713" y="1265" on="1"/>
        <pt x="580" y="1265" on="0"/>
        <pt x="478" y="1214" on="1"/>
        <pt x="359" y="1154" on="0"/>
        <pt x="359" y="1048" on="1"/>
        <pt x="359" y="936" on="0"/>
        <pt x="510" y="884" on="1"/>
        <pt x="578" y="860" on="0"/>
        <pt x="664" y="845" on="1"/>
        <pt x="842" y="814" on="1"/>
        <pt x="1067" y="772" on="0"/>
        <pt x="1241" y="666" on="0"/>
        <pt x="1324" y="535" on="0"/>
        <pt x="1324" y="318" on="0"/>
        <pt x="1222" y="146" on="0"/>
        <pt x="1137" y="90" on="1"/>
        <pt x="971" y="-21" on="0"/>
        <pt x="714" y="-21" on="1"/>
        <pt x="474" y="-21" on="0"/>
        <pt x="263" y="83" on="1"/>
        <pt x="194" y="117" on="0"/>
        <pt x="135" y="161" on="1"/>
      </contour>
    </TTGlyph>
    <TTGlyph name="T" xMin="67" yMin="0" xMax="1316" yMax="1416">
      <contour>
        <pt x="599" y="1248" on="1"/>
        <pt x="67" y="1248" on="1"/>
        <pt x="67" y="1416" on="1"/>
        <pt x="1316" y="1416" on="1"/>
        <pt x="1316" y="1248" on="1"/>
        <pt x="784" y="1248" on="1"/>
        <pt x="784" y="0" on="1"/>
        <pt x="599" y="0" on="1"/>
      </contour>
    </TTGlyph>
    <TTGlyph name="Thorn" xMin="184" yMin="0" xMax="1333" yMax="1416">
      <contour>
        <pt x="184" y="1416" on="1"/>
        <pt x="369" y="1416" on="1"/>
        <pt x="369" y="1221" on="1"/>
        <pt x="695" y="1221" on="1"/>
        <pt x="1144" y="1221" on="0"/>
        <pt x="1283" y="968" on="1"/>
        <pt x="1333" y="877" on="0"/>
        <pt x="1333" y="745" on="1"/>
        <pt x="1333" y="495" on="0"/>
        <pt x="1132" y="360" on="1"/>
        <pt x="952" y="240" on="0"/>
        <pt x="667" y="240" on="1"/>
        <pt x="369" y="240" on="1"/>
        <pt x="369" y="0" on="1"/>
        <pt x="184" y="0" on="1"/>
      </contour>
      <contour>
        <pt x="692" y="408" on="1"/>
        <pt x="1001" y="408" on="0"/>
        <pt x="1101" y="581" on="1"/>
        <pt x="1137" y="643" on="0"/>
        <pt x="1137" y="733" on="1"/>
        <pt x="1137" y="899" on="0"/>
        <pt x="992" y="982" on="1"/>
        <pt x="868" y="1053" on="0"/>
        <pt x="666" y="1053" on="1"/>
        <pt x="369" y="1053" on="1"/>
        <pt x="369" y="408" on="1"/>
      </contour>
    </TTGlyph>
    <TTGlyph name="U" xMin="153" yMin="-20" xMax="1439" yMax="1416">
      <contour>
        <pt x="153" y="1416" on="1"/>
        <pt x="338" y="1416" on="1"/>
        <pt x="338" y="683" on="1"/>
        <pt x="338" y="297" on="0"/>
        <pt x="595" y="184" on="1"/>
        <pt x="683" y="146" on="0"/>
        <pt x="923" y="146" on="0"/>
        <pt x="1092" y="216" on="0"/>
        <pt x="1147" y="282" on="1"/>
        <pt x="1254" y="409" on="0"/>
        <pt x="1254" y="653" on="1"/>
        <pt x="1254" y="1416" on="1"/>
        <pt x="1439" y="1416" on="1"/>
        <pt x="1439" y="683" on="1"/>
        <pt x="1439" y="174" on="0"/>
        <pt x="1072" y="28" on="1"/>
        <pt x="950" y="-20" on="0"/>
        <pt x="630" y="-20" on="0"/>
        <pt x="393" y="73" on="0"/>
        <pt x="314" y="160" on="1"/>
        <pt x="153" y="336" on="0"/>
        <pt x="153" y="653" on="1"/>
      </contour>
    </TTGlyph>
    <TTGlyph name="Uacute" xMin="153" yMin="-20" xMax="1439" yMax="1876">
      <component glyphName="U" x="0" y="0" flags="0x1204"/>
      <component glyphName="acute.cap" x="588" y="0" flags="0x1004"/>
    </TTGlyph>
    <TTGlyph name="Ucircumflex" xMin="153" yMin="-20" xMax="1439" yMax="1886">
      <component glyphName="U" x="0" y="0" flags="0x1204"/>
      <component glyphName="circumflex.cap" x="493" y="0" flags="0x1004"/>
    </TTGlyph>
    <TTGlyph name="Udieresis" xMin="153" yMin="-20" xMax="1439" yMax="1784">
      <component glyphName="U" x="0" y="0" flags="0x1204"/>
      <component glyphName="dieresis.cap" x="497" y="0" flags="0x1004"/>
    </TTGlyph>
    <TTGlyph name="Ugrave" xMin="153" yMin="-20" xMax="1439" yMax="1862">
      <component glyphName="U" x="0" y="0" flags="0x1204"/>
      <component glyphName="grave.cap" x="380" y="0" flags="0x1004"/>
    </TTGlyph>
    <TTGlyph name="V" xMin="25" yMin="-20" xMax="1413" yMax="1416">
      <contour>
        <pt x="25" y="1416" on="1"/>
        <pt x="232" y="1416" on="1"/>
        <pt x="600" y="603" on="1"/>
        <pt x="625" y="547" on="0"/>
        <pt x="646" y="492" on="1"/>
        <pt x="694" y="369" on="0"/>
        <pt x="720" y="291" on="1"/>
        <pt x="729" y="291" on="1"/>
        <pt x="743" y="336" on="0"/>
        <pt x="760" y="382" on="1"/>
        <pt x="796" y="480" on="1"/>
        <pt x="817" y="534" on="0"/>
        <pt x="843" y="590" on="1"/>
        <pt x="1217" y="1416" on="1"/>
        <pt x="1413" y="1416" on="1"/>
        <pt x="763" y="-20" on="1"/>
        <pt x="675" y="-20" on="1"/>
      </contour>
    </TTGlyph>
    <TTGlyph name="W" xMin="47" yMin="-20" xMax="2071" yMax="1416">
      <contour>
        <pt x="47" y="1416" on="1"/>
        <pt x="262" y="1416" on="1"/>
        <pt x="574" y="641" on="0"/>
        <pt x="592" y="595" on="1"/>
        <pt x="633" y="483" on="0"/>
        <pt x="646" y="443" on="1"/>
        <pt x="646" y="443" on="0"/>
        <pt x="671" y="372" on="1"/>
        <pt x="680" y="372" on="1"/>
        <pt x="693" y="419" on="0"/>
        <pt x="708" y="468" on="1"/>
        <pt x="708" y="468" on="0"/>
        <pt x="742" y="574" on="1"/>
        <pt x="761" y="632" on="0"/>
        <pt x="784" y="695" on="1"/>
        <pt x="1043" y="1416" on="1"/>
        <pt x="1100" y="1416" on="1"/>
        <pt x="1367" y="710" on="1"/>
        <pt x="1482" y="372" on="1"/>
        <pt x="1491" y="372" on="1"/>
        <pt x="1562" y="600" on="1"/>
        <pt x="1581" y="660" on="0"/>
        <pt x="1601" y="713" on="1"/>
        <pt x="1856" y="1416" on="1"/>
        <pt x="2071" y="1416" on="1"/>
        <pt x="1513" y="-20" on="1"/>
        <pt x="1456" y="-20" on="1"/>
        <pt x="1152" y="782" on="1"/>
        <pt x="1139" y="814" on="0"/>
        <pt x="1126" y="855" on="1"/>
        <pt x="1072" y="1020" on="1"/>
        <pt x="1066" y="1020" on="1"/>
        <pt x="1040" y="933" on="1"/>
        <pt x="1029" y="896" on="0"/>
        <pt x="1016" y="856" on="1"/>
        <pt x="702" y="-20" on="1"/>
        <pt x="645" y="-20" on="1"/>
      </contour>
    </TTGlyph>
    <TTGlyph name="X" xMin="43" yMin="0" xMax="1400" yMax="1416">
      <contour>
        <pt x="597" y="714" on="1"/>
        <pt x="47" y="1416" on="1"/>
        <pt x="290" y="1416" on="1"/>
        <pt x="718" y="869" on="1"/>
        <pt x="1143" y="1416" on="1"/>
        <pt x="1364" y="1416" on="1"/>
        <pt x="829" y="728" on="1"/>
        <pt x="1400" y="0" on="1"/>
        <pt x="1157" y="0" on="1"/>
        <pt x="708" y="572" on="1"/>
        <pt x="264" y="0" on="1"/>
        <pt x="43" y="0" on="1"/>
      </contour>
    </TTGlyph>
    <TTGlyph name="Y" xMin="37" yMin="0" xMax="1254" yMax="1416">
      <contour>
        <pt x="559" y="604" on="1"/>
        <pt x="37" y="1416" on="1"/>
        <pt x="240" y="1416" on="1"/>
        <pt x="653" y="769" on="1"/>
        <pt x="1063" y="1416" on="1"/>
        <pt x="1254" y="1416" on="1"/>
        <pt x="744" y="607" on="1"/>
        <pt x="744" y="0" on="1"/>
        <pt x="559" y="0" on="1"/>
      </contour>
    </TTGlyph>
    <TTGlyph name="Yacute" xMin="37" yMin="0" xMax="1254" yMax="1876">
      <component glyphName="Y" x="0" y="0" flags="0x1204"/>
      <component glyphName="acute.cap" x="327" y="0" flags="0x1004"/>
    </TTGlyph>
    <TTGlyph name="Z" xMin="107" yMin="0" xMax="1211" yMax="1417">
      <contour>
        <pt x="107" y="168" on="1"/>
        <pt x="980" y="1249" on="1"/>
        <pt x="107" y="1249" on="1"/>
        <pt x="107" y="1417" on="1"/>
        <pt x="1211" y="1417" on="1"/>
        <pt x="1211" y="1249" on="1"/>
        <pt x="338" y="168" on="1"/>
        <pt x="1211" y="168" on="1"/>
        <pt x="1211" y="0" on="1"/>
        <pt x="107" y="0" on="1"/>
      </contour>
    </TTGlyph>
    <TTGlyph name="a" xMin="112" yMin="-22" xMax="1109" yMax="1020">
      <contour>
        <pt x="837" y="128" on="1"/>
        <pt x="654" y="-20" on="0"/>
        <pt x="452" y="-20" on="1"/>
        <pt x="311" y="-20" on="0"/>
        <pt x="215" y="54" on="1"/>
        <pt x="112" y="134" on="0"/>
        <pt x="112" y="263" on="1"/>
        <pt x="112" y="529" on="0"/>
        <pt x="466" y="618" on="1"/>
        <pt x="609" y="654" on="0"/>
        <pt x="809" y="658" on="1"/>
        <pt x="803" y="821" on="0"/>
        <pt x="650" y="850" on="1"/>
        <pt x="600" y="860" on="0"/>
        <pt x="512" y="860" on="0"/>
        <pt x="444" y="852" on="0"/>
        <pt x="408" y="845" on="1"/>
        <pt x="329" y="830" on="0"/>
        <pt x="274" y="808" on="1"/>
        <pt x="221" y="950" on="1"/>
        <pt x="361" y="1020" on="0"/>
        <pt x="559" y="1020" on="1"/>
        <pt x="868" y="1020" on="0"/>
        <pt x="966" y="823" on="1"/>
        <pt x="999" y="755" on="0"/>
        <pt x="999" y="661" on="1"/>
        <pt x="999" y="342" on="1"/>
        <pt x="999" y="240" on="0"/>
        <pt x="1014" y="206" on="1"/>
        <pt x="1041" y="141" on="0"/>
        <pt x="1109" y="123" on="1"/>
        <pt x="1081" y="0" on="1"/>
        <pt x="894" y="-22" on="0"/>
      </contour>
      <contour>
        <pt x="384" y="426" on="0"/>
        <pt x="302" y="341" on="0"/>
        <pt x="302" y="243" on="0"/>
        <pt x="330" y="192" on="0"/>
        <pt x="353" y="175" on="1"/>
        <pt x="400" y="140" on="0"/>
        <pt x="526" y="140" on="0"/>
        <pt x="627" y="167" on="0"/>
        <pt x="670" y="189" on="1"/>
        <pt x="754" y="231" on="0"/>
        <pt x="809" y="293" on="1"/>
        <pt x="809" y="509" on="1"/>
        <pt x="571" y="497" on="0"/>
      </contour>
    </TTGlyph>
    <TTGlyph name="aacute" xMin="112" yMin="-22" xMax="1109" yMax="1521">
      <component glyphName="a" x="0" y="0" flags="0x1204"/>
      <component glyphName="acute" x="365" y="0" flags="0x1004"/>
    </TTGlyph>
    <TTGlyph name="acircumflex" xMin="112" yMin="-22" xMax="1109" yMax="1526">
      <component glyphName="a" x="0" y="0" flags="0x1204"/>
      <component glyphName="circumflex" x="304" y="0" flags="0x1004"/>
    </TTGlyph>
    <TTGlyph name="acute" xMin="86" yMin="1145" xMax="535" yMax="1521">
      <contour>
        <pt x="86" y="1235" on="1"/>
        <pt x="419" y="1521" on="1"/>
        <pt x="535" y="1405" on="1"/>
        <pt x="179" y="1145" on="1"/>
      </contour>
    </TTGlyph>
    <TTGlyph name="acute.cap" xMin="51" yMin="1538" xMax="625" yMax="1876">
      <contour>
        <pt x="51" y="1646" on="1"/>
        <pt x="536" y="1876" on="1"/>
        <pt x="625" y="1739" on="1"/>
        <pt x="123" y="1538" on="1"/>
      </contour>
    </TTGlyph>
    <TTGlyph name="adieresis" xMin="112" yMin="-22" xMax="1109" yMax="1434">
      <component glyphName="a" x="0" y="0" flags="0x1204"/>
      <component glyphName="dieresis" x="303" y="0" flags="0x1004"/>
    </TTGlyph>
    <TTGlyph name="ae" xMin="101" yMin="-20" xMax="1713" yMax="1020">
      <contour>
        <pt x="876" y="170" on="1"/>
        <pt x="658" y="-20" on="0"/>
        <pt x="428" y="-20" on="1"/>
        <pt x="295" y="-20" on="0"/>
        <pt x="202" y="54" on="1"/>
        <pt x="101" y="136" on="0"/>
        <pt x="101" y="263" on="1"/>
        <pt x="101" y="529" on="0"/>
        <pt x="454" y="618" on="1"/>
        <pt x="598" y="654" on="0"/>
        <pt x="798" y="658" on="1"/>
        <pt x="792" y="821" on="0"/>
        <pt x="638" y="850" on="1"/>
        <pt x="589" y="860" on="0"/>
        <pt x="501" y="860" on="0"/>
        <pt x="433" y="852" on="0"/>
        <pt x="397" y="845" on="1"/>
        <pt x="318" y="830" on="0"/>
        <pt x="263" y="808" on="1"/>
        <pt x="210" y="950" on="1"/>
        <pt x="350" y="1020" on="0"/>
        <pt x="548" y="1020" on="1"/>
        <pt x="827" y="1020" on="0"/>
        <pt x="935" y="859" on="1"/>
        <pt x="1081" y="1020" on="0"/>
        <pt x="1310" y="1020" on="1"/>
        <pt x="1491" y="1020" on="0"/>
        <pt x="1598" y="912" on="1"/>
        <pt x="1713" y="798" on="0"/>
        <pt x="1713" y="591" on="1"/>
        <pt x="1713" y="526" on="0"/>
        <pt x="1692" y="400" on="1"/>
        <pt x="997" y="400" on="1"/>
        <pt x="1019" y="279" on="0"/>
        <pt x="1171" y="140" on="0"/>
        <pt x="1310" y="140" on="1"/>
        <pt x="1496" y="140" on="0"/>
        <pt x="1651" y="208" on="1"/>
        <pt x="1683" y="65" on="1"/>
        <pt x="1580" y="5" on="0"/>
        <pt x="1390" y="-14" on="1"/>
        <pt x="1336" y="-20" on="0"/>
        <pt x="1291" y="-20" on="1"/>
        <pt x="995" y="-20" on="0"/>
      </contour>
      <contour>
        <pt x="1531" y="547" on="1"/>
        <pt x="1536" y="601" on="1"/>
        <pt x="1536" y="784" on="0"/>
        <pt x="1399" y="844" on="1"/>
        <pt x="1353" y="864" on="0"/>
        <pt x="1225" y="864" on="0"/>
        <pt x="1118" y="814" on="0"/>
        <pt x="1079" y="771" on="1"/>
        <pt x="999" y="683" on="0"/>
        <pt x="989" y="547" on="1"/>
      </contour>
      <contour>
        <pt x="373" y="426" on="0"/>
        <pt x="291" y="341" on="0"/>
        <pt x="291" y="243" on="0"/>
        <pt x="318" y="192" on="0"/>
        <pt x="340" y="175" on="1"/>
        <pt x="385" y="140" on="0"/>
        <pt x="508" y="140" on="0"/>
        <pt x="623" y="173" on="0"/>
        <pt x="672" y="198" on="1"/>
        <pt x="765" y="248" on="0"/>
        <pt x="817" y="316" on="1"/>
        <pt x="798" y="396" on="0"/>
        <pt x="798" y="498" on="1"/>
        <pt x="798" y="509" on="1"/>
        <pt x="560" y="497" on="0"/>
      </contour>
    </TTGlyph>
    <TTGlyph name="agrave" xMin="112" yMin="-22" xMax="1109" yMax="1525">
      <component glyphName="a" x="0" y="0" flags="0x1204"/>
      <component glyphName="grave" x="220" y="0" flags="0x1004"/>
    </TTGlyph>
    <TTGlyph name="ampersand" xMin="137" yMin="-29" xMax="1496" yMax="1436">
      <contour>
        <pt x="1099" y="168" on="1"/>
        <pt x="914" y="-19" on="0"/>
        <pt x="645" y="-19" on="1"/>
        <pt x="428" y="-19" on="0"/>
        <pt x="289" y="82" on="1"/>
        <pt x="137" y="193" on="0"/>
        <pt x="137" y="387" on="1"/>
        <pt x="137" y="643" on="0"/>
        <pt x="409" y="808" on="1"/>
        <pt x="321" y="938" on="0"/>
        <pt x="321" y="1131" on="0"/>
        <pt x="383" y="1279" on="0"/>
        <pt x="438" y="1330" on="1"/>
        <pt x="552" y="1436" on="0"/>
        <pt x="743" y="1436" on="1"/>
        <pt x="956" y="1436" on="0"/>
        <pt x="1125" y="1300" on="1"/>
        <pt x="1032" y="1152" on="1"/>
        <pt x="936" y="1236" on="0"/>
        <pt x="804" y="1262" on="1"/>
        <pt x="764" y="1270" on="0"/>
        <pt x="725" y="1270" on="1"/>
        <pt x="627" y="1270" on="0"/>
        <pt x="517" y="1165" on="0"/>
        <pt x="517" y="1067" on="1"/>
        <pt x="517" y="906" on="0"/>
        <pt x="938" y="550" on="1"/>
        <pt x="1077" y="434" on="1"/>
        <pt x="1156" y="602" on="0"/>
        <pt x="1156" y="812" on="1"/>
        <pt x="1343" y="814" on="1"/>
        <pt x="1343" y="538" on="0"/>
        <pt x="1217" y="323" on="1"/>
        <pt x="1496" y="112" on="1"/>
        <pt x="1373" y="-29" on="1"/>
      </contour>
      <contour>
        <pt x="965" y="270" on="1"/>
        <pt x="665" y="505" on="0"/>
        <pt x="514" y="676" on="1"/>
        <pt x="373" y="598" on="0"/>
        <pt x="344" y="498" on="1"/>
        <pt x="333" y="462" on="0"/>
        <pt x="333" y="354" on="0"/>
        <pt x="389" y="254" on="0"/>
        <pt x="435" y="219" on="1"/>
        <pt x="530" y="147" on="0"/>
        <pt x="643" y="147" on="1"/>
        <pt x="840" y="147" on="0"/>
      </contour>
    </TTGlyph>
    <TTGlyph name="aring" xMin="112" yMin="-22" xMax="1109" yMax="1561">
      <component glyphName="a" x="0" y="0" flags="0x1204"/>
      <component glyphName="ring" x="133" y="0" flags="0x1004"/>
    </TTGlyph>
    <TTGlyph name="asciicircum" xMin="65" yMin="625" xMax="1223" yMax="1436">
      <contour>
        <pt x="65" y="722" on="1"/>
        <pt x="639" y="1436" on="1"/>
        <pt x="1223" y="723" on="1"/>
        <pt x="1116" y="625" on="1"/>
        <pt x="633" y="1156" on="1"/>
        <pt x="176" y="632" on="1"/>
      </contour>
    </TTGlyph>
    <TTGlyph name="asciitilde" xMin="157" yMin="855" xMax="1131" yMax="1192">
      <contour>
        <pt x="157" y="910" on="1"/>
        <pt x="247" y="1127" on="0"/>
        <pt x="406" y="1180" on="1"/>
        <pt x="441" y="1192" on="0"/>
        <pt x="521" y="1192" on="0"/>
        <pt x="588" y="1165" on="0"/>
        <pt x="646" y="1125" on="0"/>
        <pt x="697" y="1078" on="0"/>
        <pt x="722" y="1058" on="1"/>
        <pt x="779" y="1011" on="0"/>
        <pt x="844" y="1011" on="0"/>
        <pt x="885" y="1025" on="0"/>
        <pt x="903" y="1037" on="1"/>
        <pt x="970" y="1081" on="0"/>
        <pt x="1020" y="1182" on="1"/>
        <pt x="1131" y="1126" on="1"/>
        <pt x="1029" y="917" on="0"/>
        <pt x="872" y="866" on="1"/>
        <pt x="836" y="855" on="0"/>
        <pt x="796" y="855" on="1"/>
        <pt x="705" y="855" on="0"/>
        <pt x="508" y="1036" on="0"/>
        <pt x="456" y="1036" on="1"/>
        <pt x="381" y="1036" on="0"/>
        <pt x="317" y="945" on="1"/>
        <pt x="289" y="905" on="0"/>
        <pt x="268" y="855" on="1"/>
      </contour>
    </TTGlyph>
    <TTGlyph name="asterisk" xMin="187" yMin="954" xMax="920" yMax="1735">
      <contour>
        <pt x="480" y="1218" on="1"/>
        <pt x="244" y="1101" on="1"/>
        <pt x="187" y="1199" on="1"/>
        <pt x="406" y="1345" on="1"/>
        <pt x="187" y="1491" on="1"/>
        <pt x="244" y="1589" on="1"/>
        <pt x="480" y="1471" on="1"/>
        <pt x="496" y="1735" on="1"/>
        <pt x="610" y="1735" on="1"/>
        <pt x="626" y="1472" on="1"/>
        <pt x="863" y="1590" on="1"/>
        <pt x="920" y="1491" on="1"/>
        <pt x="699" y="1345" on="1"/>
        <pt x="920" y="1199" on="1"/>
        <pt x="863" y="1100" on="1"/>
        <pt x="626" y="1218" on="1"/>
        <pt x="610" y="954" on="1"/>
        <pt x="496" y="954" on="1"/>
      </contour>
    </TTGlyph>
    <TTGlyph name="at" xMin="147" yMin="-243" xMax="1785" yMax="1296">
      <contour>
        <pt x="1219" y="818" on="1"/>
        <pt x="1232" y="883" on="1"/>
        <pt x="1384" y="883" on="1"/>
        <pt x="1295" y="448" on="1"/>
        <pt x="1278" y="364" on="0"/>
        <pt x="1317" y="258" on="0"/>
        <pt x="1434" y="258" on="0"/>
        <pt x="1529" y="340" on="0"/>
        <pt x="1562" y="402" on="1"/>
        <pt x="1629" y="526" on="0"/>
        <pt x="1629" y="780" on="0"/>
        <pt x="1547" y="964" on="0"/>
        <pt x="1474" y="1030" on="1"/>
        <pt x="1325" y="1165" on="0"/>
        <pt x="1092" y="1165" on="1"/>
        <pt x="895" y="1165" on="0"/>
        <pt x="707" y="1056" on="1"/>
        <pt x="527" y="952" on="0"/>
        <pt x="418" y="782" on="1"/>
        <pt x="303" y="606" on="0"/>
        <pt x="303" y="279" on="0"/>
        <pt x="406" y="72" on="0"/>
        <pt x="497" y="6" on="1"/>
        <pt x="675" y="-123" on="0"/>
        <pt x="979" y="-123" on="1"/>
        <pt x="940" y="-243" on="1"/>
        <pt x="586" y="-243" on="0"/>
        <pt x="377" y="-92" on="1"/>
        <pt x="147" y="75" on="0"/>
        <pt x="147" y="393" on="1"/>
        <pt x="147" y="650" on="0"/>
        <pt x="294" y="865" on="1"/>
        <pt x="430" y="1063" on="0"/>
        <pt x="656" y="1181" on="1"/>
        <pt x="876" y="1296" on="0"/>
        <pt x="1110" y="1296" on="1"/>
        <pt x="1396" y="1296" on="0"/>
        <pt x="1587" y="1136" on="1"/>
        <pt x="1785" y="970" on="0"/>
        <pt x="1785" y="697" on="1"/>
        <pt x="1785" y="483" on="0"/>
        <pt x="1662" y="306" on="1"/>
        <pt x="1580" y="190" on="0"/>
        <pt x="1463" y="142" on="1"/>
        <pt x="1404" y="117" on="0"/>
        <pt x="1337" y="117" on="1"/>
        <pt x="1174" y="117" on="0"/>
        <pt x="1138" y="255" on="1"/>
        <pt x="994" y="117" on="0"/>
        <pt x="841" y="117" on="1"/>
        <pt x="709" y="117" on="0"/>
        <pt x="631" y="206" on="1"/>
        <pt x="554" y="293" on="0"/>
        <pt x="554" y="429" on="1"/>
        <pt x="554" y="546" on="0"/>
        <pt x="616" y="662" on="1"/>
        <pt x="675" y="774" on="0"/>
        <pt x="777" y="846" on="1"/>
        <pt x="881" y="919" on="0"/>
        <pt x="1140" y="919" on="0"/>
      </contour>
      <contour>
        <pt x="1190" y="670" on="1"/>
        <pt x="1081" y="772" on="0"/>
        <pt x="961" y="772" on="1"/>
        <pt x="862" y="772" on="0"/>
        <pt x="792" y="666" on="1"/>
        <pt x="728" y="567" on="0"/>
        <pt x="728" y="456" on="1"/>
        <pt x="728" y="327" on="0"/>
        <pt x="803" y="280" on="1"/>
        <pt x="829" y="263" on="0"/>
        <pt x="911" y="263" on="0"/>
        <pt x="994" y="293" on="0"/>
        <pt x="1029" y="316" on="1"/>
        <pt x="1087" y="353" on="0"/>
        <pt x="1138" y="409" on="1"/>
        <pt x="1140" y="418" on="0"/>
        <pt x="1143" y="437" on="0"/>
        <pt x="1146" y="448" on="1"/>
      </contour>
      <contour>
        <pt x="1261" y="741" on="1"/>
        <pt x="1262" y="741" on="1"/>
      </contour>
    </TTGlyph>
    <TTGlyph name="atilde" xMin="112" yMin="-22" xMax="1109" yMax="1454">
      <component glyphName="a" x="0" y="0" flags="0x1204"/>
      <component glyphName="tilde" x="303" y="0" flags="0x1004"/>
    </TTGlyph>
    <TTGlyph name="b" xMin="184" yMin="-20" xMax="1174" yMax="1561">
      <contour>
        <pt x="374" y="919" on="1"/>
        <pt x="509" y="1020" on="0"/>
        <pt x="698" y="1020" on="1"/>
        <pt x="913" y="1020" on="0"/>
        <pt x="1045" y="878" on="1"/>
        <pt x="1174" y="740" on="0"/>
        <pt x="1174" y="520" on="1"/>
        <pt x="1174" y="281" on="0"/>
        <pt x="986" y="126" on="1"/>
        <pt x="807" y="-20" on="0"/>
        <pt x="550" y="-20" on="1"/>
        <pt x="437" y="-20" on="0"/>
        <pt x="215" y="12" on="0"/>
        <pt x="184" y="20" on="1"/>
        <pt x="184" y="1561" on="1"/>
        <pt x="374" y="1561" on="1"/>
      </contour>
      <contour>
        <pt x="374" y="174" on="1"/>
        <pt x="450" y="140" on="0"/>
        <pt x="655" y="140" on="0"/>
        <pt x="807" y="190" on="0"/>
        <pt x="863" y="237" on="1"/>
        <pt x="984" y="339" on="0"/>
        <pt x="984" y="508" on="1"/>
        <pt x="984" y="657" on="0"/>
        <pt x="906" y="755" on="1"/>
        <pt x="821" y="860" on="0"/>
        <pt x="685" y="860" on="1"/>
        <pt x="538" y="860" on="0"/>
        <pt x="432" y="782" on="1"/>
        <pt x="396" y="756" on="0"/>
        <pt x="374" y="722" on="1"/>
      </contour>
    </TTGlyph>
    <TTGlyph name="backslash" xMin="73" yMin="-467" xMax="924" yMax="1561">
      <contour>
        <pt x="73" y="1561" on="1"/>
        <pt x="256" y="1561" on="1"/>
        <pt x="924" y="-467" on="1"/>
        <pt x="741" y="-467" on="1"/>
      </contour>
    </TTGlyph>
    <TTGlyph name="bar" xMin="193" yMin="-467" xMax="360" yMax="1561">
      <contour>
        <pt x="193" y="1561" on="1"/>
        <pt x="360" y="1561" on="1"/>
        <pt x="360" y="-467" on="1"/>
        <pt x="193" y="-467" on="1"/>
      </contour>
    </TTGlyph>
    <TTGlyph name="braceleft" xMin="87" yMin="-330" xMax="556" yMax="1616">
      <contour>
        <pt x="256" y="642" on="1"/>
        <pt x="401" y="577" on="0"/>
        <pt x="401" y="362" on="1"/>
        <pt x="401" y="36" on="1"/>
        <pt x="401" y="-96" on="0"/>
        <pt x="494" y="-174" on="1"/>
        <pt x="522" y="-198" on="0"/>
        <pt x="556" y="-218" on="1"/>
        <pt x="481" y="-330" on="1"/>
        <pt x="311" y="-265" on="0"/>
        <pt x="254" y="-114" on="1"/>
        <pt x="234" y="-60" on="0"/>
        <pt x="234" y="6" on="1"/>
        <pt x="234" y="332" on="1"/>
        <pt x="234" y="430" on="0"/>
        <pt x="191" y="499" on="1"/>
        <pt x="147" y="569" on="0"/>
        <pt x="87" y="569" on="1"/>
        <pt x="87" y="698" on="1"/>
        <pt x="149" y="698" on="0"/>
        <pt x="191" y="752" on="1"/>
        <pt x="234" y="806" on="0"/>
        <pt x="234" y="895" on="1"/>
        <pt x="234" y="1225" on="1"/>
        <pt x="234" y="1377" on="0"/>
        <pt x="360" y="1578" on="0"/>
        <pt x="471" y="1616" on="1"/>
        <pt x="539" y="1509" on="1"/>
        <pt x="468" y="1470" on="0"/>
        <pt x="401" y="1352" on="0"/>
        <pt x="401" y="1255" on="1"/>
        <pt x="401" y="925" on="1"/>
        <pt x="401" y="709" on="0"/>
      </contour>
    </TTGlyph>
    <TTGlyph name="braceright" xMin="163" yMin="-330" xMax="632" yMax="1616">
      <component glyphName="braceleft" x="719" y="1286" scale="-0.999938964844" flags="0x1004"/>
    </TTGlyph>
    <TTGlyph name="bracketleft" xMin="193" yMin="-331" xMax="610" yMax="1616">
      <contour>
        <pt x="193" y="1616" on="1"/>
        <pt x="610" y="1616" on="1"/>
        <pt x="610" y="1448" on="1"/>
        <pt x="360" y="1448" on="1"/>
        <pt x="360" y="-162" on="1"/>
        <pt x="610" y="-162" on="1"/>
        <pt x="610" y="-331" on="1"/>
        <pt x="193" y="-331" on="1"/>
      </contour>
    </TTGlyph>
    <TTGlyph name="bracketright" xMin="179" yMin="-330" xMax="596" yMax="1617">
      <component glyphName="bracketleft" x="789" y="1286" scale="-0.999938964844" flags="0x1004"/>
    </TTGlyph>
    <TTGlyph name="brokenbar" xMin="193" yMin="-467" xMax="360" yMax="1561">
      <contour>
        <pt x="193" y="1561" on="1"/>
        <pt x="360" y="1561" on="1"/>
        <pt x="360" y="741" on="1"/>
        <pt x="193" y="741" on="1"/>
      </contour>
      <contour>
        <pt x="360" y="353" on="1"/>
        <pt x="360" y="-467" on="1"/>
        <pt x="193" y="-467" on="1"/>
        <pt x="193" y="353" on="1"/>
      </contour>
    </TTGlyph>
    <TTGlyph name="bullet" xMin="107" yMin="367" xMax="515" yMax="774">
      <contour>
        <pt x="432" y="397" on="0"/>
        <pt x="357" y="367" on="0"/>
        <pt x="266" y="367" on="0"/>
        <pt x="190" y="397" on="0"/>
        <pt x="163" y="424" on="1"/>
        <pt x="107" y="478" on="0"/>
        <pt x="107" y="570" on="1"/>
        <pt x="107" y="662" on="0"/>
        <pt x="219" y="774" on="0"/>
        <pt x="312" y="774" on="1"/>
        <pt x="452" y="774" on="0"/>
        <pt x="500" y="654" on="1"/>
        <pt x="515" y="616" on="0"/>
        <pt x="515" y="525" on="0"/>
        <pt x="485" y="450" on="0"/>
      </contour>
    </TTGlyph>
    <TTGlyph name="c" xMin="95" yMin="-20" xMax="956" yMax="1020">
      <contour>
        <pt x="921" y="214" on="1"/>
        <pt x="956" y="73" on="1"/>
        <pt x="831" y="-20" on="0"/>
        <pt x="588" y="-20" on="1"/>
        <pt x="356" y="-20" on="0"/>
        <pt x="224" y="122" on="1"/>
        <pt x="95" y="260" on="0"/>
        <pt x="95" y="498" on="1"/>
        <pt x="95" y="720" on="0"/>
        <pt x="240" y="870" on="1"/>
        <pt x="387" y="1020" on="0"/>
        <pt x="607" y="1020" on="1"/>
        <pt x="805" y="1020" on="0"/>
        <pt x="929" y="929" on="1"/>
        <pt x="863" y="780" on="1"/>
        <pt x="750" y="864" on="0"/>
        <pt x="589" y="864" on="1"/>
        <pt x="451" y="864" on="0"/>
        <pt x="366" y="758" on="1"/>
        <pt x="285" y="658" on="0"/>
        <pt x="285" y="510" on="1"/>
        <pt x="285" y="351" on="0"/>
        <pt x="370" y="248" on="1"/>
        <pt x="459" y="140" on="0"/>
        <pt x="771" y="140" on="0"/>
      </contour>
    </TTGlyph>
    <TTGlyph name="caron" xMin="-11" yMin="1145" xMax="607" yMax="1526">
      <contour>
        <pt x="-11" y="1437" on="1"/>
        <pt x="82" y="1526" on="1"/>
        <pt x="303" y="1341" on="1"/>
        <pt x="516" y="1526" on="1"/>
        <pt x="607" y="1439" on="1"/>
        <pt x="297" y="1145" on="1"/>
      </contour>
    </TTGlyph>
    <TTGlyph name="caron.cap" xMin="-91" yMin="1535" xMax="697" yMax="1886">
      <contour>
        <pt x="-91" y="1796" on="1"/>
        <pt x="12" y="1885" on="1"/>
        <pt x="313" y="1721" on="1"/>
        <pt x="606" y="1886" on="1"/>
        <pt x="697" y="1799" on="1"/>
        <pt x="307" y="1535" on="1"/>
      </contour>
    </TTGlyph>
    <TTGlyph name="ccedilla" xMin="95" yMin="-486" xMax="956" yMax="1020">
      <contour>
        <pt x="921" y="214" on="1"/>
        <pt x="956" y="73" on="1"/>
        <pt x="840" y="-14" on="0"/>
        <pt x="616" y="-19" on="1"/>
        <pt x="605" y="-47" on="0"/>
        <pt x="601" y="-58" on="1"/>
        <pt x="590" y="-83" on="0"/>
        <pt x="586" y="-100" on="1"/>
        <pt x="650" y="-116" on="0"/>
        <pt x="723" y="-192" on="0"/>
        <pt x="723" y="-283" on="0"/>
        <pt x="682" y="-352" on="0"/>
        <pt x="650" y="-384" on="1"/>
        <pt x="589" y="-445" on="0"/>
        <pt x="505" y="-486" on="1"/>
        <pt x="431" y="-411" on="1"/>
        <pt x="472" y="-380" on="1"/>
        <pt x="546" y="-320" on="0"/>
        <pt x="546" y="-279" on="1"/>
        <pt x="546" y="-234" on="0"/>
        <pt x="429" y="-209" on="1"/>
        <pt x="452" y="-114" on="0"/>
        <pt x="506" y="-15" on="1"/>
        <pt x="310" y="9" on="0"/>
        <pt x="202" y="146" on="1"/>
        <pt x="95" y="281" on="0"/>
        <pt x="95" y="498" on="1"/>
        <pt x="95" y="720" on="0"/>
        <pt x="240" y="870" on="1"/>
        <pt x="387" y="1020" on="0"/>
        <pt x="607" y="1020" on="1"/>
        <pt x="805" y="1020" on="0"/>
        <pt x="929" y="929" on="1"/>
        <pt x="863" y="780" on="1"/>
        <pt x="750" y="864" on="0"/>
        <pt x="589" y="864" on="1"/>
        <pt x="451" y="864" on="0"/>
        <pt x="366" y="758" on="1"/>
        <pt x="285" y="658" on="0"/>
        <pt x="285" y="510" on="1"/>
        <pt x="285" y="351" on="0"/>
        <pt x="370" y="248" on="1"/>
        <pt x="459" y="140" on="0"/>
        <pt x="771" y="140" on="0"/>
      </contour>
    </TTGlyph>
    <TTGlyph name="cedilla" xMin="144" yMin="-486" xMax="438" yMax="-3">
      <contour>
        <pt x="334" y="-15" on="1"/>
        <pt x="326" y="-33" on="0"/>
        <pt x="320" y="-48" on="1"/>
        <pt x="320" y="-48" on="0"/>
        <pt x="308" y="-77" on="1"/>
        <pt x="303" y="-91" on="0"/>
        <pt x="301" y="-100" on="1"/>
        <pt x="365" y="-116" on="0"/>
        <pt x="438" y="-192" on="0"/>
        <pt x="438" y="-283" on="0"/>
        <pt x="397" y="-352" on="0"/>
        <pt x="366" y="-384" on="1"/>
        <pt x="304" y="-445" on="0"/>
        <pt x="220" y="-486" on="1"/>
        <pt x="146" y="-411" on="1"/>
        <pt x="146" y="-411" on="0"/>
        <pt x="186" y="-380" on="1"/>
        <pt x="261" y="-320" on="0"/>
        <pt x="261" y="-279" on="1"/>
        <pt x="261" y="-234" on="0"/>
        <pt x="144" y="-209" on="1"/>
        <pt x="157" y="-161" on="0"/>
        <pt x="174" y="-118" on="1"/>
        <pt x="204" y="-50" on="1"/>
        <pt x="216" y="-23" on="0"/>
        <pt x="227" y="-3" on="1"/>
      </contour>
    </TTGlyph>
    <TTGlyph name="cent" xMin="95" yMin="-96" xMax="1028" yMax="1471">
      <contour>
        <pt x="1028" y="273" on="1"/>
        <pt x="903" y="203" on="0"/>
        <pt x="718" y="184" on="1"/>
        <pt x="718" y="-96" on="1"/>
        <pt x="565" y="-96" on="1"/>
        <pt x="565" y="182" on="1"/>
        <pt x="347" y="200" on="0"/>
        <pt x="222" y="335" on="1"/>
        <pt x="95" y="472" on="0"/>
        <pt x="95" y="698" on="1"/>
        <pt x="95" y="909" on="0"/>
        <pt x="228" y="1051" on="1"/>
        <pt x="358" y="1191" on="0"/>
        <pt x="565" y="1215" on="1"/>
        <pt x="565" y="1471" on="1"/>
        <pt x="718" y="1471" on="1"/>
        <pt x="718" y="1217" on="1"/>
        <pt x="888" y="1205" on="0"/>
        <pt x="999" y="1145" on="1"/>
        <pt x="953" y="992" on="1"/>
        <pt x="857" y="1043" on="0"/>
        <pt x="718" y="1058" on="1"/>
        <pt x="718" y="343" on="1"/>
        <pt x="876" y="359" on="0"/>
        <pt x="992" y="416" on="1"/>
      </contour>
      <contour>
        <pt x="565" y="1059" on="1"/>
        <pt x="435" y="1039" on="0"/>
        <pt x="360" y="944" on="1"/>
        <pt x="285" y="850" on="0"/>
        <pt x="285" y="710" on="1"/>
        <pt x="285" y="492" on="0"/>
        <pt x="448" y="392" on="1"/>
        <pt x="500" y="360" on="0"/>
        <pt x="565" y="348" on="1"/>
      </contour>
    </TTGlyph>
    <TTGlyph name="circumflex" xMin="-11" yMin="1145" xMax="607" yMax="1526">
      <contour>
        <pt x="-11" y="1232" on="1"/>
        <pt x="299" y="1526" on="1"/>
        <pt x="607" y="1234" on="1"/>
        <pt x="514" y="1145" on="1"/>
        <pt x="293" y="1330" on="1"/>
        <pt x="80" y="1145" on="1"/>
      </contour>
    </TTGlyph>
    <TTGlyph name="circumflex.cap" xMin="-91" yMin="1535" xMax="697" yMax="1886">
      <contour>
        <pt x="-91" y="1622" on="1"/>
        <pt x="299" y="1886" on="1"/>
        <pt x="697" y="1625" on="1"/>
        <pt x="594" y="1536" on="1"/>
        <pt x="293" y="1702" on="1"/>
        <pt x="0" y="1535" on="1"/>
      </contour>
    </TTGlyph>
    <TTGlyph name="colon" xMin="158" yMin="-13" xMax="406" yMax="814">
      <contour>
        <pt x="406" y="635" on="0"/>
        <pt x="338" y="567" on="0"/>
        <pt x="226" y="567" on="0"/>
        <pt x="158" y="635" on="0"/>
        <pt x="158" y="747" on="0"/>
        <pt x="226" y="814" on="0"/>
        <pt x="338" y="814" on="0"/>
        <pt x="406" y="747" on="0"/>
      </contour>
      <contour>
        <pt x="226" y="-13" on="0"/>
        <pt x="158" y="55" on="0"/>
        <pt x="158" y="167" on="0"/>
        <pt x="226" y="234" on="0"/>
        <pt x="338" y="234" on="0"/>
        <pt x="406" y="167" on="0"/>
        <pt x="406" y="55" on="0"/>
        <pt x="338" y="-13" on="0"/>
      </contour>
    </TTGlyph>
    <TTGlyph name="comma" xMin="112" yMin="-279" xMax="407" yMax="234">
      <contour>
        <pt x="211" y="32" on="1"/>
        <pt x="159" y="66" on="0"/>
        <pt x="159" y="122" on="1"/>
        <pt x="159" y="199" on="0"/>
        <pt x="236" y="226" on="1"/>
        <pt x="258" y="234" on="0"/>
        <pt x="310" y="234" on="0"/>
        <pt x="356" y="214" on="0"/>
        <pt x="372" y="197" on="1"/>
        <pt x="407" y="161" on="0"/>
        <pt x="407" y="75" on="0"/>
        <pt x="386" y="0" on="0"/>
        <pt x="352" y="-76" on="0"/>
        <pt x="309" y="-150" on="0"/>
        <pt x="286" y="-182" on="1"/>
        <pt x="236" y="-250" on="0"/>
        <pt x="203" y="-279" on="1"/>
        <pt x="112" y="-228" on="1"/>
        <pt x="165" y="-155" on="0"/>
        <pt x="198" y="-34" on="1"/>
        <pt x="209" y="3" on="0"/>
      </contour>
    </TTGlyph>
    <TTGlyph name="commaaccent" xMin="169" yMin="-486" xMax="434" yMax="-99">
      <contour>
        <pt x="169" y="-445" on="1"/>
        <pt x="270" y="-259" on="0"/>
        <pt x="238" y="-118" on="1"/>
        <pt x="400" y="-99" on="1"/>
        <pt x="434" y="-247" on="0"/>
        <pt x="322" y="-412" on="1"/>
        <pt x="293" y="-455" on="0"/>
        <pt x="265" y="-486" on="1"/>
      </contour>
    </TTGlyph>
    <TTGlyph name="copyright" xMin="137" yMin="-20" xMax="1447" yMax="1212">
      <contour>
        <pt x="137" y="586" on="1"/>
        <pt x="137" y="721" on="0"/>
        <pt x="240" y="953" on="0"/>
        <pt x="330" y="1036" on="1"/>
        <pt x="521" y="1212" on="0"/>
        <pt x="800" y="1212" on="1"/>
        <pt x="1070" y="1212" on="0"/>
        <pt x="1256" y="1043" on="1"/>
        <pt x="1344" y="963" on="0"/>
        <pt x="1447" y="741" on="0"/>
        <pt x="1447" y="471" on="0"/>
        <pt x="1344" y="239" on="0"/>
        <pt x="1254" y="156" on="1"/>
        <pt x="1063" y="-20" on="0"/>
        <pt x="784" y="-20" on="1"/>
        <pt x="514" y="-20" on="0"/>
        <pt x="328" y="149" on="1"/>
        <pt x="137" y="323" on="0"/>
      </contour>
      <contour>
        <pt x="283" y="608" on="1"/>
        <pt x="283" y="502" on="0"/>
        <pt x="364" y="317" on="0"/>
        <pt x="434" y="248" on="1"/>
        <pt x="586" y="101" on="0"/>
        <pt x="800" y="101" on="1"/>
        <pt x="1009" y="101" on="0"/>
        <pt x="1154" y="238" on="1"/>
        <pt x="1301" y="378" on="0"/>
        <pt x="1301" y="583" on="1"/>
        <pt x="1301" y="797" on="0"/>
        <pt x="1150" y="944" on="1"/>
        <pt x="998" y="1092" on="0"/>
        <pt x="784" y="1092" on="1"/>
        <pt x="575" y="1092" on="0"/>
        <pt x="430" y="954" on="1"/>
        <pt x="283" y="815" on="0"/>
      </contour>
      <contour>
        <pt x="818" y="401" on="1"/>
        <pt x="917" y="401" on="0"/>
        <pt x="1009" y="446" on="1"/>
        <pt x="1036" y="342" on="1"/>
        <pt x="980" y="300" on="0"/>
        <pt x="870" y="282" on="1"/>
        <pt x="836" y="277" on="0"/>
        <pt x="729" y="277" on="0"/>
        <pt x="604" y="320" on="0"/>
        <pt x="560" y="360" on="1"/>
        <pt x="467" y="446" on="0"/>
        <pt x="467" y="595" on="1"/>
        <pt x="467" y="739" on="0"/>
        <pt x="568" y="829" on="1"/>
        <pt x="668" y="917" on="0"/>
        <pt x="818" y="917" on="1"/>
        <pt x="927" y="917" on="0"/>
        <pt x="1016" y="863" on="1"/>
        <pt x="965" y="753" on="1"/>
        <pt x="888" y="796" on="0"/>
        <pt x="711" y="796" on="0"/>
        <pt x="613" y="698" on="0"/>
        <pt x="613" y="604" on="1"/>
        <pt x="613" y="401" on="0"/>
      </contour>
    </TTGlyph>
    <TTGlyph name="currency" xMin="59" yMin="93" xMax="1140" yMax="1174">
      <contour>
        <pt x="592" y="248" on="1"/>
        <pt x="463" y="248" on="0"/>
        <pt x="364" y="312" on="1"/>
        <pt x="169" y="93" on="1"/>
        <pt x="59" y="203" on="1"/>
        <pt x="274" y="394" on="1"/>
        <pt x="199" y="494" on="0"/>
        <pt x="199" y="628" on="1"/>
        <pt x="199" y="763" on="0"/>
        <pt x="281" y="866" on="1"/>
        <pt x="59" y="1064" on="1"/>
        <pt x="169" y="1174" on="1"/>
        <pt x="370" y="948" on="1"/>
        <pt x="475" y="1020" on="0"/>
        <pt x="606" y="1020" on="1"/>
        <pt x="733" y="1020" on="0"/>
        <pt x="834" y="955" on="1"/>
        <pt x="1030" y="1174" on="1"/>
        <pt x="1140" y="1064" on="1"/>
        <pt x="923" y="872" on="1"/>
        <pt x="999" y="771" on="0"/>
        <pt x="999" y="637" on="1"/>
        <pt x="999" y="503" on="0"/>
        <pt x="918" y="401" on="1"/>
        <pt x="1140" y="203" on="1"/>
        <pt x="1030" y="93" on="1"/>
        <pt x="829" y="319" on="1"/>
        <pt x="722" y="248" on="0"/>
      </contour>
      <contour>
        <pt x="604" y="389" on="1"/>
        <pt x="655" y="389" on="0"/>
        <pt x="737" y="427" on="0"/>
        <pt x="766" y="459" on="1"/>
        <pt x="828" y="526" on="0"/>
        <pt x="828" y="628" on="1"/>
        <pt x="828" y="736" on="0"/>
        <pt x="763" y="806" on="1"/>
        <pt x="696" y="879" on="0"/>
        <pt x="592" y="879" on="1"/>
        <pt x="496" y="879" on="0"/>
        <pt x="432" y="807" on="1"/>
        <pt x="370" y="738" on="0"/>
        <pt x="370" y="637" on="1"/>
        <pt x="370" y="529" on="0"/>
        <pt x="435" y="460" on="1"/>
        <pt x="502" y="389" on="0"/>
      </contour>
    </TTGlyph>
    <TTGlyph name="d" xMin="95" yMin="-20" xMax="1085" yMax="1561">
      <contour>
        <pt x="911" y="95" on="1"/>
        <pt x="770" y="-20" on="0"/>
        <pt x="571" y="-20" on="1"/>
        <pt x="356" y="-20" on="0"/>
        <pt x="224" y="122" on="1"/>
        <pt x="95" y="260" on="0"/>
        <pt x="95" y="480" on="1"/>
        <pt x="95" y="719" on="0"/>
        <pt x="283" y="874" on="1"/>
        <pt x="462" y="1020" on="0"/>
        <pt x="719" y="1020" on="1"/>
        <pt x="820" y="1020" on="0"/>
        <pt x="895" y="1005" on="1"/>
        <pt x="895" y="1561" on="1"/>
        <pt x="1085" y="1561" on="1"/>
        <pt x="1085" y="0" on="1"/>
        <pt x="940" y="0" on="1"/>
      </contour>
      <contour>
        <pt x="895" y="836" on="1"/>
        <pt x="790" y="860" on="0"/>
        <pt x="614" y="860" on="0"/>
        <pt x="462" y="810" on="0"/>
        <pt x="406" y="763" on="1"/>
        <pt x="285" y="661" on="0"/>
        <pt x="285" y="492" on="1"/>
        <pt x="285" y="344" on="0"/>
        <pt x="363" y="245" on="1"/>
        <pt x="446" y="140" on="0"/>
        <pt x="584" y="140" on="1"/>
        <pt x="740" y="140" on="0"/>
        <pt x="842" y="218" on="1"/>
        <pt x="874" y="243" on="0"/>
        <pt x="895" y="276" on="1"/>
      </contour>
    </TTGlyph>
    <TTGlyph name="degree" xMin="69" yMin="856" xMax="669" yMax="1436">
      <contour>
        <pt x="368" y="856" on="1"/>
        <pt x="240" y="856" on="0"/>
        <pt x="156" y="936" on="1"/>
        <pt x="69" y="1019" on="0"/>
        <pt x="69" y="1143" on="1"/>
        <pt x="69" y="1267" on="0"/>
        <pt x="156" y="1352" on="1"/>
        <pt x="242" y="1436" on="0"/>
        <pt x="370" y="1436" on="1"/>
        <pt x="497" y="1436" on="0"/>
        <pt x="582" y="1354" on="1"/>
        <pt x="669" y="1272" on="0"/>
        <pt x="669" y="1147" on="1"/>
        <pt x="669" y="1022" on="0"/>
        <pt x="582" y="938" on="1"/>
        <pt x="495" y="856" on="0"/>
      </contour>
      <contour>
        <pt x="445" y="977" on="0"/>
        <pt x="532" y="1068" on="0"/>
        <pt x="532" y="1143" on="1"/>
        <pt x="532" y="1261" on="0"/>
        <pt x="436" y="1302" on="1"/>
        <pt x="405" y="1315" on="0"/>
        <pt x="368" y="1315" on="1"/>
        <pt x="293" y="1315" on="0"/>
        <pt x="206" y="1222" on="0"/>
        <pt x="206" y="1109" on="0"/>
        <pt x="229" y="1047" on="0"/>
        <pt x="250" y="1024" on="1"/>
        <pt x="296" y="977" on="0"/>
      </contour>
    </TTGlyph>
    <TTGlyph name="dieresis" xMin="-3" yMin="1222" xMax="601" yMax="1434">
      <contour>
        <pt x="495" y="1222" on="1"/>
        <pt x="450" y="1222" on="0"/>
        <pt x="389" y="1283" on="0"/>
        <pt x="389" y="1328" on="1"/>
        <pt x="389" y="1373" on="0"/>
        <pt x="450" y="1434" on="0"/>
        <pt x="495" y="1434" on="1"/>
        <pt x="540" y="1434" on="0"/>
        <pt x="601" y="1373" on="0"/>
        <pt x="601" y="1328" on="1"/>
        <pt x="601" y="1283" on="0"/>
        <pt x="540" y="1222" on="0"/>
      </contour>
      <contour>
        <pt x="103" y="1222" on="1"/>
        <pt x="58" y="1222" on="0"/>
        <pt x="-3" y="1283" on="0"/>
        <pt x="-3" y="1328" on="1"/>
        <pt x="-3" y="1373" on="0"/>
        <pt x="58" y="1434" on="0"/>
        <pt x="103" y="1434" on="1"/>
        <pt x="148" y="1434" on="0"/>
        <pt x="209" y="1373" on="0"/>
        <pt x="209" y="1328" on="1"/>
        <pt x="209" y="1283" on="0"/>
        <pt x="148" y="1222" on="0"/>
      </contour>
    </TTGlyph>
    <TTGlyph name="dieresis.cap" xMin="-53" yMin="1572" xMax="651" yMax="1784">
      <contour>
        <pt x="545" y="1572" on="1"/>
        <pt x="500" y="1572" on="0"/>
        <pt x="439" y="1633" on="0"/>
        <pt x="439" y="1678" on="1"/>
        <pt x="439" y="1723" on="0"/>
        <pt x="500" y="1784" on="0"/>
        <pt x="545" y="1784" on="1"/>
        <pt x="590" y="1784" on="0"/>
        <pt x="651" y="1723" on="0"/>
        <pt x="651" y="1678" on="1"/>
        <pt x="651" y="1633" on="0"/>
        <pt x="590" y="1572" on="0"/>
      </contour>
      <contour>
        <pt x="53" y="1572" on="1"/>
        <pt x="8" y="1572" on="0"/>
        <pt x="-53" y="1633" on="0"/>
        <pt x="-53" y="1678" on="1"/>
        <pt x="-53" y="1723" on="0"/>
        <pt x="8" y="1784" on="0"/>
        <pt x="53" y="1784" on="1"/>
        <pt x="98" y="1784" on="0"/>
        <pt x="159" y="1723" on="0"/>
        <pt x="159" y="1678" on="1"/>
        <pt x="159" y="1633" on="0"/>
        <pt x="98" y="1572" on="0"/>
      </contour>
    </TTGlyph>
    <TTGlyph name="divide" xMin="207" yMin="47" xMax="1129" yMax="1012">
      <contour>
        <pt x="792" y="833" on="0"/>
        <pt x="724" y="765" on="0"/>
        <pt x="612" y="765" on="0"/>
        <pt x="544" y="833" on="0"/>
        <pt x="544" y="945" on="0"/>
        <pt x="612" y="1012" on="0"/>
        <pt x="724" y="1012" on="0"/>
        <pt x="792" y="945" on="0"/>
      </contour>
      <contour>
        <pt x="207" y="613" on="1"/>
        <pt x="1129" y="613" on="1"/>
        <pt x="1129" y="445" on="1"/>
        <pt x="207" y="445" on="1"/>
      </contour>
      <contour>
        <pt x="612" y="47" on="0"/>
        <pt x="544" y="115" on="0"/>
        <pt x="544" y="227" on="0"/>
        <pt x="612" y="294" on="0"/>
        <pt x="724" y="294" on="0"/>
        <pt x="792" y="227" on="0"/>
        <pt x="792" y="115" on="0"/>
        <pt x="724" y="47" on="0"/>
      </contour>
    </TTGlyph>
    <TTGlyph name="dollar" xMin="116" yMin="-96" xMax="1161" yMax="1471">
      <contour>
        <pt x="211" y="406" on="1"/>
        <pt x="374" y="283" on="0"/>
        <pt x="565" y="254" on="1"/>
        <pt x="565" y="659" on="1"/>
        <pt x="370" y="696" on="0"/>
        <pt x="218" y="786" on="0"/>
        <pt x="146" y="895" on="0"/>
        <pt x="146" y="1056" on="0"/>
        <pt x="217" y="1181" on="0"/>
        <pt x="276" y="1226" on="1"/>
        <pt x="393" y="1315" on="0"/>
        <pt x="565" y="1332" on="1"/>
        <pt x="565" y="1471" on="1"/>
        <pt x="718" y="1471" on="1"/>
        <pt x="718" y="1332" on="1"/>
        <pt x="925" y="1311" on="0"/>
        <pt x="1089" y="1206" on="1"/>
        <pt x="1020" y="1044" on="1"/>
        <pt x="880" y="1128" on="0"/>
        <pt x="718" y="1159" on="1"/>
        <pt x="718" y="802" on="1"/>
        <pt x="928" y="760" on="0"/>
        <pt x="1083" y="672" on="0"/>
        <pt x="1161" y="559" on="0"/>
        <pt x="1161" y="472" on="1"/>
        <pt x="1161" y="308" on="0"/>
        <pt x="1026" y="204" on="1"/>
        <pt x="906" y="111" on="0"/>
        <pt x="718" y="87" on="1"/>
        <pt x="718" y="-96" on="1"/>
        <pt x="565" y="-96" on="1"/>
        <pt x="565" y="82" on="1"/>
        <pt x="380" y="94" on="0"/>
        <pt x="212" y="184" on="1"/>
        <pt x="159" y="212" on="0"/>
        <pt x="116" y="246" on="1"/>
      </contour>
      <contour>
        <pt x="565" y="1165" on="1"/>
        <pt x="413" y="1147" on="0"/>
        <pt x="362" y="1064" on="1"/>
        <pt x="344" y="1034" on="0"/>
        <pt x="344" y="956" on="0"/>
        <pt x="378" y="906" on="0"/>
        <pt x="408" y="888" on="1"/>
        <pt x="461" y="854" on="0"/>
        <pt x="565" y="832" on="1"/>
      </contour>
      <contour>
        <pt x="718" y="254" on="1"/>
        <pt x="885" y="275" on="0"/>
        <pt x="942" y="374" on="1"/>
        <pt x="963" y="410" on="0"/>
        <pt x="963" y="496" on="0"/>
        <pt x="925" y="550" on="0"/>
        <pt x="892" y="570" on="1"/>
        <pt x="836" y="603" on="0"/>
        <pt x="718" y="628" on="1"/>
      </contour>
    </TTGlyph>
    <TTGlyph name="dotlessi" xMin="184" yMin="0" xMax="374" yMax="1000">
      <contour>
        <pt x="184" y="1000" on="1"/>
        <pt x="374" y="1000" on="1"/>
        <pt x="374" y="0" on="1"/>
        <pt x="184" y="0" on="1"/>
      </contour>
    </TTGlyph>
    <TTGlyph name="dotlessj" xMin="55" yMin="-485" xMax="374" yMax="1000">
      <contour>
        <pt x="184" y="1000" on="1"/>
        <pt x="374" y="1000" on="1"/>
        <pt x="374" y="-65" on="1"/>
        <pt x="374" y="-307" on="0"/>
        <pt x="244" y="-417" on="1"/>
        <pt x="199" y="-455" on="0"/>
        <pt x="135" y="-485" on="1"/>
        <pt x="55" y="-356" on="1"/>
        <pt x="126" y="-313" on="0"/>
        <pt x="154" y="-257" on="1"/>
        <pt x="184" y="-198" on="0"/>
        <pt x="184" y="-85" on="1"/>
      </contour>
    </TTGlyph>
    <TTGlyph name="e" xMin="95" yMin="-20" xMax="1010" yMax="1020">
      <contour>
        <pt x="949" y="859" on="0"/>
        <pt x="1010" y="698" on="0"/>
        <pt x="1010" y="520" on="0"/>
        <pt x="990" y="400" on="1"/>
        <pt x="294" y="400" on="1"/>
        <pt x="316" y="279" on="0"/>
        <pt x="468" y="140" on="0"/>
        <pt x="607" y="140" on="1"/>
        <pt x="793" y="140" on="0"/>
        <pt x="948" y="208" on="1"/>
        <pt x="980" y="65" on="1"/>
        <pt x="877" y="5" on="0"/>
        <pt x="686" y="-14" on="1"/>
        <pt x="633" y="-20" on="0"/>
        <pt x="463" y="-20" on="0"/>
        <pt x="277" y="48" on="0"/>
        <pt x="216" y="114" on="1"/>
        <pt x="95" y="245" on="0"/>
        <pt x="95" y="498" on="1"/>
        <pt x="95" y="720" on="0"/>
        <pt x="240" y="870" on="1"/>
        <pt x="387" y="1020" on="0"/>
        <pt x="607" y="1020" on="1"/>
        <pt x="788" y="1020" on="0"/>
        <pt x="896" y="912" on="1"/>
      </contour>
      <contour>
        <pt x="829" y="547" on="1"/>
        <pt x="833" y="601" on="1"/>
        <pt x="833" y="784" on="0"/>
        <pt x="696" y="844" on="1"/>
        <pt x="650" y="864" on="0"/>
        <pt x="522" y="864" on="0"/>
        <pt x="415" y="814" on="0"/>
        <pt x="376" y="771" on="1"/>
        <pt x="296" y="683" on="0"/>
        <pt x="286" y="547" on="1"/>
      </contour>
    </TTGlyph>
    <TTGlyph name="eacute" xMin="95" yMin="-20" xMax="1010" yMax="1521">
      <component glyphName="e" x="0" y="0" flags="0x1204"/>
      <component glyphName="acute" x="335" y="0" flags="0x1004"/>
    </TTGlyph>
    <TTGlyph name="ecircumflex" xMin="95" yMin="-20" xMax="1010" yMax="1526">
      <component glyphName="e" x="0" y="0" flags="0x1204"/>
      <component glyphName="circumflex" x="306" y="0" flags="0x1004"/>
    </TTGlyph>
    <TTGlyph name="edieresis" xMin="95" yMin="-20" xMax="1010" yMax="1434">
      <component glyphName="e" x="0" y="0" flags="0x1204"/>
      <component glyphName="dieresis" x="254" y="0" flags="0x1004"/>
    </TTGlyph>
    <TTGlyph name="egrave" xMin="95" yMin="-20" xMax="1010" yMax="1525">
      <component glyphName="e" x="0" y="0" flags="0x1204"/>
      <component glyphName="grave" x="223" y="0" flags="0x1004"/>
    </TTGlyph>
    <TTGlyph name="eight" xMin="127" yMin="-20" xMax="1205" yMax="1436">
      <contour>
        <pt x="212" y="134" on="0"/>
        <pt x="127" y="291" on="0"/>
        <pt x="127" y="456" on="0"/>
        <pt x="168" y="563" on="0"/>
        <pt x="202" y="608" on="1"/>
        <pt x="274" y="701" on="0"/>
        <pt x="381" y="738" on="1"/>
        <pt x="381" y="744" on="1"/>
        <pt x="293" y="769" on="0"/>
        <pt x="232" y="852" on="1"/>
        <pt x="168" y="938" on="0"/>
        <pt x="168" y="1137" on="0"/>
        <pt x="254" y="1282" on="0"/>
        <pt x="324" y="1332" on="1"/>
        <pt x="469" y="1436" on="0"/>
        <pt x="672" y="1436" on="1"/>
        <pt x="878" y="1436" on="0"/>
        <pt x="1014" y="1340" on="1"/>
        <pt x="1159" y="1236" on="0"/>
        <pt x="1159" y="1062" on="1"/>
        <pt x="1159" y="902" on="0"/>
        <pt x="1028" y="802" on="1"/>
        <pt x="984" y="769" on="0"/>
        <pt x="926" y="749" on="1"/>
        <pt x="926" y="744" on="1"/>
        <pt x="1126" y="688" on="0"/>
        <pt x="1186" y="523" on="1"/>
        <pt x="1205" y="469" on="0"/>
        <pt x="1205" y="338" on="0"/>
        <pt x="1161" y="222" on="0"/>
        <pt x="1084" y="127" on="0"/>
        <pt x="979" y="55" on="0"/>
        <pt x="918" y="30" on="1"/>
        <pt x="796" y="-20" on="0"/>
        <pt x="548" y="-20" on="0"/>
        <pt x="357" y="31" on="0"/>
      </contour>
      <contour>
        <pt x="490" y="836" on="0"/>
        <pt x="604" y="808" on="0"/>
        <pt x="723" y="808" on="0"/>
        <pt x="827" y="843" on="0"/>
        <pt x="869" y="875" on="1"/>
        <pt x="963" y="947" on="0"/>
        <pt x="963" y="1050" on="1"/>
        <pt x="963" y="1156" on="0"/>
        <pt x="872" y="1215" on="1"/>
        <pt x="790" y="1268" on="0"/>
        <pt x="654" y="1268" on="1"/>
        <pt x="466" y="1268" on="0"/>
        <pt x="389" y="1153" on="1"/>
        <pt x="363" y="1114" on="0"/>
        <pt x="363" y="994" on="0"/>
        <pt x="408" y="897" on="0"/>
      </contour>
      <contour>
        <pt x="351" y="515" on="1"/>
        <pt x="320" y="470" on="0"/>
        <pt x="320" y="341" on="0"/>
        <pt x="378" y="245" on="0"/>
        <pt x="426" y="212" on="1"/>
        <pt x="523" y="148" on="0"/>
        <pt x="672" y="148" on="1"/>
        <pt x="897" y="148" on="0"/>
        <pt x="978" y="285" on="1"/>
        <pt x="1005" y="332" on="0"/>
        <pt x="1005" y="461" on="0"/>
        <pt x="943" y="554" on="0"/>
        <pt x="893" y="584" on="1"/>
        <pt x="795" y="643" on="0"/>
        <pt x="654" y="643" on="1"/>
        <pt x="439" y="643" on="0"/>
      </contour>
    </TTGlyph>
    <TTGlyph name="emdash" xMin="107" yMin="515" xMax="1529" yMax="669">
      <contour>
        <pt x="107" y="669" on="1"/>
        <pt x="1529" y="669" on="1"/>
        <pt x="1529" y="515" on="1"/>
        <pt x="107" y="515" on="1"/>
      </contour>
    </TTGlyph>
    <TTGlyph name="endash" xMin="267" yMin="515" xMax="1289" yMax="669">
      <contour>
        <pt x="267" y="669" on="1"/>
        <pt x="1289" y="669" on="1"/>
        <pt x="1289" y="515" on="1"/>
        <pt x="267" y="515" on="1"/>
      </contour>
    </TTGlyph>
    <TTGlyph name="equal" xMin="207" yMin="275" xMax="1129" yMax="829">
      <contour>
        <pt x="207" y="829" on="1"/>
        <pt x="1129" y="829" on="1"/>
        <pt x="1129" y="675" on="1"/>
        <pt x="207" y="675" on="1"/>
      </contour>
      <contour>
        <pt x="207" y="429" on="1"/>
        <pt x="1129" y="429" on="1"/>
        <pt x="1129" y="275" on="1"/>
        <pt x="207" y="275" on="1"/>
      </contour>
    </TTGlyph>
    <TTGlyph name="eth" xMin="95" yMin="-20" xMax="1190" yMax="1561">
      <contour>
        <pt x="413" y="1561" on="1"/>
        <pt x="625" y="1522" on="0"/>
        <pt x="790" y="1420" on="1"/>
        <pt x="984" y="1559" on="1"/>
        <pt x="1075" y="1435" on="1"/>
        <pt x="917" y="1322" on="1"/>
        <pt x="1190" y="1064" on="0"/>
        <pt x="1190" y="621" on="1"/>
        <pt x="1190" y="332" on="0"/>
        <pt x="1039" y="158" on="1"/>
        <pt x="886" y="-20" on="0"/>
        <pt x="626" y="-20" on="1"/>
        <pt x="392" y="-20" on="0"/>
        <pt x="246" y="106" on="1"/>
        <pt x="95" y="237" on="0"/>
        <pt x="95" y="462" on="1"/>
        <pt x="95" y="684" on="0"/>
        <pt x="256" y="829" on="1"/>
        <pt x="413" y="970" on="0"/>
        <pt x="644" y="970" on="1"/>
        <pt x="835" y="970" on="0"/>
        <pt x="970" y="869" on="1"/>
        <pt x="913" y="1083" on="0"/>
        <pt x="764" y="1212" on="1"/>
        <pt x="548" y="1057" on="1"/>
        <pt x="457" y="1181" on="1"/>
        <pt x="628" y="1304" on="1"/>
        <pt x="509" y="1365" on="0"/>
        <pt x="348" y="1396" on="1"/>
      </contour>
      <contour>
        <pt x="1000" y="610" on="1"/>
        <pt x="999" y="654" on="1"/>
        <pt x="823" y="810" on="0"/>
        <pt x="626" y="810" on="1"/>
        <pt x="477" y="810" on="0"/>
        <pt x="380" y="717" on="1"/>
        <pt x="285" y="625" on="0"/>
        <pt x="285" y="474" on="1"/>
        <pt x="285" y="318" on="0"/>
        <pt x="385" y="228" on="1"/>
        <pt x="482" y="140" on="0"/>
        <pt x="644" y="140" on="1"/>
        <pt x="813" y="140" on="0"/>
        <pt x="908" y="268" on="1"/>
        <pt x="1000" y="393" on="0"/>
      </contour>
    </TTGlyph>
    <TTGlyph name="exclam" xMin="177" yMin="-13" xMax="425" yMax="1415">
      <contour>
        <pt x="199" y="1415" on="1"/>
        <pt x="404" y="1415" on="1"/>
        <pt x="374" y="410" on="1"/>
        <pt x="229" y="410" on="1"/>
      </contour>
      <contour>
        <pt x="245" y="-13" on="0"/>
        <pt x="177" y="55" on="0"/>
        <pt x="177" y="167" on="0"/>
        <pt x="245" y="234" on="0"/>
        <pt x="357" y="234" on="0"/>
        <pt x="425" y="167" on="0"/>
        <pt x="425" y="55" on="0"/>
        <pt x="357" y="-13" on="0"/>
      </contour>
    </TTGlyph>
    <TTGlyph name="exclamdown" xMin="163" yMin="-409" xMax="411" yMax="1019">
      <component glyphName="exclam" x="588" y="1006" scale="-0.999938964844" flags="0x1004"/>
    </TTGlyph>
    <TTGlyph name="f" xMin="19" yMin="0" xMax="877" yMax="1560">
      <contour>
        <pt x="832" y="1355" on="1"/>
        <pt x="738" y="1404" on="0"/>
        <pt x="556" y="1404" on="0"/>
        <pt x="465" y="1348" on="0"/>
        <pt x="440" y="1300" on="1"/>
        <pt x="395" y="1216" on="0"/>
        <pt x="395" y="1050" on="1"/>
        <pt x="395" y="1000" on="1"/>
        <pt x="781" y="1000" on="1"/>
        <pt x="781" y="846" on="1"/>
        <pt x="395" y="846" on="1"/>
        <pt x="395" y="0" on="1"/>
        <pt x="204" y="0" on="1"/>
        <pt x="204" y="846" on="1"/>
        <pt x="19" y="846" on="1"/>
        <pt x="19" y="1000" on="1"/>
        <pt x="204" y="1000" on="1"/>
        <pt x="204" y="1038" on="1"/>
        <pt x="204" y="1412" on="0"/>
        <pt x="447" y="1522" on="1"/>
        <pt x="531" y="1560" on="0"/>
        <pt x="619" y="1560" on="1"/>
        <pt x="764" y="1560" on="0"/>
        <pt x="877" y="1506" on="1"/>
      </contour>
    </TTGlyph>
    <TTGlyph name="five" xMin="113" yMin="-20" xMax="1134" yMax="1416">
      <contour>
        <pt x="166" y="255" on="1"/>
        <pt x="354" y="148" on="0"/>
        <pt x="569" y="148" on="1"/>
        <pt x="725" y="148" on="0"/>
        <pt x="826" y="218" on="1"/>
        <pt x="934" y="292" on="0"/>
        <pt x="934" y="427" on="1"/>
        <pt x="934" y="590" on="0"/>
        <pt x="734" y="650" on="1"/>
        <pt x="537" y="708" on="0"/>
        <pt x="191" y="651" on="1"/>
        <pt x="191" y="1416" on="1"/>
        <pt x="1046" y="1416" on="1"/>
        <pt x="1046" y="1248" on="1"/>
        <pt x="376" y="1248" on="1"/>
        <pt x="376" y="835" on="1"/>
        <pt x="688" y="877" on="0"/>
        <pt x="898" y="786" on="1"/>
        <pt x="1134" y="684" on="0"/>
        <pt x="1134" y="436" on="1"/>
        <pt x="1134" y="217" on="0"/>
        <pt x="946" y="92" on="1"/>
        <pt x="778" y="-20" on="0"/>
        <pt x="540" y="-20" on="1"/>
        <pt x="288" y="-20" on="0"/>
        <pt x="113" y="89" on="1"/>
      </contour>
    </TTGlyph>
    <TTGlyph name="four" xMin="77" yMin="0" xMax="1309" yMax="1416">
      <contour>
        <pt x="77" y="506" on="1"/>
        <pt x="844" y="1416" on="1"/>
        <pt x="1029" y="1416" on="1"/>
        <pt x="1029" y="508" on="1"/>
        <pt x="1309" y="508" on="1"/>
        <pt x="1309" y="340" on="1"/>
        <pt x="1029" y="340" on="1"/>
        <pt x="1029" y="0" on="1"/>
        <pt x="844" y="0" on="1"/>
        <pt x="844" y="340" on="1"/>
        <pt x="131" y="340" on="1"/>
      </contour>
      <contour>
        <pt x="844" y="508" on="1"/>
        <pt x="844" y="1191" on="1"/>
        <pt x="282" y="508" on="1"/>
      </contour>
    </TTGlyph>
    <TTGlyph name="g" xMin="137" yMin="-487" xMax="1212" yMax="1020">
      <contour>
        <pt x="371" y="413" on="1"/>
        <pt x="323" y="356" on="0"/>
        <pt x="323" y="257" on="0"/>
        <pt x="392" y="215" on="0"/>
        <pt x="505" y="189" on="0"/>
        <pt x="650" y="172" on="0"/>
        <pt x="800" y="152" on="0"/>
        <pt x="945" y="121" on="0"/>
        <pt x="1002" y="94" on="1"/>
        <pt x="1127" y="32" on="0"/>
        <pt x="1127" y="-84" on="1"/>
        <pt x="1127" y="-260" on="0"/>
        <pt x="970" y="-378" on="1"/>
        <pt x="822" y="-487" on="0"/>
        <pt x="627" y="-487" on="1"/>
        <pt x="443" y="-487" on="0"/>
        <pt x="313" y="-415" on="1"/>
        <pt x="162" y="-331" on="0"/>
        <pt x="162" y="-179" on="1"/>
        <pt x="162" y="-83" on="0"/>
        <pt x="236" y="12" on="1"/>
        <pt x="258" y="40" on="0"/>
        <pt x="282" y="62" on="1"/>
        <pt x="137" y="118" on="0"/>
        <pt x="137" y="241" on="1"/>
        <pt x="137" y="398" on="0"/>
        <pt x="269" y="515" on="1"/>
        <pt x="223" y="586" on="0"/>
        <pt x="223" y="755" on="0"/>
        <pt x="294" y="884" on="0"/>
        <pt x="353" y="928" on="1"/>
        <pt x="474" y="1020" on="0"/>
        <pt x="811" y="1020" on="0"/>
        <pt x="928" y="928" on="1"/>
        <pt x="994" y="991" on="0"/>
        <pt x="1134" y="1014" on="1"/>
        <pt x="1175" y="1020" on="0"/>
        <pt x="1212" y="1020" on="1"/>
        <pt x="1204" y="865" on="1"/>
        <pt x="1085" y="852" on="0"/>
        <pt x="1021" y="818" on="1"/>
        <pt x="1055" y="752" on="0"/>
        <pt x="1055" y="600" on="0"/>
        <pt x="984" y="472" on="0"/>
        <pt x="925" y="428" on="1"/>
        <pt x="804" y="338" on="0"/>
        <pt x="485" y="338" on="0"/>
      </contour>
      <contour>
        <pt x="419" y="764" on="1"/>
        <pt x="400" y="728" on="0"/>
        <pt x="400" y="632" on="0"/>
        <pt x="439" y="559" on="0"/>
        <pt x="473" y="534" on="1"/>
        <pt x="540" y="486" on="0"/>
        <pt x="645" y="486" on="1"/>
        <pt x="801" y="486" on="0"/>
        <pt x="859" y="592" on="1"/>
        <pt x="878" y="627" on="0"/>
        <pt x="878" y="723" on="0"/>
        <pt x="839" y="797" on="0"/>
        <pt x="805" y="822" on="1"/>
        <pt x="738" y="871" on="0"/>
        <pt x="633" y="871" on="1"/>
        <pt x="477" y="871" on="0"/>
      </contour>
      <contour>
        <pt x="421" y="26" on="1"/>
        <pt x="352" y="-50" on="0"/>
        <pt x="352" y="-155" on="1"/>
        <pt x="352" y="-240" on="0"/>
        <pt x="451" y="-288" on="1"/>
        <pt x="534" y="-327" on="0"/>
        <pt x="694" y="-327" on="0"/>
        <pt x="798" y="-306" on="0"/>
        <pt x="840" y="-283" on="1"/>
        <pt x="937" y="-231" on="0"/>
        <pt x="937" y="-137" on="1"/>
        <pt x="937" y="-48" on="0"/>
        <pt x="765" y="-18" on="1"/>
        <pt x="691" y="-5" on="0"/>
        <pt x="478" y="16" on="0"/>
      </contour>
    </TTGlyph>
    <TTGlyph name="germandbls" xMin="184" yMin="-485" xMax="1113" yMax="1560">
      <contour>
        <pt x="812" y="1355" on="1"/>
        <pt x="718" y="1404" on="0"/>
        <pt x="536" y="1404" on="0"/>
        <pt x="445" y="1348" on="0"/>
        <pt x="420" y="1300" on="1"/>
        <pt x="375" y="1216" on="0"/>
        <pt x="375" y="1050" on="1"/>
        <pt x="375" y="1000" on="1"/>
        <pt x="1093" y="1000" on="1"/>
        <pt x="1093" y="852" on="1"/>
        <pt x="746" y="423" on="1"/>
        <pt x="902" y="393" on="0"/>
        <pt x="1003" y="300" on="1"/>
        <pt x="1113" y="197" on="0"/>
        <pt x="1113" y="62" on="1"/>
        <pt x="1113" y="-159" on="0"/>
        <pt x="919" y="-312" on="1"/>
        <pt x="749" y="-445" on="0"/>
        <pt x="511" y="-485" on="1"/>
        <pt x="454" y="-342" on="1"/>
        <pt x="670" y="-287" on="0"/>
        <pt x="778" y="-211" on="1"/>
        <pt x="913" y="-116" on="0"/>
        <pt x="913" y="24" on="1"/>
        <pt x="913" y="154" on="0"/>
        <pt x="804" y="218" on="1"/>
        <pt x="709" y="275" on="0"/>
        <pt x="534" y="275" on="1"/>
        <pt x="534" y="423" on="1"/>
        <pt x="881" y="852" on="1"/>
        <pt x="375" y="852" on="1"/>
        <pt x="375" y="0" on="1"/>
        <pt x="184" y="0" on="1"/>
        <pt x="184" y="1038" on="1"/>
        <pt x="184" y="1412" on="0"/>
        <pt x="427" y="1522" on="1"/>
        <pt x="511" y="1560" on="0"/>
        <pt x="599" y="1560" on="1"/>
        <pt x="744" y="1560" on="0"/>
        <pt x="857" y="1506" on="1"/>
      </contour>
    </TTGlyph>
    <TTGlyph name="grave" xMin="60" yMin="1148" xMax="507" yMax="1525">
      <contour>
        <pt x="60" y="1408" on="1"/>
        <pt x="174" y="1525" on="1"/>
        <pt x="507" y="1239" on="1"/>
        <pt x="416" y="1148" on="1"/>
      </contour>
    </TTGlyph>
    <TTGlyph name="grave.cap" xMin="20" yMin="1542" xMax="589" yMax="1862">
      <contour>
        <pt x="20" y="1723" on="1"/>
        <pt x="104" y="1862" on="1"/>
        <pt x="589" y="1651" on="1"/>
        <pt x="523" y="1542" on="1"/>
      </contour>
    </TTGlyph>
    <TTGlyph name="greater" xMin="270" yMin="46" xMax="1197" yMax="1380">
      <component glyphName="less" x="1304" y="1415" scale="-0.999938964844" flags="0x1004"/>
    </TTGlyph>
    <TTGlyph name="guillemotleft" xMin="113" yMin="98" xMax="1130" yMax="944">
      <contour>
        <pt x="609" y="531" on="1"/>
        <pt x="1034" y="944" on="1"/>
        <pt x="1130" y="853" on="1"/>
        <pt x="829" y="516" on="1"/>
        <pt x="1125" y="198" on="1"/>
        <pt x="1032" y="98" on="1"/>
        <pt x="609" y="471" on="1"/>
      </contour>
      <contour>
        <pt x="113" y="531" on="1"/>
        <pt x="538" y="944" on="1"/>
        <pt x="634" y="853" on="1"/>
        <pt x="333" y="516" on="1"/>
        <pt x="629" y="198" on="1"/>
        <pt x="536" y="98" on="1"/>
        <pt x="113" y="471" on="1"/>
      </contour>
    </TTGlyph>
    <TTGlyph name="guillemotright" xMin="96" yMin="98" xMax="1113" yMax="944">
      <component glyphName="guillemotleft" x="1226" y="1042" scale="-0.999938964844" flags="0x1004"/>
    </TTGlyph>
    <TTGlyph name="guilsinglleft" xMin="107" yMin="98" xMax="635" yMax="944">
      <contour>
        <pt x="107" y="531" on="1"/>
        <pt x="532" y="944" on="1"/>
        <pt x="635" y="846" on="1"/>
        <pt x="337" y="518" on="1"/>
        <pt x="629" y="204" on="1"/>
        <pt x="530" y="98" on="1"/>
        <pt x="107" y="471" on="1"/>
      </contour>
    </TTGlyph>
    <TTGlyph name="guilsinglright" xMin="89" yMin="98" xMax="617" yMax="944">
      <component glyphName="guilsinglleft" x="724" y="1042" scale="-0.999938964844" flags="0x1004"/>
    </TTGlyph>
    <TTGlyph name="h" xMin="184" yMin="0" xMax="1174" yMax="1562">
      <contour>
        <pt x="374" y="913" on="1"/>
        <pt x="522" y="1020" on="0"/>
        <pt x="718" y="1020" on="1"/>
        <pt x="1174" y="1020" on="0"/>
        <pt x="1174" y="519" on="1"/>
        <pt x="1174" y="0" on="1"/>
        <pt x="985" y="0" on="1"/>
        <pt x="984" y="507" on="1"/>
        <pt x="984" y="680" on="0"/>
        <pt x="924" y="764" on="1"/>
        <pt x="857" y="860" on="0"/>
        <pt x="705" y="860" on="1"/>
        <pt x="542" y="860" on="0"/>
        <pt x="432" y="780" on="1"/>
        <pt x="396" y="755" on="0"/>
        <pt x="374" y="722" on="1"/>
        <pt x="374" y="0" on="1"/>
        <pt x="184" y="0" on="1"/>
        <pt x="184" y="1562" on="1"/>
        <pt x="374" y="1561" on="1"/>
      </contour>
    </TTGlyph>
    <TTGlyph name="hbar" xMin="5" yMin="0" xMax="1174" yMax="1562">
      <contour>
        <pt x="374" y="913" on="1"/>
        <pt x="522" y="1020" on="0"/>
        <pt x="718" y="1020" on="1"/>
        <pt x="1174" y="1020" on="0"/>
        <pt x="1174" y="519" on="1"/>
        <pt x="1174" y="0" on="1"/>
        <pt x="985" y="0" on="1"/>
        <pt x="984" y="507" on="1"/>
        <pt x="984" y="680" on="0"/>
        <pt x="924" y="764" on="1"/>
        <pt x="857" y="860" on="0"/>
        <pt x="705" y="860" on="1"/>
        <pt x="542" y="860" on="0"/>
        <pt x="432" y="780" on="1"/>
        <pt x="396" y="755" on="0"/>
        <pt x="374" y="722" on="1"/>
        <pt x="374" y="0" on="1"/>
        <pt x="184" y="0" on="1"/>
        <pt x="184" y="1205" on="1"/>
        <pt x="5" y="1205" on="1"/>
        <pt x="5" y="1359" on="1"/>
        <pt x="184" y="1359" on="1"/>
        <pt x="184" y="1562" on="1"/>
        <pt x="374" y="1561" on="1"/>
        <pt x="374" y="1359" on="1"/>
        <pt x="655" y="1359" on="1"/>
        <pt x="655" y="1205" on="1"/>
        <pt x="374" y="1205" on="1"/>
      </contour>
    </TTGlyph>
    <TTGlyph name="hyphen" xMin="207" yMin="515" xMax="929" yMax="669">
      <contour>
        <pt x="207" y="669" on="1"/>
        <pt x="929" y="669" on="1"/>
        <pt x="929" y="515" on="1"/>
        <pt x="207" y="515" on="1"/>
      </contour>
    </TTGlyph>
    <TTGlyph name="i" xMin="155" yMin="0" xMax="403" yMax="1534">
      <contour>
        <pt x="403" y="1355" on="0"/>
        <pt x="335" y="1287" on="0"/>
        <pt x="223" y="1287" on="0"/>
        <pt x="155" y="1355" on="0"/>
        <pt x="155" y="1467" on="0"/>
        <pt x="223" y="1534" on="0"/>
        <pt x="335" y="1534" on="0"/>
        <pt x="403" y="1467" on="0"/>
      </contour>
      <contour>
        <pt x="184" y="1000" on="1"/>
        <pt x="374" y="1000" on="1"/>
        <pt x="374" y="0" on="1"/>
        <pt x="184" y="0" on="1"/>
      </contour>
    </TTGlyph>
    <TTGlyph name="iacute" xMin="170" yMin="0" xMax="619" yMax="1521">
      <component glyphName="dotlessi" x="0" y="0" flags="0x1204"/>
      <component glyphName="acute" x="84" y="0" flags="0x1004"/>
    </TTGlyph>
    <TTGlyph name="icircumflex" xMin="-29" yMin="0" xMax="589" yMax="1526">
      <component glyphName="dotlessi" x="0" y="0" flags="0x1204"/>
      <component glyphName="circumflex" x="-18" y="0" flags="0x1004"/>
    </TTGlyph>
    <TTGlyph name="idieresis" xMin="-22" yMin="0" xMax="582" yMax="1434">
      <component glyphName="dotlessi" x="0" y="0" flags="0x1204"/>
      <component glyphName="dieresis" x="-19" y="0" flags="0x1004"/>
    </TTGlyph>
    <TTGlyph name="igrave" xMin="-73" yMin="0" xMax="374" yMax="1525">
      <component glyphName="dotlessi" x="0" y="0" flags="0x1204"/>
      <component glyphName="grave" x="-133" y="0" flags="0x1004"/>
    </TTGlyph>
    <TTGlyph name="ij" xMin="155" yMin="-485" xMax="947" yMax="1534">
      <component glyphName="i" x="0" y="0" flags="0x1004"/>
      <component glyphName="j" x="544" y="0" flags="0x1004"/>
    </TTGlyph>
    <TTGlyph name="itilde" xMin="-88" yMin="0" xMax="645" yMax="1454">
      <component glyphName="dotlessi" x="0" y="0" flags="0x1204"/>
      <component glyphName="tilde" x="-21" y="0" flags="0x1004"/>
    </TTGlyph>
    <TTGlyph name="j" xMin="55" yMin="-485" xMax="403" yMax="1534">
      <contour>
        <pt x="403" y="1355" on="0"/>
        <pt x="335" y="1287" on="0"/>
        <pt x="223" y="1287" on="0"/>
        <pt x="155" y="1355" on="0"/>
        <pt x="155" y="1467" on="0"/>
        <pt x="223" y="1534" on="0"/>
        <pt x="335" y="1534" on="0"/>
        <pt x="403" y="1467" on="0"/>
      </contour>
      <contour>
        <pt x="184" y="1000" on="1"/>
        <pt x="374" y="1000" on="1"/>
        <pt x="374" y="-65" on="1"/>
        <pt x="374" y="-307" on="0"/>
        <pt x="244" y="-417" on="1"/>
        <pt x="199" y="-455" on="0"/>
        <pt x="135" y="-485" on="1"/>
        <pt x="55" y="-356" on="1"/>
        <pt x="126" y="-313" on="0"/>
        <pt x="154" y="-257" on="1"/>
        <pt x="184" y="-198" on="0"/>
        <pt x="184" y="-85" on="1"/>
      </contour>
    </TTGlyph>
    <TTGlyph name="jcircumflex" xMin="-29" yMin="-485" xMax="589" yMax="1526">
      <component glyphName="dotlessj" x="0" y="0" flags="0x1204"/>
      <component glyphName="circumflex" x="-18" y="0" flags="0x1004"/>
    </TTGlyph>
    <TTGlyph name="k" xMin="184" yMin="-21" xMax="1067" yMax="1561">
      <contour>
        <pt x="184" y="1561" on="1"/>
        <pt x="374" y="1561" on="1"/>
        <pt x="374" y="560" on="1"/>
        <pt x="823" y="1000" on="1"/>
        <pt x="1045" y="1000" on="1"/>
        <pt x="575" y="540" on="1"/>
        <pt x="855" y="238" on="1"/>
        <pt x="944" y="144" on="0"/>
        <pt x="1067" y="135" on="1"/>
        <pt x="1038" y="0" on="1"/>
        <pt x="887" y="-21" on="0"/>
        <pt x="792" y="56" on="1"/>
        <pt x="763" y="80" on="0"/>
        <pt x="735" y="111" on="1"/>
        <pt x="374" y="501" on="1"/>
        <pt x="374" y="0" on="1"/>
        <pt x="184" y="0" on="1"/>
      </contour>
    </TTGlyph>
    <TTGlyph name="kcommaaccent" xMin="184" yMin="-486" xMax="1067" yMax="1561">
      <component glyphName="k" x="0" y="0" flags="0x1204"/>
      <component glyphName="commaaccent" x="245" y="0" flags="0x1004"/>
    </TTGlyph>
    <TTGlyph name="kgreenlandic" xMin="184" yMin="-21" xMax="1067" yMax="1000">
      <contour>
        <pt x="184" y="1000" on="1"/>
        <pt x="374" y="1000" on="1"/>
        <pt x="374" y="560" on="1"/>
        <pt x="823" y="1000" on="1"/>
        <pt x="1045" y="1000" on="1"/>
        <pt x="575" y="540" on="1"/>
        <pt x="855" y="238" on="1"/>
        <pt x="944" y="144" on="0"/>
        <pt x="1067" y="135" on="1"/>
        <pt x="1038" y="0" on="1"/>
        <pt x="887" y="-21" on="0"/>
        <pt x="792" y="56" on="1"/>
        <pt x="763" y="80" on="0"/>
        <pt x="735" y="111" on="1"/>
        <pt x="374" y="501" on="1"/>
        <pt x="374" y="0" on="1"/>
        <pt x="184" y="0" on="1"/>
      </contour>
    </TTGlyph>
    <TTGlyph name="l" xMin="184" yMin="-20" xMax="484" yMax="1561">
      <contour>
        <pt x="184" y="1561" on="1"/>
        <pt x="374" y="1561" on="1"/>
        <pt x="374" y="342" on="1"/>
        <pt x="374" y="240" on="0"/>
        <pt x="388" y="206" on="1"/>
        <pt x="416" y="141" on="0"/>
        <pt x="484" y="123" on="1"/>
        <pt x="456" y="0" on="1"/>
        <pt x="301" y="-20" on="0"/>
        <pt x="235" y="82" on="1"/>
        <pt x="184" y="162" on="0"/>
        <pt x="184" y="328" on="1"/>
      </contour>
    </TTGlyph>
    <TTGlyph name="ldot" xMin="184" yMin="-20" xMax="775" yMax="1561">
      <component glyphName="l" x="0" y="0" flags="0x1004"/>
      <component glyphName="periodcentered" x="383" y="216" scale="0.900024414062" flags="0x1004"/>
    </TTGlyph>
    <TTGlyph name="less" xMin="107" yMin="35" xMax="1034" yMax="1369">
      <contour>
        <pt x="107" y="743" on="1"/>
        <pt x="921" y="1369" on="1"/>
        <pt x="1034" y="1221" on="1"/>
        <pt x="313" y="668" on="1"/>
        <pt x="1033" y="192" on="1"/>
        <pt x="927" y="35" on="1"/>
        <pt x="107" y="571" on="1"/>
      </contour>
    </TTGlyph>
    <TTGlyph name="logicalnot" xMin="207" yMin="151" xMax="1128" yMax="723">
      <contour>
        <pt x="207" y="723" on="1"/>
        <pt x="1128" y="723" on="1"/>
        <pt x="1127" y="151" on="1"/>
        <pt x="942" y="151" on="1"/>
        <pt x="942" y="555" on="1"/>
        <pt x="207" y="555" on="1"/>
      </contour>
    </TTGlyph>
    <TTGlyph name="lslash" xMin="61" yMin="-20" xMax="684" yMax="1561">
      <contour>
        <pt x="254" y="610" on="1"/>
        <pt x="124" y="552" on="1"/>
        <pt x="61" y="693" on="1"/>
        <pt x="254" y="779" on="1"/>
        <pt x="254" y="1561" on="1"/>
        <pt x="444" y="1561" on="1"/>
        <pt x="444" y="863" on="1"/>
        <pt x="621" y="942" on="1"/>
        <pt x="684" y="801" on="1"/>
        <pt x="444" y="694" on="1"/>
        <pt x="444" y="342" on="1"/>
        <pt x="444" y="240" on="0"/>
        <pt x="458" y="206" on="1"/>
        <pt x="486" y="141" on="0"/>
        <pt x="554" y="123" on="1"/>
        <pt x="526" y="0" on="1"/>
        <pt x="371" y="-20" on="0"/>
        <pt x="305" y="82" on="1"/>
        <pt x="254" y="162" on="0"/>
        <pt x="254" y="328" on="1"/>
      </contour>
    </TTGlyph>
    <TTGlyph name="m" xMin="184" yMin="0" xMax="1739" yMax="1020">
      <contour>
        <pt x="1047" y="716" on="1"/>
        <pt x="1064" y="631" on="0"/>
        <pt x="1064" y="519" on="1"/>
        <pt x="1064" y="0" on="1"/>
        <pt x="874" y="0" on="1"/>
        <pt x="874" y="507" on="1"/>
        <pt x="874" y="686" on="0"/>
        <pt x="812" y="807" on="0"/>
        <pt x="721" y="860" on="0"/>
        <pt x="605" y="860" on="0"/>
        <pt x="526" y="840" on="0"/>
        <pt x="490" y="822" on="1"/>
        <pt x="417" y="783" on="0"/>
        <pt x="374" y="718" on="1"/>
        <pt x="374" y="0" on="1"/>
        <pt x="184" y="0" on="1"/>
        <pt x="184" y="1000" on="1"/>
        <pt x="329" y="1000" on="1"/>
        <pt x="357" y="905" on="1"/>
        <pt x="487" y="1020" on="0"/>
        <pt x="658" y="1020" on="1"/>
        <pt x="897" y="1020" on="0"/>
        <pt x="993" y="866" on="1"/>
        <pt x="1081" y="968" on="0"/>
        <pt x="1225" y="1006" on="1"/>
        <pt x="1276" y="1020" on="0"/>
        <pt x="1451" y="1020" on="0"/>
        <pt x="1607" y="952" on="0"/>
        <pt x="1654" y="888" on="1"/>
        <pt x="1739" y="769" on="0"/>
        <pt x="1739" y="519" on="1"/>
        <pt x="1739" y="0" on="1"/>
        <pt x="1549" y="0" on="1"/>
        <pt x="1549" y="507" on="1"/>
        <pt x="1549" y="686" on="0"/>
        <pt x="1487" y="807" on="0"/>
        <pt x="1396" y="860" on="0"/>
        <pt x="1280" y="860" on="0"/>
        <pt x="1200" y="839" on="0"/>
        <pt x="1164" y="820" on="1"/>
        <pt x="1089" y="782" on="0"/>
      </contour>
    </TTGlyph>
    <TTGlyph name="macron" xMin="-23" yMin="1260" xMax="621" yMax="1400">
      <contour>
        <pt x="-23" y="1400" on="1"/>
        <pt x="621" y="1400" on="1"/>
        <pt x="621" y="1260" on="1"/>
        <pt x="-23" y="1260" on="1"/>
      </contour>
    </TTGlyph>
    <TTGlyph name="mu" xMin="163" yMin="-335" xMax="1133" yMax="1000">
      <contour>
        <pt x="958" y="98" on="1"/>
        <pt x="813" y="-20" on="0"/>
        <pt x="619" y="-20" on="1"/>
        <pt x="434" y="-20" on="0"/>
        <pt x="326" y="50" on="1"/>
        <pt x="354" y="-64" on="0"/>
        <pt x="354" y="-199" on="1"/>
        <pt x="354" y="-335" on="1"/>
        <pt x="163" y="-335" on="1"/>
        <pt x="163" y="1000" on="1"/>
        <pt x="353" y="1000" on="1"/>
        <pt x="353" y="493" on="1"/>
        <pt x="353" y="317" on="0"/>
        <pt x="411" y="234" on="1"/>
        <pt x="477" y="140" on="0"/>
        <pt x="632" y="140" on="1"/>
        <pt x="783" y="140" on="0"/>
        <pt x="890" y="225" on="1"/>
        <pt x="922" y="251" on="0"/>
        <pt x="943" y="282" on="1"/>
        <pt x="943" y="1000" on="1"/>
        <pt x="1133" y="1000" on="1"/>
        <pt x="1133" y="0" on="1"/>
        <pt x="988" y="0" on="1"/>
      </contour>
    </TTGlyph>
    <TTGlyph name="multiply" xMin="236" yMin="98" xMax="1099" yMax="961">
      <contour>
        <pt x="543" y="523" on="1"/>
        <pt x="236" y="831" on="1"/>
        <pt x="367" y="961" on="1"/>
        <pt x="674" y="654" on="1"/>
        <pt x="981" y="961" on="1"/>
        <pt x="1099" y="843" on="1"/>
        <pt x="792" y="536" on="1"/>
        <pt x="1099" y="229" on="1"/>
        <pt x="969" y="98" on="1"/>
        <pt x="661" y="405" on="1"/>
        <pt x="354" y="98" on="1"/>
        <pt x="236" y="216" on="1"/>
      </contour>
    </TTGlyph>
    <TTGlyph name="n" xMin="184" yMin="0" xMax="1174" yMax="1020">
      <contour>
        <pt x="358" y="901" on="1"/>
        <pt x="515" y="1020" on="0"/>
        <pt x="718" y="1020" on="1"/>
        <pt x="1174" y="1020" on="0"/>
        <pt x="1174" y="519" on="1"/>
        <pt x="1174" y="0" on="1"/>
        <pt x="984" y="0" on="1"/>
        <pt x="984" y="507" on="1"/>
        <pt x="984" y="680" on="0"/>
        <pt x="924" y="764" on="1"/>
        <pt x="857" y="860" on="0"/>
        <pt x="705" y="860" on="1"/>
        <pt x="542" y="860" on="0"/>
        <pt x="432" y="780" on="1"/>
        <pt x="396" y="755" on="0"/>
        <pt x="374" y="722" on="1"/>
        <pt x="374" y="0" on="1"/>
        <pt x="184" y="0" on="1"/>
        <pt x="184" y="1000" on="1"/>
        <pt x="329" y="1000" on="1"/>
      </contour>
    </TTGlyph>
    <TTGlyph name="nacute" xMin="184" yMin="0" xMax="1174" yMax="1521">
      <component glyphName="n" x="0" y="0" flags="0x1204"/>
      <component glyphName="acute" x="434" y="0" flags="0x1004"/>
    </TTGlyph>
    <TTGlyph name="nine" xMin="146" yMin="-27" xMax="1300" yMax="1436">
      <component glyphName="six" x="1438" y="1416" scale="-0.999938964844" flags="0x1004"/>
    </TTGlyph>
    <TTGlyph name="ntilde" xMin="184" yMin="0" xMax="1174" yMax="1454">
      <component glyphName="n" x="0" y="0" flags="0x1204"/>
      <component glyphName="tilde" x="367" y="0" flags="0x1004"/>
    </TTGlyph>
    <TTGlyph name="numbersign" xMin="171" yMin="-19" xMax="1418" yMax="1435">
      <contour>
        <pt x="389" y="406" on="1"/>
        <pt x="171" y="406" on="1"/>
        <pt x="171" y="560" on="1"/>
        <pt x="417" y="560" on="1"/>
        <pt x="482" y="906" on="1"/>
        <pt x="171" y="906" on="1"/>
        <pt x="171" y="1060" on="1"/>
        <pt x="510" y="1060" on="1"/>
        <pt x="580" y="1435" on="1"/>
        <pt x="733" y="1396" on="1"/>
        <pt x="670" y="1060" on="1"/>
        <pt x="1038" y="1060" on="1"/>
        <pt x="1107" y="1435" on="1"/>
        <pt x="1260" y="1397" on="1"/>
        <pt x="1198" y="1060" on="1"/>
        <pt x="1418" y="1060" on="1"/>
        <pt x="1418" y="906" on="1"/>
        <pt x="1170" y="906" on="1"/>
        <pt x="1106" y="560" on="1"/>
        <pt x="1418" y="560" on="1"/>
        <pt x="1418" y="406" on="1"/>
        <pt x="1078" y="406" on="1"/>
        <pt x="1000" y="-19" on="1"/>
        <pt x="847" y="20" on="1"/>
        <pt x="918" y="406" on="1"/>
        <pt x="549" y="406" on="1"/>
        <pt x="470" y="-19" on="1"/>
        <pt x="317" y="19" on="1"/>
      </contour>
      <contour>
        <pt x="946" y="560" on="1"/>
        <pt x="1010" y="906" on="1"/>
        <pt x="642" y="906" on="1"/>
        <pt x="577" y="560" on="1"/>
      </contour>
    </TTGlyph>
    <TTGlyph name="o" xMin="95" yMin="-20" xMax="1195" yMax="1020">
      <contour>
        <pt x="95" y="491" on="1"/>
        <pt x="95" y="605" on="0"/>
        <pt x="185" y="799" on="0"/>
        <pt x="262" y="870" on="1"/>
        <pt x="425" y="1020" on="0"/>
        <pt x="654" y="1020" on="1"/>
        <pt x="885" y="1020" on="0"/>
        <pt x="1039" y="877" on="1"/>
        <pt x="1195" y="732" on="0"/>
        <pt x="1195" y="504" on="1"/>
        <pt x="1195" y="281" on="0"/>
        <pt x="1028" y="129" on="1"/>
        <pt x="866" y="-20" on="0"/>
        <pt x="636" y="-20" on="1"/>
        <pt x="402" y="-20" on="0"/>
        <pt x="250" y="122" on="1"/>
        <pt x="95" y="266" on="0"/>
      </contour>
      <contour>
        <pt x="285" y="502" on="1"/>
        <pt x="285" y="424" on="0"/>
        <pt x="341" y="291" on="0"/>
        <pt x="390" y="242" on="1"/>
        <pt x="494" y="140" on="0"/>
        <pt x="654" y="140" on="1"/>
        <pt x="803" y="140" on="0"/>
        <pt x="904" y="242" on="1"/>
        <pt x="1005" y="342" on="0"/>
        <pt x="1005" y="493" on="1"/>
        <pt x="1005" y="651" on="0"/>
        <pt x="900" y="756" on="1"/>
        <pt x="796" y="860" on="0"/>
        <pt x="636" y="860" on="1"/>
        <pt x="487" y="860" on="0"/>
        <pt x="386" y="757" on="1"/>
        <pt x="285" y="655" on="0"/>
      </contour>
    </TTGlyph>
    <TTGlyph name="oacute" xMin="95" yMin="-20" xMax="1195" yMax="1521">
      <component glyphName="o" x="0" y="0" flags="0x1204"/>
      <component glyphName="acute" x="406" y="0" flags="0x1004"/>
    </TTGlyph>
    <TTGlyph name="ocircumflex" xMin="95" yMin="-20" xMax="1195" yMax="1526">
      <component glyphName="o" x="0" y="0" flags="0x1204"/>
      <component glyphName="circumflex" x="347" y="0" flags="0x1004"/>
    </TTGlyph>
    <TTGlyph name="odieresis" xMin="95" yMin="-20" xMax="1195" yMax="1434">
      <component glyphName="o" x="0" y="0" flags="0x1204"/>
      <component glyphName="dieresis" x="346" y="0" flags="0x1004"/>
    </TTGlyph>
    <TTGlyph name="oe" xMin="95" yMin="-20" xMax="1921" yMax="1020">
      <contour>
        <pt x="1499" y="-20" on="1"/>
        <pt x="1195" y="-20" on="0"/>
        <pt x="1078" y="180" on="1"/>
        <pt x="960" y="37" on="0"/>
        <pt x="765" y="-6" on="1"/>
        <pt x="702" y="-20" on="0"/>
        <pt x="521" y="-20" on="0"/>
        <pt x="323" y="54" on="0"/>
        <pt x="250" y="122" on="1"/>
        <pt x="95" y="266" on="0"/>
        <pt x="95" y="492" on="1"/>
        <pt x="95" y="716" on="0"/>
        <pt x="262" y="870" on="1"/>
        <pt x="425" y="1020" on="0"/>
        <pt x="654" y="1020" on="1"/>
        <pt x="866" y="1020" on="0"/>
        <pt x="1016" y="896" on="1"/>
        <pt x="1064" y="857" on="0"/>
        <pt x="1100" y="807" on="1"/>
        <pt x="1169" y="905" on="0"/>
        <pt x="1384" y="1020" on="0"/>
        <pt x="1605" y="1020" on="0"/>
        <pt x="1753" y="966" on="0"/>
        <pt x="1806" y="912" on="1"/>
        <pt x="1921" y="798" on="0"/>
        <pt x="1921" y="591" on="1"/>
        <pt x="1921" y="520" on="0"/>
        <pt x="1901" y="400" on="1"/>
        <pt x="1205" y="400" on="1"/>
        <pt x="1227" y="279" on="0"/>
        <pt x="1379" y="140" on="0"/>
        <pt x="1518" y="140" on="1"/>
        <pt x="1704" y="140" on="0"/>
        <pt x="1859" y="208" on="1"/>
        <pt x="1891" y="65" on="1"/>
        <pt x="1788" y="5" on="0"/>
        <pt x="1598" y="-14" on="1"/>
        <pt x="1544" y="-20" on="0"/>
      </contour>
      <contour>
        <pt x="1740" y="547" on="1"/>
        <pt x="1744" y="601" on="1"/>
        <pt x="1744" y="784" on="0"/>
        <pt x="1607" y="844" on="1"/>
        <pt x="1561" y="864" on="0"/>
        <pt x="1433" y="864" on="0"/>
        <pt x="1326" y="814" on="0"/>
        <pt x="1287" y="771" on="1"/>
        <pt x="1207" y="683" on="0"/>
        <pt x="1197" y="547" on="1"/>
      </contour>
      <contour>
        <pt x="285" y="502" on="1"/>
        <pt x="285" y="424" on="0"/>
        <pt x="341" y="291" on="0"/>
        <pt x="390" y="242" on="1"/>
        <pt x="494" y="140" on="0"/>
        <pt x="654" y="140" on="1"/>
        <pt x="803" y="140" on="0"/>
        <pt x="904" y="242" on="1"/>
        <pt x="1005" y="342" on="0"/>
        <pt x="1005" y="493" on="1"/>
        <pt x="1005" y="651" on="0"/>
        <pt x="900" y="756" on="1"/>
        <pt x="796" y="860" on="0"/>
        <pt x="636" y="860" on="1"/>
        <pt x="487" y="860" on="0"/>
        <pt x="386" y="757" on="1"/>
        <pt x="285" y="655" on="0"/>
      </contour>
    </TTGlyph>
    <TTGlyph name="ograve" xMin="95" yMin="-20" xMax="1195" yMax="1525">
      <component glyphName="o" x="0" y="0" flags="0x1204"/>
      <component glyphName="grave" x="301" y="0" flags="0x1004"/>
    </TTGlyph>
    <TTGlyph name="one" xMin="55" yMin="0" xMax="669" yMax="1416">
      <contour>
        <pt x="484" y="1237" on="1"/>
        <pt x="109" y="1025" on="1"/>
        <pt x="55" y="1186" on="1"/>
        <pt x="484" y="1416" on="1"/>
        <pt x="669" y="1416" on="1"/>
        <pt x="669" y="0" on="1"/>
        <pt x="484" y="0" on="1"/>
      </contour>
    </TTGlyph>
    <TTGlyph name="onehalf" xMin="28" yMin="-267" xMax="1788" yMax="1762">
      <contour>
        <pt x="1645" y="1761" on="1"/>
        <pt x="1766" y="1661" on="1"/>
        <pt x="149" y="-267" on="1"/>
        <pt x="28" y="-167" on="1"/>
      </contour>
      <contour>
        <pt x="326" y="1593" on="1"/>
        <pt x="113" y="1472" on="1"/>
        <pt x="61" y="1613" on="1"/>
        <pt x="338" y="1762" on="1"/>
        <pt x="503" y="1762" on="1"/>
        <pt x="503" y="866" on="1"/>
        <pt x="326" y="866" on="1"/>
      </contour>
      <contour>
        <pt x="1136" y="574" on="1"/>
        <pt x="1287" y="647" on="0"/>
        <pt x="1435" y="647" on="1"/>
        <pt x="1669" y="647" on="0"/>
        <pt x="1748" y="500" on="1"/>
        <pt x="1775" y="449" on="0"/>
        <pt x="1775" y="328" on="0"/>
        <pt x="1743" y="237" on="0"/>
        <pt x="1714" y="194" on="1"/>
        <pt x="1665" y="121" on="0"/>
        <pt x="1557" y="31" on="1"/>
        <pt x="1384" y="-114" on="1"/>
        <pt x="1788" y="-114" on="1"/>
        <pt x="1788" y="-266" on="1"/>
        <pt x="1159" y="-266" on="1"/>
        <pt x="1159" y="-119" on="1"/>
        <pt x="1375" y="64" on="1"/>
        <pt x="1488" y="161" on="0"/>
        <pt x="1527" y="212" on="1"/>
        <pt x="1600" y="306" on="0"/>
        <pt x="1600" y="372" on="1"/>
        <pt x="1600" y="437" on="0"/>
        <pt x="1543" y="472" on="1"/>
        <pt x="1493" y="503" on="0"/>
        <pt x="1296" y="503" on="0"/>
        <pt x="1179" y="442" on="1"/>
      </contour>
    </TTGlyph>
    <TTGlyph name="onequarter" xMin="28" yMin="-267" xMax="1772" yMax="1762">
      <contour>
        <pt x="1645" y="1761" on="1"/>
        <pt x="1766" y="1661" on="1"/>
        <pt x="149" y="-267" on="1"/>
        <pt x="28" y="-167" on="1"/>
      </contour>
      <contour>
        <pt x="1418" y="629" on="1"/>
        <pt x="1595" y="629" on="1"/>
        <pt x="1595" y="88" on="1"/>
        <pt x="1772" y="88" on="1"/>
        <pt x="1772" y="-63" on="1"/>
        <pt x="1595" y="-63" on="1"/>
        <pt x="1595" y="-266" on="1"/>
        <pt x="1418" y="-266" on="1"/>
        <pt x="1418" y="-63" on="1"/>
        <pt x="979" y="-63" on="1"/>
        <pt x="946" y="41" on="1"/>
      </contour>
      <contour>
        <pt x="1418" y="88" on="1"/>
        <pt x="1418" y="424" on="1"/>
        <pt x="1156" y="88" on="1"/>
      </contour>
      <contour>
        <pt x="326" y="1593" on="1"/>
        <pt x="113" y="1472" on="1"/>
        <pt x="61" y="1613" on="1"/>
        <pt x="338" y="1762" on="1"/>
        <pt x="503" y="1762" on="1"/>
        <pt x="503" y="866" on="1"/>
        <pt x="326" y="866" on="1"/>
      </contour>
    </TTGlyph>
    <TTGlyph name="onesuperior" xMin="61" yMin="866" xMax="503" yMax="1762">
      <contour>
        <pt x="326" y="1593" on="1"/>
        <pt x="113" y="1472" on="1"/>
        <pt x="61" y="1613" on="1"/>
        <pt x="338" y="1762" on="1"/>
        <pt x="503" y="1762" on="1"/>
        <pt x="503" y="866" on="1"/>
        <pt x="326" y="866" on="1"/>
      </contour>
    </TTGlyph>
    <TTGlyph name="ordfeminine" xMin="75" yMin="792" xMax="841" yMax="1566">
      <contour>
        <pt x="620" y="909" on="1"/>
        <pt x="486" y="796" on="0"/>
        <pt x="344" y="796" on="1"/>
        <pt x="233" y="796" on="0"/>
        <pt x="157" y="854" on="1"/>
        <pt x="75" y="918" on="0"/>
        <pt x="75" y="1098" on="0"/>
        <pt x="161" y="1208" on="0"/>
        <pt x="232" y="1242" on="1"/>
        <pt x="367" y="1308" on="0"/>
        <pt x="591" y="1312" on="1"/>
        <pt x="585" y="1387" on="0"/>
        <pt x="540" y="1414" on="1"/>
        <pt x="500" y="1437" on="0"/>
        <pt x="310" y="1437" on="0"/>
        <pt x="213" y="1398" on="1"/>
        <pt x="173" y="1514" on="1"/>
        <pt x="285" y="1566" on="0"/>
        <pt x="423" y="1566" on="1"/>
        <pt x="656" y="1566" on="0"/>
        <pt x="731" y="1421" on="1"/>
        <pt x="757" y="1371" on="0"/>
        <pt x="757" y="1302" on="1"/>
        <pt x="757" y="1067" on="1"/>
        <pt x="757" y="997" on="0"/>
        <pt x="769" y="971" on="1"/>
        <pt x="789" y="928" on="0"/>
        <pt x="841" y="913" on="1"/>
        <pt x="817" y="810" on="1"/>
        <pt x="675" y="792" on="0"/>
      </contour>
      <contour>
        <pt x="356" y="926" on="1"/>
        <pt x="496" y="926" on="0"/>
        <pt x="592" y="1033" on="1"/>
        <pt x="592" y="1193" on="1"/>
        <pt x="418" y="1184" on="0"/>
        <pt x="294" y="1137" on="0"/>
        <pt x="239" y="1076" on="0"/>
        <pt x="239" y="976" on="0"/>
        <pt x="304" y="926" on="0"/>
      </contour>
    </TTGlyph>
    <TTGlyph name="ordmasculine" xMin="69" yMin="794" xMax="869" yMax="1566">
      <contour>
        <pt x="462" y="794" on="1"/>
        <pt x="291" y="794" on="0"/>
        <pt x="182" y="900" on="1"/>
        <pt x="69" y="1008" on="0"/>
        <pt x="69" y="1174" on="1"/>
        <pt x="69" y="1340" on="0"/>
        <pt x="188" y="1454" on="1"/>
        <pt x="307" y="1566" on="0"/>
        <pt x="476" y="1566" on="1"/>
        <pt x="646" y="1566" on="0"/>
        <pt x="756" y="1460" on="1"/>
        <pt x="869" y="1351" on="0"/>
        <pt x="869" y="1183" on="1"/>
        <pt x="869" y="1017" on="0"/>
        <pt x="750" y="905" on="1"/>
        <pt x="631" y="794" on="0"/>
      </contour>
      <contour>
        <pt x="474" y="930" on="1"/>
        <pt x="527" y="930" on="0"/>
        <pt x="610" y="968" on="0"/>
        <pt x="640" y="1001" on="1"/>
        <pt x="703" y="1070" on="0"/>
        <pt x="703" y="1174" on="1"/>
        <pt x="703" y="1284" on="0"/>
        <pt x="636" y="1356" on="1"/>
        <pt x="569" y="1430" on="0"/>
        <pt x="462" y="1430" on="1"/>
        <pt x="362" y="1430" on="0"/>
        <pt x="298" y="1357" on="1"/>
        <pt x="235" y="1286" on="0"/>
        <pt x="235" y="1183" on="1"/>
        <pt x="235" y="1074" on="0"/>
        <pt x="302" y="1002" on="1"/>
        <pt x="368" y="930" on="0"/>
      </contour>
    </TTGlyph>
    <TTGlyph name="oslash" xMin="95" yMin="-132" xMax="1195" yMax="1117">
      <contour>
        <pt x="625" y="-20" on="1"/>
        <pt x="501" y="-20" on="0"/>
        <pt x="387" y="31" on="1"/>
        <pt x="267" y="-132" on="1"/>
        <pt x="147" y="-45" on="1"/>
        <pt x="262" y="111" on="1"/>
        <pt x="95" y="257" on="0"/>
        <pt x="95" y="492" on="1"/>
        <pt x="95" y="716" on="0"/>
        <pt x="262" y="870" on="1"/>
        <pt x="425" y="1020" on="0"/>
        <pt x="654" y="1020" on="1"/>
        <pt x="780" y="1020" on="0"/>
        <pt x="893" y="972" on="1"/>
        <pt x="1000" y="1117" on="1"/>
        <pt x="1120" y="1030" on="1"/>
        <pt x="1020" y="894" on="1"/>
        <pt x="1195" y="745" on="0"/>
        <pt x="1195" y="504" on="1"/>
        <pt x="1195" y="281" on="0"/>
        <pt x="1028" y="129" on="1"/>
        <pt x="866" y="-20" on="0"/>
      </contour>
      <contour>
        <pt x="789" y="830" on="1"/>
        <pt x="714" y="860" on="0"/>
        <pt x="561" y="860" on="0"/>
        <pt x="433" y="805" on="0"/>
        <pt x="386" y="757" on="1"/>
        <pt x="285" y="655" on="0"/>
        <pt x="285" y="504" on="1"/>
        <pt x="285" y="360" on="0"/>
        <pt x="372" y="261" on="1"/>
      </contour>
      <contour>
        <pt x="491" y="173" on="1"/>
        <pt x="567" y="140" on="0"/>
        <pt x="729" y="140" on="0"/>
        <pt x="857" y="194" on="0"/>
        <pt x="904" y="242" on="1"/>
        <pt x="1005" y="342" on="0"/>
        <pt x="1005" y="493" on="1"/>
        <pt x="1005" y="643" on="0"/>
        <pt x="910" y="744" on="1"/>
      </contour>
    </TTGlyph>
    <TTGlyph name="otilde" xMin="95" yMin="-20" xMax="1195" yMax="1454">
      <component glyphName="o" x="0" y="0" flags="0x1204"/>
      <component glyphName="tilde" x="345" y="0" flags="0x1004"/>
    </TTGlyph>
    <TTGlyph name="p" xMin="184" yMin="-467" xMax="1174" yMax="1020">
      <contour>
        <pt x="602" y="-20" on="1"/>
        <pt x="480" y="-20" on="0"/>
        <pt x="374" y="2" on="1"/>
        <pt x="374" y="-467" on="1"/>
        <pt x="184" y="-467" on="1"/>
        <pt x="184" y="1000" on="1"/>
        <pt x="329" y="1000" on="1"/>
        <pt x="357" y="904" on="1"/>
        <pt x="499" y="1020" on="0"/>
        <pt x="698" y="1020" on="1"/>
        <pt x="914" y="1020" on="0"/>
        <pt x="1045" y="884" on="1"/>
        <pt x="1174" y="749" on="0"/>
        <pt x="1174" y="530" on="1"/>
        <pt x="1174" y="285" on="0"/>
        <pt x="1010" y="131" on="1"/>
        <pt x="850" y="-20" on="0"/>
      </contour>
      <contour>
        <pt x="374" y="173" on="1"/>
        <pt x="515" y="140" on="0"/>
        <pt x="705" y="140" on="0"/>
        <pt x="841" y="193" on="0"/>
        <pt x="888" y="242" on="1"/>
        <pt x="984" y="342" on="0"/>
        <pt x="984" y="518" on="1"/>
        <pt x="984" y="666" on="0"/>
        <pt x="906" y="760" on="1"/>
        <pt x="823" y="860" on="0"/>
        <pt x="685" y="860" on="1"/>
        <pt x="527" y="860" on="0"/>
        <pt x="426" y="782" on="1"/>
        <pt x="394" y="756" on="0"/>
        <pt x="374" y="723" on="1"/>
      </contour>
    </TTGlyph>
    <TTGlyph name="paragraph" xMin="127" yMin="-104" xMax="1062" yMax="1415">
      <contour>
        <pt x="567" y="704" on="1"/>
        <pt x="377" y="704" on="0"/>
        <pt x="257" y="792" on="1"/>
        <pt x="127" y="887" on="0"/>
        <pt x="127" y="1060" on="1"/>
        <pt x="127" y="1229" on="0"/>
        <pt x="268" y="1328" on="1"/>
        <pt x="392" y="1415" on="0"/>
        <pt x="588" y="1415" on="1"/>
        <pt x="1062" y="1415" on="1"/>
        <pt x="1062" y="-104" on="1"/>
        <pt x="915" y="-104" on="1"/>
        <pt x="915" y="1285" on="1"/>
        <pt x="718" y="1285" on="1"/>
        <pt x="718" y="-104" on="1"/>
        <pt x="567" y="-104" on="1"/>
      </contour>
    </TTGlyph>
    <TTGlyph name="parenleft" xMin="137" yMin="-307" xMax="679" yMax="1590">
      <contour>
        <pt x="556" y="-307" on="1"/>
        <pt x="137" y="61" on="0"/>
        <pt x="137" y="633" on="1"/>
        <pt x="137" y="1220" on="0"/>
        <pt x="569" y="1590" on="1"/>
        <pt x="668" y="1485" on="1"/>
        <pt x="403" y="1208" on="0"/>
        <pt x="342" y="893" on="1"/>
        <pt x="321" y="784" on="0"/>
        <pt x="321" y="518" on="0"/>
        <pt x="375" y="270" on="0"/>
        <pt x="423" y="164" on="1"/>
        <pt x="510" y="-29" on="0"/>
        <pt x="679" y="-207" on="1"/>
      </contour>
    </TTGlyph>
    <TTGlyph name="parenright" xMin="123" yMin="-307" xMax="665" yMax="1590">
      <component glyphName="parenleft" x="802" y="1283" scale="-0.999938964844" flags="0x1004"/>
    </TTGlyph>
    <TTGlyph name="percent" xMin="69" yMin="-20" xMax="1399" yMax="1439">
      <contour>
        <pt x="1246" y="1439" on="1"/>
        <pt x="1367" y="1339" on="1"/>
        <pt x="232" y="-17" on="1"/>
        <pt x="111" y="83" on="1"/>
      </contour>
      <contour>
        <pt x="368" y="856" on="1"/>
        <pt x="240" y="856" on="0"/>
        <pt x="156" y="936" on="1"/>
        <pt x="69" y="1019" on="0"/>
        <pt x="69" y="1143" on="1"/>
        <pt x="69" y="1267" on="0"/>
        <pt x="156" y="1352" on="1"/>
        <pt x="242" y="1436" on="0"/>
        <pt x="370" y="1436" on="1"/>
        <pt x="497" y="1436" on="0"/>
        <pt x="582" y="1354" on="1"/>
        <pt x="669" y="1272" on="0"/>
        <pt x="669" y="1147" on="1"/>
        <pt x="669" y="1022" on="0"/>
        <pt x="582" y="938" on="1"/>
        <pt x="495" y="856" on="0"/>
      </contour>
      <contour>
        <pt x="445" y="977" on="0"/>
        <pt x="532" y="1068" on="0"/>
        <pt x="532" y="1143" on="1"/>
        <pt x="532" y="1261" on="0"/>
        <pt x="436" y="1302" on="1"/>
        <pt x="405" y="1315" on="0"/>
        <pt x="368" y="1315" on="1"/>
        <pt x="293" y="1315" on="0"/>
        <pt x="206" y="1222" on="0"/>
        <pt x="206" y="1109" on="0"/>
        <pt x="229" y="1047" on="0"/>
        <pt x="250" y="1024" on="1"/>
        <pt x="296" y="977" on="0"/>
      </contour>
      <contour>
        <pt x="799" y="267" on="1"/>
        <pt x="799" y="391" on="0"/>
        <pt x="886" y="476" on="1"/>
        <pt x="972" y="560" on="0"/>
        <pt x="1100" y="560" on="1"/>
        <pt x="1227" y="560" on="0"/>
        <pt x="1312" y="478" on="1"/>
        <pt x="1399" y="396" on="0"/>
        <pt x="1399" y="271" on="1"/>
        <pt x="1399" y="146" on="0"/>
        <pt x="1312" y="62" on="1"/>
        <pt x="1225" y="-20" on="0"/>
        <pt x="1098" y="-20" on="1"/>
        <pt x="970" y="-20" on="0"/>
        <pt x="886" y="60" on="1"/>
        <pt x="799" y="143" on="0"/>
      </contour>
      <contour>
        <pt x="1023" y="439" on="0"/>
        <pt x="936" y="346" on="0"/>
        <pt x="936" y="233" on="0"/>
        <pt x="959" y="171" on="0"/>
        <pt x="980" y="148" on="1"/>
        <pt x="1026" y="101" on="0"/>
        <pt x="1175" y="101" on="0"/>
        <pt x="1262" y="192" on="0"/>
        <pt x="1262" y="267" on="1"/>
        <pt x="1262" y="385" on="0"/>
        <pt x="1166" y="426" on="1"/>
        <pt x="1135" y="439" on="0"/>
        <pt x="1098" y="439" on="1"/>
      </contour>
    </TTGlyph>
    <TTGlyph name="period" xMin="158" yMin="-13" xMax="406" yMax="234">
      <contour>
        <pt x="226" y="-13" on="0"/>
        <pt x="158" y="55" on="0"/>
        <pt x="158" y="167" on="0"/>
        <pt x="226" y="234" on="0"/>
        <pt x="338" y="234" on="0"/>
        <pt x="406" y="167" on="0"/>
        <pt x="406" y="55" on="0"/>
        <pt x="338" y="-13" on="0"/>
      </contour>
    </TTGlyph>
    <TTGlyph name="periodcentered" xMin="126" yMin="396" xMax="436" yMax="705">
      <contour>
        <pt x="436" y="481" on="0"/>
        <pt x="351" y="396" on="0"/>
        <pt x="211" y="396" on="0"/>
        <pt x="126" y="481" on="0"/>
        <pt x="126" y="621" on="0"/>
        <pt x="211" y="705" on="0"/>
        <pt x="351" y="705" on="0"/>
        <pt x="436" y="621" on="0"/>
      </contour>
    </TTGlyph>
    <TTGlyph name="plus" xMin="207" yMin="60" xMax="1129" yMax="1000">
      <contour>
        <pt x="207" y="614" on="1"/>
        <pt x="575" y="614" on="1"/>
        <pt x="575" y="1000" on="1"/>
        <pt x="760" y="1000" on="1"/>
        <pt x="760" y="614" on="1"/>
        <pt x="1129" y="614" on="1"/>
        <pt x="1129" y="446" on="1"/>
        <pt x="760" y="446" on="1"/>
        <pt x="760" y="60" on="1"/>
        <pt x="575" y="60" on="1"/>
        <pt x="575" y="446" on="1"/>
        <pt x="207" y="446" on="1"/>
      </contour>
    </TTGlyph>
    <TTGlyph name="plusminus" xMin="207" yMin="60" xMax="1129" yMax="1350">
      <contour>
        <pt x="575" y="796" on="1"/>
        <pt x="207" y="796" on="1"/>
        <pt x="207" y="964" on="1"/>
        <pt x="575" y="964" on="1"/>
        <pt x="575" y="1350" on="1"/>
        <pt x="760" y="1350" on="1"/>
        <pt x="760" y="964" on="1"/>
        <pt x="1129" y="964" on="1"/>
        <pt x="1129" y="796" on="1"/>
        <pt x="760" y="796" on="1"/>
        <pt x="760" y="410" on="1"/>
        <pt x="575" y="410" on="1"/>
      </contour>
      <contour>
        <pt x="207" y="228" on="1"/>
        <pt x="1129" y="228" on="1"/>
        <pt x="1129" y="60" on="1"/>
        <pt x="207" y="60" on="1"/>
      </contour>
    </TTGlyph>
    <TTGlyph name="q" xMin="95" yMin="-468" xMax="1085" yMax="1019">
      <contour>
        <pt x="895" y="80" on="1"/>
        <pt x="760" y="-21" on="0"/>
        <pt x="571" y="-21" on="1"/>
        <pt x="356" y="-21" on="0"/>
        <pt x="224" y="120" on="1"/>
        <pt x="95" y="259" on="0"/>
        <pt x="95" y="479" on="1"/>
        <pt x="95" y="722" on="0"/>
        <pt x="260" y="872" on="1"/>
        <pt x="422" y="1019" on="0"/>
        <pt x="915" y="1019" on="0"/>
        <pt x="1085" y="942" on="1"/>
        <pt x="1085" y="-468" on="1"/>
        <pt x="895" y="-468" on="1"/>
      </contour>
      <contour>
        <pt x="895" y="807" on="1"/>
        <pt x="796" y="859" on="0"/>
        <pt x="569" y="859" on="0"/>
        <pt x="431" y="809" on="0"/>
        <pt x="384" y="762" on="1"/>
        <pt x="285" y="665" on="0"/>
        <pt x="285" y="491" on="1"/>
        <pt x="285" y="343" on="0"/>
        <pt x="363" y="244" on="1"/>
        <pt x="446" y="139" on="0"/>
        <pt x="584" y="139" on="1"/>
        <pt x="731" y="139" on="0"/>
        <pt x="838" y="217" on="1"/>
        <pt x="873" y="243" on="0"/>
        <pt x="895" y="277" on="1"/>
      </contour>
    </TTGlyph>
    <TTGlyph name="question" xMin="82" yMin="-13" xMax="959" yMax="1436">
      <contour>
        <pt x="82" y="1342" on="1"/>
        <pt x="292" y="1436" on="0"/>
        <pt x="525" y="1436" on="1"/>
        <pt x="813" y="1436" on="0"/>
        <pt x="920" y="1292" on="1"/>
        <pt x="959" y="1239" on="0"/>
        <pt x="959" y="1097" on="0"/>
        <pt x="912" y="994" on="0"/>
        <pt x="836" y="908" on="0"/>
        <pt x="788" y="870" on="1"/>
        <pt x="694" y="796" on="1"/>
        <pt x="571" y="700" on="0"/>
        <pt x="534" y="645" on="1"/>
        <pt x="461" y="534" on="0"/>
        <pt x="488" y="410" on="1"/>
        <pt x="326" y="378" on="1"/>
        <pt x="287" y="597" on="0"/>
        <pt x="429" y="756" on="1"/>
        <pt x="497" y="832" on="0"/>
        <pt x="648" y="951" on="0"/>
        <pt x="684" y="986" on="1"/>
        <pt x="763" y="1063" on="0"/>
        <pt x="763" y="1131" on="1"/>
        <pt x="763" y="1270" on="0"/>
        <pt x="507" y="1270" on="1"/>
        <pt x="388" y="1270" on="0"/>
        <pt x="208" y="1218" on="1"/>
        <pt x="159" y="1204" on="0"/>
        <pt x="126" y="1190" on="1"/>
      </contour>
      <contour>
        <pt x="385" y="-13" on="0"/>
        <pt x="317" y="55" on="0"/>
        <pt x="317" y="167" on="0"/>
        <pt x="385" y="234" on="0"/>
        <pt x="497" y="234" on="0"/>
        <pt x="565" y="167" on="0"/>
        <pt x="565" y="55" on="0"/>
        <pt x="497" y="-13" on="0"/>
      </contour>
    </TTGlyph>
    <TTGlyph name="questiondown" xMin="68" yMin="-429" xMax="945" yMax="1020">
      <component glyphName="question" x="1027" y="1007" scale="-0.999938964844" flags="0x1004"/>
    </TTGlyph>
    <TTGlyph name="quotedbl" xMin="165" yMin="940" xMax="716" yMax="1417">
      <contour>
        <pt x="522" y="1417" on="1"/>
        <pt x="716" y="1417" on="1"/>
        <pt x="686" y="940" on="1"/>
        <pt x="552" y="940" on="1"/>
      </contour>
      <contour>
        <pt x="165" y="1417" on="1"/>
        <pt x="359" y="1417" on="1"/>
        <pt x="329" y="940" on="1"/>
        <pt x="195" y="940" on="1"/>
      </contour>
    </TTGlyph>
    <TTGlyph name="quotedblbase" xMin="112" yMin="-279" xMax="761" yMax="234">
      <contour>
        <pt x="565" y="32" on="1"/>
        <pt x="513" y="66" on="0"/>
        <pt x="513" y="122" on="1"/>
        <pt x="513" y="199" on="0"/>
        <pt x="590" y="226" on="1"/>
        <pt x="612" y="234" on="0"/>
        <pt x="664" y="234" on="0"/>
        <pt x="710" y="214" on="0"/>
        <pt x="726" y="197" on="1"/>
        <pt x="761" y="161" on="0"/>
        <pt x="761" y="75" on="0"/>
        <pt x="740" y="0" on="0"/>
        <pt x="706" y="-76" on="0"/>
        <pt x="663" y="-150" on="0"/>
        <pt x="640" y="-182" on="1"/>
        <pt x="590" y="-250" on="0"/>
        <pt x="557" y="-279" on="1"/>
        <pt x="466" y="-228" on="1"/>
        <pt x="519" y="-155" on="0"/>
        <pt x="552" y="-34" on="1"/>
        <pt x="563" y="3" on="0"/>
      </contour>
      <contour>
        <pt x="211" y="32" on="1"/>
        <pt x="159" y="66" on="0"/>
        <pt x="159" y="122" on="1"/>
        <pt x="159" y="199" on="0"/>
        <pt x="236" y="226" on="1"/>
        <pt x="258" y="234" on="0"/>
        <pt x="310" y="234" on="0"/>
        <pt x="356" y="214" on="0"/>
        <pt x="372" y="197" on="1"/>
        <pt x="407" y="161" on="0"/>
        <pt x="407" y="75" on="0"/>
        <pt x="386" y="0" on="0"/>
        <pt x="352" y="-76" on="0"/>
        <pt x="309" y="-150" on="0"/>
        <pt x="286" y="-182" on="1"/>
        <pt x="236" y="-250" on="0"/>
        <pt x="203" y="-279" on="1"/>
        <pt x="112" y="-228" on="1"/>
        <pt x="165" y="-155" on="0"/>
        <pt x="198" y="-34" on="1"/>
        <pt x="209" y="3" on="0"/>
      </contour>
    </TTGlyph>
    <TTGlyph name="quotedblleft" xMin="120" yMin="923" xMax="769" yMax="1436">
      <contour>
        <pt x="670" y="1125" on="1"/>
        <pt x="722" y="1091" on="0"/>
        <pt x="722" y="1035" on="1"/>
        <pt x="722" y="958" on="0"/>
        <pt x="646" y="931" on="1"/>
        <pt x="623" y="923" on="0"/>
        <pt x="571" y="923" on="0"/>
        <pt x="525" y="943" on="0"/>
        <pt x="508" y="960" on="1"/>
        <pt x="474" y="996" on="0"/>
        <pt x="474" y="1083" on="0"/>
        <pt x="495" y="1157" on="0"/>
        <pt x="529" y="1233" on="0"/>
        <pt x="572" y="1306" on="0"/>
        <pt x="595" y="1338" on="1"/>
        <pt x="644" y="1406" on="0"/>
        <pt x="678" y="1436" on="1"/>
        <pt x="769" y="1385" on="1"/>
        <pt x="718" y="1320" on="0"/>
        <pt x="682" y="1192" on="1"/>
        <pt x="672" y="1154" on="0"/>
      </contour>
      <contour>
        <pt x="316" y="1125" on="1"/>
        <pt x="368" y="1091" on="0"/>
        <pt x="368" y="1035" on="1"/>
        <pt x="368" y="958" on="0"/>
        <pt x="292" y="931" on="1"/>
        <pt x="269" y="923" on="0"/>
        <pt x="217" y="923" on="0"/>
        <pt x="171" y="943" on="0"/>
        <pt x="154" y="960" on="1"/>
        <pt x="120" y="996" on="0"/>
        <pt x="120" y="1083" on="0"/>
        <pt x="141" y="1157" on="0"/>
        <pt x="175" y="1233" on="0"/>
        <pt x="218" y="1306" on="0"/>
        <pt x="241" y="1338" on="1"/>
        <pt x="290" y="1406" on="0"/>
        <pt x="324" y="1436" on="1"/>
        <pt x="415" y="1385" on="1"/>
        <pt x="365" y="1320" on="0"/>
        <pt x="328" y="1192" on="1"/>
        <pt x="318" y="1154" on="0"/>
      </contour>
    </TTGlyph>
    <TTGlyph name="quotedblright" xMin="112" yMin="923" xMax="761" yMax="1436">
      <contour>
        <pt x="565" y="1234" on="1"/>
        <pt x="513" y="1268" on="0"/>
        <pt x="513" y="1324" on="1"/>
        <pt x="513" y="1401" on="0"/>
        <pt x="590" y="1428" on="1"/>
        <pt x="612" y="1436" on="0"/>
        <pt x="664" y="1436" on="0"/>
        <pt x="710" y="1416" on="0"/>
        <pt x="726" y="1399" on="1"/>
        <pt x="761" y="1363" on="0"/>
        <pt x="761" y="1276" on="0"/>
        <pt x="740" y="1202" on="0"/>
        <pt x="706" y="1126" on="0"/>
        <pt x="663" y="1053" on="0"/>
        <pt x="640" y="1021" on="1"/>
        <pt x="591" y="953" on="0"/>
        <pt x="557" y="923" on="1"/>
        <pt x="466" y="974" on="1"/>
        <pt x="519" y="1047" on="0"/>
        <pt x="552" y="1168" on="1"/>
        <pt x="563" y="1205" on="0"/>
      </contour>
      <contour>
        <pt x="211" y="1234" on="1"/>
        <pt x="159" y="1268" on="0"/>
        <pt x="159" y="1324" on="1"/>
        <pt x="159" y="1401" on="0"/>
        <pt x="236" y="1428" on="1"/>
        <pt x="258" y="1436" on="0"/>
        <pt x="310" y="1436" on="0"/>
        <pt x="356" y="1416" on="0"/>
        <pt x="372" y="1399" on="1"/>
        <pt x="407" y="1363" on="0"/>
        <pt x="407" y="1276" on="0"/>
        <pt x="386" y="1202" on="0"/>
        <pt x="352" y="1126" on="0"/>
        <pt x="309" y="1053" on="0"/>
        <pt x="286" y="1021" on="1"/>
        <pt x="237" y="953" on="0"/>
        <pt x="203" y="923" on="1"/>
        <pt x="112" y="974" on="1"/>
        <pt x="165" y="1047" on="0"/>
        <pt x="198" y="1168" on="1"/>
        <pt x="209" y="1205" on="0"/>
      </contour>
    </TTGlyph>
    <TTGlyph name="quoteleft" xMin="120" yMin="1048" xMax="415" yMax="1561">
      <contour>
        <pt x="316" y="1250" on="1"/>
        <pt x="368" y="1216" on="0"/>
        <pt x="368" y="1160" on="1"/>
        <pt x="368" y="1083" on="0"/>
        <pt x="292" y="1056" on="1"/>
        <pt x="269" y="1048" on="0"/>
        <pt x="217" y="1048" on="0"/>
        <pt x="171" y="1068" on="0"/>
        <pt x="154" y="1085" on="1"/>
        <pt x="120" y="1121" on="0"/>
        <pt x="120" y="1207" on="0"/>
        <pt x="141" y="1282" on="0"/>
        <pt x="175" y="1358" on="0"/>
        <pt x="218" y="1432" on="0"/>
        <pt x="241" y="1464" on="1"/>
        <pt x="291" y="1532" on="0"/>
        <pt x="324" y="1561" on="1"/>
        <pt x="415" y="1510" on="1"/>
        <pt x="365" y="1445" on="0"/>
        <pt x="328" y="1316" on="1"/>
        <pt x="318" y="1279" on="0"/>
      </contour>
    </TTGlyph>
    <TTGlyph name="quoteright" xMin="112" yMin="1048" xMax="407" yMax="1561">
      <contour>
        <pt x="211" y="1359" on="1"/>
        <pt x="159" y="1393" on="0"/>
        <pt x="159" y="1449" on="1"/>
        <pt x="159" y="1526" on="0"/>
        <pt x="236" y="1553" on="1"/>
        <pt x="258" y="1561" on="0"/>
        <pt x="310" y="1561" on="0"/>
        <pt x="356" y="1541" on="0"/>
        <pt x="372" y="1524" on="1"/>
        <pt x="407" y="1488" on="0"/>
        <pt x="407" y="1401" on="0"/>
        <pt x="386" y="1327" on="0"/>
        <pt x="352" y="1251" on="0"/>
        <pt x="309" y="1177" on="0"/>
        <pt x="286" y="1146" on="1"/>
        <pt x="236" y="1077" on="0"/>
        <pt x="203" y="1048" on="1"/>
        <pt x="112" y="1099" on="1"/>
        <pt x="165" y="1172" on="0"/>
        <pt x="198" y="1292" on="1"/>
        <pt x="209" y="1330" on="0"/>
      </contour>
    </TTGlyph>
    <TTGlyph name="quotesinglbase" xMin="112" yMin="-279" xMax="407" yMax="234">
      <contour>
        <pt x="211" y="32" on="1"/>
        <pt x="159" y="66" on="0"/>
        <pt x="159" y="122" on="1"/>
        <pt x="159" y="199" on="0"/>
        <pt x="236" y="226" on="1"/>
        <pt x="258" y="234" on="0"/>
        <pt x="310" y="234" on="0"/>
        <pt x="356" y="214" on="0"/>
        <pt x="372" y="197" on="1"/>
        <pt x="407" y="161" on="0"/>
        <pt x="407" y="75" on="0"/>
        <pt x="386" y="0" on="0"/>
        <pt x="352" y="-76" on="0"/>
        <pt x="309" y="-150" on="0"/>
        <pt x="286" y="-182" on="1"/>
        <pt x="236" y="-250" on="0"/>
        <pt x="203" y="-279" on="1"/>
        <pt x="112" y="-228" on="1"/>
        <pt x="165" y="-155" on="0"/>
        <pt x="198" y="-34" on="1"/>
        <pt x="209" y="3" on="0"/>
      </contour>
    </TTGlyph>
    <TTGlyph name="quotesingle" xMin="165" yMin="939" xMax="359" yMax="1416">
      <contour>
        <pt x="165" y="1416" on="1"/>
        <pt x="359" y="1416" on="1"/>
        <pt x="329" y="939" on="1"/>
        <pt x="195" y="939" on="1"/>
      </contour>
    </TTGlyph>
    <TTGlyph name="r" xMin="184" yMin="0" xMax="801" yMax="1020">
      <contour>
        <pt x="758" y="791" on="1"/>
        <pt x="697" y="827" on="0"/>
        <pt x="570" y="827" on="0"/>
        <pt x="487" y="763" on="0"/>
        <pt x="456" y="714" on="1"/>
        <pt x="395" y="620" on="0"/>
        <pt x="374" y="494" on="1"/>
        <pt x="374" y="0" on="1"/>
        <pt x="184" y="0" on="1"/>
        <pt x="184" y="1000" on="1"/>
        <pt x="341" y="1000" on="1"/>
        <pt x="373" y="817" on="1"/>
        <pt x="450" y="958" on="0"/>
        <pt x="570" y="1004" on="1"/>
        <pt x="613" y="1020" on="0"/>
        <pt x="684" y="1020" on="0"/>
        <pt x="718" y="1017" on="0"/>
        <pt x="734" y="1014" on="1"/>
        <pt x="766" y="1006" on="0"/>
        <pt x="801" y="990" on="1"/>
      </contour>
    </TTGlyph>
    <TTGlyph name="rcaron" xMin="116" yMin="0" xMax="801" yMax="1526">
      <component glyphName="r" x="0" y="0" flags="0x1204"/>
      <component glyphName="caron" x="127" y="0" flags="0x1004"/>
    </TTGlyph>
    <TTGlyph name="rcommaaccent" xMin="146" yMin="-486" xMax="801" yMax="1020">
      <component glyphName="r" x="0" y="0" flags="0x1204"/>
      <component glyphName="commaaccent" x="-23" y="0" flags="0x1004"/>
    </TTGlyph>
    <TTGlyph name="registered" xMin="97" yMin="715" xMax="1202" yMax="1753">
      <contour>
        <pt x="646" y="715" on="1"/>
        <pt x="531" y="715" on="0"/>
        <pt x="333" y="790" on="0"/>
        <pt x="258" y="858" on="1"/>
        <pt x="97" y="1004" on="0"/>
        <pt x="97" y="1223" on="1"/>
        <pt x="97" y="1453" on="0"/>
        <pt x="260" y="1604" on="1"/>
        <pt x="420" y="1753" on="0"/>
        <pt x="656" y="1753" on="1"/>
        <pt x="883" y="1753" on="0"/>
        <pt x="1040" y="1610" on="1"/>
        <pt x="1202" y="1464" on="0"/>
        <pt x="1202" y="1244" on="1"/>
        <pt x="1202" y="1013" on="0"/>
        <pt x="1039" y="863" on="1"/>
        <pt x="878" y="715" on="0"/>
      </contour>
      <contour>
        <pt x="654" y="821" on="1"/>
        <pt x="742" y="821" on="0"/>
        <pt x="894" y="882" on="0"/>
        <pt x="951" y="936" on="1"/>
        <pt x="1074" y="1053" on="0"/>
        <pt x="1074" y="1223" on="1"/>
        <pt x="1074" y="1400" on="0"/>
        <pt x="948" y="1524" on="1"/>
        <pt x="822" y="1648" on="0"/>
        <pt x="643" y="1648" on="1"/>
        <pt x="470" y="1648" on="0"/>
        <pt x="348" y="1532" on="1"/>
        <pt x="225" y="1415" on="0"/>
        <pt x="225" y="1244" on="1"/>
        <pt x="225" y="1067" on="0"/>
        <pt x="352" y="944" on="1"/>
        <pt x="478" y="821" on="0"/>
      </contour>
      <contour>
        <pt x="694" y="1119" on="1"/>
        <pt x="666" y="1117" on="0"/>
        <pt x="640" y="1117" on="1"/>
        <pt x="520" y="1117" on="1"/>
        <pt x="520" y="971" on="1"/>
        <pt x="419" y="971" on="1"/>
        <pt x="419" y="1505" on="1"/>
        <pt x="651" y="1505" on="1"/>
        <pt x="839" y="1505" on="0"/>
        <pt x="898" y="1408" on="1"/>
        <pt x="920" y="1372" on="0"/>
        <pt x="920" y="1318" on="1"/>
        <pt x="920" y="1190" on="0"/>
        <pt x="796" y="1141" on="1"/>
        <pt x="886" y="971" on="1"/>
        <pt x="773" y="971" on="1"/>
      </contour>
      <contour>
        <pt x="649" y="1213" on="1"/>
        <pt x="770" y="1213" on="0"/>
        <pt x="802" y="1260" on="1"/>
        <pt x="816" y="1279" on="0"/>
        <pt x="816" y="1312" on="1"/>
        <pt x="816" y="1396" on="0"/>
        <pt x="704" y="1407" on="1"/>
        <pt x="672" y="1410" on="0"/>
        <pt x="639" y="1410" on="1"/>
        <pt x="520" y="1410" on="1"/>
        <pt x="520" y="1213" on="1"/>
      </contour>
    </TTGlyph>
    <TTGlyph name="ring" xMin="242" yMin="1143" xMax="697" yMax="1561">
      <contour>
        <pt x="594" y="1174" on="0"/>
        <pt x="508" y="1143" on="0"/>
        <pt x="413" y="1143" on="0"/>
        <pt x="332" y="1170" on="0"/>
        <pt x="303" y="1196" on="1"/>
        <pt x="242" y="1251" on="0"/>
        <pt x="242" y="1346" on="1"/>
        <pt x="242" y="1437" on="0"/>
        <pt x="312" y="1500" on="1"/>
        <pt x="381" y="1561" on="0"/>
        <pt x="476" y="1561" on="1"/>
        <pt x="629" y="1561" on="0"/>
        <pt x="680" y="1442" on="1"/>
        <pt x="697" y="1404" on="0"/>
        <pt x="697" y="1308" on="0"/>
        <pt x="658" y="1231" on="0"/>
      </contour>
      <contour>
        <pt x="358" y="1302" on="0"/>
        <pt x="423" y="1244" on="0"/>
        <pt x="521" y="1244" on="0"/>
        <pt x="581" y="1301" on="0"/>
        <pt x="581" y="1399" on="0"/>
        <pt x="515" y="1460" on="0"/>
        <pt x="417" y="1460" on="0"/>
        <pt x="358" y="1400" on="0"/>
      </contour>
    </TTGlyph>
    <TTGlyph name="ring.cap" xMin="238" yMin="1514" xMax="701" yMax="1920">
      <contour>
        <pt x="597" y="1542" on="0"/>
        <pt x="510" y="1514" on="0"/>
        <pt x="413" y="1514" on="0"/>
        <pt x="331" y="1539" on="0"/>
        <pt x="301" y="1564" on="1"/>
        <pt x="238" y="1615" on="0"/>
        <pt x="238" y="1711" on="1"/>
        <pt x="238" y="1804" on="0"/>
        <pt x="309" y="1864" on="1"/>
        <pt x="377" y="1920" on="0"/>
        <pt x="476" y="1920" on="1"/>
        <pt x="632" y="1920" on="0"/>
        <pt x="684" y="1806" on="1"/>
        <pt x="701" y="1769" on="0"/>
        <pt x="701" y="1672" on="0"/>
        <pt x="662" y="1596" on="0"/>
      </contour>
      <contour>
        <pt x="356" y="1668" on="0"/>
        <pt x="424" y="1617" on="0"/>
        <pt x="521" y="1617" on="0"/>
        <pt x="583" y="1666" on="0"/>
        <pt x="583" y="1763" on="0"/>
        <pt x="514" y="1817" on="0"/>
        <pt x="417" y="1817" on="0"/>
        <pt x="356" y="1765" on="0"/>
      </contour>
    </TTGlyph>
    <TTGlyph name="s" xMin="73" yMin="-20" xMax="903" yMax="1020">
      <contour>
        <pt x="144" y="245" on="1"/>
        <pt x="262" y="164" on="0"/>
        <pt x="414" y="139" on="1"/>
        <pt x="462" y="131" on="0"/>
        <pt x="546" y="131" on="0"/>
        <pt x="620" y="147" on="0"/>
        <pt x="650" y="165" on="1"/>
        <pt x="714" y="204" on="0"/>
        <pt x="714" y="277" on="1"/>
        <pt x="714" y="341" on="0"/>
        <pt x="620" y="384" on="1"/>
        <pt x="578" y="403" on="0"/>
        <pt x="524" y="420" on="1"/>
        <pt x="414" y="456" on="1"/>
        <pt x="273" y="504" on="0"/>
        <pt x="166" y="588" on="0"/>
        <pt x="115" y="678" on="0"/>
        <pt x="115" y="811" on="0"/>
        <pt x="178" y="916" on="0"/>
        <pt x="231" y="951" on="1"/>
        <pt x="335" y="1020" on="0"/>
        <pt x="472" y="1020" on="1"/>
        <pt x="718" y="1020" on="0"/>
        <pt x="868" y="913" on="1"/>
        <pt x="794" y="774" on="1"/>
        <pt x="640" y="869" on="0"/>
        <pt x="479" y="869" on="1"/>
        <pt x="366" y="869" on="0"/>
        <pt x="320" y="804" on="1"/>
        <pt x="305" y="782" on="0"/>
        <pt x="305" y="716" on="0"/>
        <pt x="356" y="668" on="0"/>
        <pt x="440" y="631" on="0"/>
        <pt x="494" y="614" on="1"/>
        <pt x="604" y="580" on="1"/>
        <pt x="744" y="533" on="0"/>
        <pt x="798" y="490" on="1"/>
        <pt x="903" y="406" on="0"/>
        <pt x="903" y="290" on="1"/>
        <pt x="903" y="139" on="0"/>
        <pt x="776" y="55" on="1"/>
        <pt x="663" y="-20" on="0"/>
        <pt x="489" y="-20" on="1"/>
        <pt x="307" y="-20" on="0"/>
        <pt x="160" y="52" on="1"/>
        <pt x="111" y="75" on="0"/>
        <pt x="73" y="107" on="1"/>
      </contour>
    </TTGlyph>
    <TTGlyph name="section" xMin="137" yMin="-20" xMax="977" yMax="1436">
      <contour>
        <pt x="853" y="457" on="1"/>
        <pt x="913" y="393" on="0"/>
        <pt x="913" y="228" on="0"/>
        <pt x="852" y="111" on="0"/>
        <pt x="801" y="69" on="1"/>
        <pt x="693" y="-20" on="0"/>
        <pt x="548" y="-20" on="1"/>
        <pt x="361" y="-20" on="0"/>
        <pt x="196" y="116" on="1"/>
        <pt x="289" y="264" on="1"/>
        <pt x="424" y="146" on="0"/>
        <pt x="566" y="146" on="1"/>
        <pt x="666" y="146" on="0"/>
        <pt x="704" y="216" on="1"/>
        <pt x="717" y="239" on="0"/>
        <pt x="717" y="308" on="0"/>
        <pt x="667" y="362" on="0"/>
        <pt x="586" y="401" on="0"/>
        <pt x="534" y="417" on="1"/>
        <pt x="427" y="450" on="1"/>
        <pt x="291" y="493" on="0"/>
        <pt x="239" y="534" on="1"/>
        <pt x="137" y="615" on="0"/>
        <pt x="137" y="730" on="1"/>
        <pt x="137" y="799" on="0"/>
        <pt x="205" y="921" on="0"/>
        <pt x="260" y="959" on="1"/>
        <pt x="201" y="1022" on="0"/>
        <pt x="201" y="1187" on="0"/>
        <pt x="262" y="1305" on="0"/>
        <pt x="313" y="1347" on="1"/>
        <pt x="421" y="1436" on="0"/>
        <pt x="566" y="1436" on="1"/>
        <pt x="753" y="1436" on="0"/>
        <pt x="918" y="1300" on="1"/>
        <pt x="825" y="1152" on="1"/>
        <pt x="690" y="1270" on="0"/>
        <pt x="548" y="1270" on="1"/>
        <pt x="448" y="1270" on="0"/>
        <pt x="410" y="1200" on="1"/>
        <pt x="397" y="1177" on="0"/>
        <pt x="397" y="1108" on="0"/>
        <pt x="447" y="1054" on="0"/>
        <pt x="528" y="1015" on="0"/>
        <pt x="580" y="999" on="1"/>
        <pt x="687" y="966" on="1"/>
        <pt x="823" y="923" on="0"/>
        <pt x="875" y="882" on="1"/>
        <pt x="977" y="801" on="0"/>
        <pt x="977" y="686" on="1"/>
        <pt x="977" y="616" on="0"/>
        <pt x="909" y="495" on="0"/>
      </contour>
      <contour>
        <pt x="383" y="877" on="1"/>
        <pt x="333" y="836" on="0"/>
        <pt x="333" y="760" on="1"/>
        <pt x="333" y="677" on="0"/>
        <pt x="468" y="628" on="1"/>
        <pt x="508" y="614" on="0"/>
        <pt x="552" y="600" on="1"/>
        <pt x="642" y="572" on="1"/>
        <pt x="688" y="558" on="0"/>
        <pt x="731" y="539" on="1"/>
        <pt x="781" y="580" on="0"/>
        <pt x="781" y="656" on="1"/>
        <pt x="781" y="740" on="0"/>
        <pt x="646" y="787" on="1"/>
        <pt x="472" y="844" on="1"/>
        <pt x="425" y="858" on="0"/>
      </contour>
    </TTGlyph>
    <TTGlyph name="semicolon" xMin="112" yMin="-279" xMax="407" yMax="814">
      <contour>
        <pt x="406" y="635" on="0"/>
        <pt x="338" y="567" on="0"/>
        <pt x="226" y="567" on="0"/>
        <pt x="158" y="635" on="0"/>
        <pt x="158" y="747" on="0"/>
        <pt x="226" y="814" on="0"/>
        <pt x="338" y="814" on="0"/>
        <pt x="406" y="747" on="0"/>
      </contour>
      <contour>
        <pt x="211" y="32" on="1"/>
        <pt x="159" y="66" on="0"/>
        <pt x="159" y="122" on="1"/>
        <pt x="159" y="199" on="0"/>
        <pt x="236" y="226" on="1"/>
        <pt x="258" y="234" on="0"/>
        <pt x="310" y="234" on="0"/>
        <pt x="356" y="214" on="0"/>
        <pt x="372" y="197" on="1"/>
        <pt x="407" y="161" on="0"/>
        <pt x="407" y="75" on="0"/>
        <pt x="386" y="0" on="0"/>
        <pt x="352" y="-76" on="0"/>
        <pt x="309" y="-150" on="0"/>
        <pt x="286" y="-182" on="1"/>
        <pt x="236" y="-250" on="0"/>
        <pt x="203" y="-279" on="1"/>
        <pt x="112" y="-228" on="1"/>
        <pt x="165" y="-155" on="0"/>
        <pt x="198" y="-34" on="1"/>
        <pt x="209" y="3" on="0"/>
      </contour>
    </TTGlyph>
    <TTGlyph name="seven" xMin="61" yMin="0" xMax="1058" yMax="1416">
      <contour>
        <pt x="856" y="1258" on="1"/>
        <pt x="699" y="1248" on="0"/>
        <pt x="570" y="1248" on="1"/>
        <pt x="61" y="1248" on="1"/>
        <pt x="61" y="1416" on="1"/>
        <pt x="1058" y="1416" on="1"/>
        <pt x="1058" y="1248" on="1"/>
        <pt x="885" y="1065" on="0"/>
        <pt x="692" y="668" on="1"/>
        <pt x="497" y="263" on="0"/>
        <pt x="452" y="0" on="1"/>
        <pt x="247" y="0" on="1"/>
        <pt x="314" y="313" on="0"/>
        <pt x="510" y="708" on="1"/>
        <pt x="693" y="1076" on="0"/>
      </contour>
    </TTGlyph>
    <TTGlyph name="six" xMin="138" yMin="-20" xMax="1292" yMax="1443">
      <contour>
        <pt x="347" y="779" on="1"/>
        <pt x="545" y="892" on="0"/>
        <pt x="789" y="892" on="1"/>
        <pt x="1007" y="892" on="0"/>
        <pt x="1144" y="788" on="1"/>
        <pt x="1292" y="678" on="0"/>
        <pt x="1292" y="477" on="1"/>
        <pt x="1292" y="257" on="0"/>
        <pt x="1126" y="116" on="1"/>
        <pt x="965" y="-20" on="0"/>
        <pt x="733" y="-20" on="1"/>
        <pt x="456" y="-20" on="0"/>
        <pt x="296" y="150" on="1"/>
        <pt x="138" y="318" on="0"/>
        <pt x="138" y="601" on="1"/>
        <pt x="138" y="1188" on="0"/>
        <pt x="527" y="1370" on="1"/>
        <pt x="682" y="1443" on="0"/>
        <pt x="879" y="1436" on="1"/>
        <pt x="1055" y="1429" on="0"/>
        <pt x="1218" y="1358" on="1"/>
        <pt x="1170" y="1199" on="1"/>
        <pt x="861" y="1323" on="0"/>
        <pt x="644" y="1238" on="1"/>
        <pt x="401" y="1142" on="0"/>
      </contour>
      <contour>
        <pt x="334" y="576" on="1"/>
        <pt x="334" y="383" on="0"/>
        <pt x="446" y="265" on="1"/>
        <pt x="560" y="146" on="0"/>
        <pt x="751" y="146" on="1"/>
        <pt x="898" y="146" on="0"/>
        <pt x="994" y="226" on="1"/>
        <pt x="1096" y="311" on="0"/>
        <pt x="1096" y="447" on="1"/>
        <pt x="1096" y="576" on="0"/>
        <pt x="1000" y="652" on="1"/>
        <pt x="909" y="724" on="0"/>
        <pt x="771" y="724" on="1"/>
        <pt x="583" y="724" on="0"/>
        <pt x="418" y="642" on="1"/>
        <pt x="369" y="618" on="0"/>
        <pt x="334" y="593" on="1"/>
      </contour>
    </TTGlyph>
    <TTGlyph name="slash" xMin="73" yMin="-467" xMax="924" yMax="1561">
      <contour>
        <pt x="749" y="1561" on="1"/>
        <pt x="924" y="1561" on="1"/>
        <pt x="248" y="-467" on="1"/>
        <pt x="73" y="-467" on="1"/>
      </contour>
    </TTGlyph>
    <TTGlyph name="sterling" xMin="128" yMin="0" xMax="1091" yMax="1437">
      <contour>
        <pt x="314" y="144" on="1"/>
        <pt x="458" y="168" on="0"/>
        <pt x="575" y="168" on="1"/>
        <pt x="1091" y="168" on="1"/>
        <pt x="1091" y="0" on="1"/>
        <pt x="145" y="0" on="1"/>
        <pt x="128" y="166" on="1"/>
        <pt x="351" y="288" on="0"/>
        <pt x="351" y="504" on="1"/>
        <pt x="351" y="544" on="0"/>
        <pt x="343" y="590" on="1"/>
        <pt x="142" y="590" on="1"/>
        <pt x="142" y="744" on="1"/>
        <pt x="313" y="744" on="1"/>
        <pt x="288" y="872" on="0"/>
        <pt x="288" y="1072" on="0"/>
        <pt x="343" y="1245" on="0"/>
        <pt x="396" y="1307" on="1"/>
        <pt x="509" y="1437" on="0"/>
        <pt x="713" y="1437" on="1"/>
        <pt x="844" y="1437" on="0"/>
        <pt x="956" y="1380" on="1"/>
        <pt x="990" y="1363" on="0"/>
        <pt x="1011" y="1345" on="1"/>
        <pt x="946" y="1209" on="1"/>
        <pt x="834" y="1283" on="0"/>
        <pt x="703" y="1283" on="1"/>
        <pt x="475" y="1283" on="0"/>
        <pt x="475" y="998" on="1"/>
        <pt x="475" y="905" on="0"/>
        <pt x="506" y="744" on="1"/>
        <pt x="864" y="744" on="1"/>
        <pt x="864" y="590" on="1"/>
        <pt x="534" y="590" on="1"/>
        <pt x="537" y="561" on="0"/>
        <pt x="537" y="482" on="0"/>
        <pt x="515" y="380" on="0"/>
        <pt x="490" y="330" on="1"/>
        <pt x="435" y="226" on="0"/>
      </contour>
    </TTGlyph>
    <TTGlyph name="t" xMin="58" yMin="-38" xMax="641" yMax="1155">
      <contour>
        <pt x="165" y="846" on="1"/>
        <pt x="58" y="846" on="1"/>
        <pt x="58" y="970" on="1"/>
        <pt x="304" y="1155" on="1"/>
        <pt x="355" y="1155" on="1"/>
        <pt x="355" y="1000" on="1"/>
        <pt x="641" y="1000" on="1"/>
        <pt x="641" y="846" on="1"/>
        <pt x="355" y="846" on="1"/>
        <pt x="355" y="442" on="1"/>
        <pt x="355" y="272" on="0"/>
        <pt x="398" y="210" on="1"/>
        <pt x="441" y="149" on="0"/>
        <pt x="566" y="135" on="1"/>
        <pt x="537" y="0" on="1"/>
        <pt x="237" y="-38" on="0"/>
        <pt x="182" y="237" on="1"/>
        <pt x="165" y="319" on="0"/>
        <pt x="165" y="414" on="1"/>
      </contour>
    </TTGlyph>
    <TTGlyph name="thorn" xMin="184" yMin="-467" xMax="1174" yMax="1562">
      <contour>
        <pt x="602" y="-20" on="1"/>
        <pt x="480" y="-20" on="0"/>
        <pt x="374" y="2" on="1"/>
        <pt x="374" y="-467" on="1"/>
        <pt x="184" y="-467" on="1"/>
        <pt x="184" y="1562" on="1"/>
        <pt x="374" y="1562" on="1"/>
        <pt x="374" y="917" on="1"/>
        <pt x="513" y="1020" on="0"/>
        <pt x="698" y="1020" on="1"/>
        <pt x="914" y="1020" on="0"/>
        <pt x="1045" y="884" on="1"/>
        <pt x="1174" y="749" on="0"/>
        <pt x="1174" y="530" on="1"/>
        <pt x="1174" y="285" on="0"/>
        <pt x="1010" y="131" on="1"/>
        <pt x="850" y="-20" on="0"/>
      </contour>
      <contour>
        <pt x="374" y="173" on="1"/>
        <pt x="515" y="140" on="0"/>
        <pt x="705" y="140" on="0"/>
        <pt x="841" y="193" on="0"/>
        <pt x="888" y="242" on="1"/>
        <pt x="984" y="342" on="0"/>
        <pt x="984" y="518" on="1"/>
        <pt x="984" y="666" on="0"/>
        <pt x="906" y="760" on="1"/>
        <pt x="823" y="860" on="0"/>
        <pt x="685" y="860" on="1"/>
        <pt x="527" y="860" on="0"/>
        <pt x="426" y="782" on="1"/>
        <pt x="394" y="756" on="0"/>
        <pt x="374" y="723" on="1"/>
      </contour>
    </TTGlyph>
    <TTGlyph name="three" xMin="112" yMin="-20" xMax="1133" yMax="1436">
      <contour>
        <pt x="335" y="814" on="1"/>
        <pt x="458" y="808" on="0"/>
        <pt x="600" y="808" on="0"/>
        <pt x="730" y="834" on="0"/>
        <pt x="780" y="863" on="1"/>
        <pt x="891" y="927" on="0"/>
        <pt x="891" y="1056" on="1"/>
        <pt x="891" y="1162" on="0"/>
        <pt x="800" y="1218" on="1"/>
        <pt x="719" y="1268" on="0"/>
        <pt x="595" y="1268" on="1"/>
        <pt x="455" y="1268" on="0"/>
        <pt x="301" y="1212" on="1"/>
        <pt x="256" y="1195" on="0"/>
        <pt x="223" y="1178" on="1"/>
        <pt x="172" y="1337" on="1"/>
        <pt x="304" y="1403" on="0"/>
        <pt x="511" y="1428" on="1"/>
        <pt x="572" y="1436" on="0"/>
        <pt x="715" y="1436" on="0"/>
        <pt x="882" y="1389" on="0"/>
        <pt x="946" y="1342" on="1"/>
        <pt x="1087" y="1240" on="0"/>
        <pt x="1087" y="1068" on="1"/>
        <pt x="1087" y="906" on="0"/>
        <pt x="956" y="803" on="1"/>
        <pt x="912" y="769" on="0"/>
        <pt x="854" y="749" on="1"/>
        <pt x="853" y="740" on="1"/>
        <pt x="1133" y="667" on="0"/>
        <pt x="1133" y="406" on="1"/>
        <pt x="1133" y="212" on="0"/>
        <pt x="956" y="91" on="1"/>
        <pt x="794" y="-20" on="0"/>
        <pt x="575" y="-20" on="1"/>
        <pt x="288" y="-20" on="0"/>
        <pt x="112" y="89" on="1"/>
        <pt x="165" y="255" on="1"/>
        <pt x="293" y="181" on="0"/>
        <pt x="484" y="156" on="1"/>
        <pt x="545" y="148" on="0"/>
        <pt x="665" y="148" on="0"/>
        <pt x="784" y="180" on="0"/>
        <pt x="830" y="211" on="1"/>
        <pt x="933" y="280" on="0"/>
        <pt x="933" y="397" on="1"/>
        <pt x="933" y="543" on="0"/>
        <pt x="756" y="606" on="1"/>
        <pt x="592" y="663" on="0"/>
        <pt x="335" y="633" on="1"/>
      </contour>
    </TTGlyph>
    <TTGlyph name="threequarters" xMin="125" yMin="-267" xMax="1882" yMax="1779">
      <contour>
        <pt x="1755" y="1761" on="1"/>
        <pt x="1876" y="1661" on="1"/>
        <pt x="259" y="-267" on="1"/>
        <pt x="138" y="-167" on="1"/>
      </contour>
      <contour>
        <pt x="1528" y="629" on="1"/>
        <pt x="1705" y="629" on="1"/>
        <pt x="1705" y="88" on="1"/>
        <pt x="1882" y="88" on="1"/>
        <pt x="1882" y="-63" on="1"/>
        <pt x="1705" y="-63" on="1"/>
        <pt x="1705" y="-266" on="1"/>
        <pt x="1528" y="-266" on="1"/>
        <pt x="1528" y="-63" on="1"/>
        <pt x="1089" y="-63" on="1"/>
        <pt x="1056" y="41" on="1"/>
      </contour>
      <contour>
        <pt x="1528" y="88" on="1"/>
        <pt x="1528" y="424" on="1"/>
        <pt x="1266" y="88" on="1"/>
      </contour>
      <contour>
        <pt x="581" y="1537" on="1"/>
        <pt x="581" y="1633" on="0"/>
        <pt x="296" y="1633" on="0"/>
        <pt x="208" y="1587" on="1"/>
        <pt x="164" y="1716" on="1"/>
        <pt x="290" y="1779" on="0"/>
        <pt x="451" y="1779" on="1"/>
        <pt x="577" y="1779" on="0"/>
        <pt x="662" y="1720" on="1"/>
        <pt x="756" y="1656" on="0"/>
        <pt x="756" y="1545" on="1"/>
        <pt x="756" y="1481" on="0"/>
        <pt x="681" y="1373" on="0"/>
        <pt x="607" y="1347" on="1"/>
        <pt x="607" y="1341" on="1"/>
        <pt x="694" y="1319" on="0"/>
        <pt x="786" y="1203" on="0"/>
        <pt x="786" y="1051" on="0"/>
        <pt x="723" y="949" on="0"/>
        <pt x="672" y="915" on="1"/>
        <pt x="572" y="848" on="0"/>
        <pt x="420" y="848" on="1"/>
        <pt x="238" y="848" on="0"/>
        <pt x="125" y="917" on="1"/>
        <pt x="169" y="1062" on="1"/>
        <pt x="287" y="996" on="0"/>
        <pt x="438" y="996" on="1"/>
        <pt x="557" y="996" on="0"/>
        <pt x="596" y="1060" on="1"/>
        <pt x="609" y="1083" on="0"/>
        <pt x="609" y="1164" on="0"/>
        <pt x="560" y="1222" on="0"/>
        <pt x="516" y="1236" on="1"/>
        <pt x="435" y="1261" on="0"/>
        <pt x="268" y="1242" on="1"/>
        <pt x="268" y="1398" on="1"/>
        <pt x="318" y="1396" on="1"/>
        <pt x="338" y="1395" on="0"/>
        <pt x="359" y="1395" on="1"/>
        <pt x="392" y="1395" on="1"/>
        <pt x="518" y="1395" on="0"/>
        <pt x="565" y="1474" on="1"/>
        <pt x="581" y="1500" on="0"/>
      </contour>
    </TTGlyph>
    <TTGlyph name="threesuperior" xMin="125" yMin="848" xMax="786" yMax="1779">
      <contour>
        <pt x="581" y="1537" on="1"/>
        <pt x="581" y="1633" on="0"/>
        <pt x="296" y="1633" on="0"/>
        <pt x="208" y="1587" on="1"/>
        <pt x="164" y="1716" on="1"/>
        <pt x="290" y="1779" on="0"/>
        <pt x="451" y="1779" on="1"/>
        <pt x="577" y="1779" on="0"/>
        <pt x="662" y="1720" on="1"/>
        <pt x="756" y="1656" on="0"/>
        <pt x="756" y="1545" on="1"/>
        <pt x="756" y="1481" on="0"/>
        <pt x="681" y="1373" on="0"/>
        <pt x="607" y="1347" on="1"/>
        <pt x="607" y="1341" on="1"/>
        <pt x="694" y="1319" on="0"/>
        <pt x="786" y="1203" on="0"/>
        <pt x="786" y="1051" on="0"/>
        <pt x="723" y="949" on="0"/>
        <pt x="672" y="915" on="1"/>
        <pt x="572" y="848" on="0"/>
        <pt x="420" y="848" on="1"/>
        <pt x="238" y="848" on="0"/>
        <pt x="125" y="917" on="1"/>
        <pt x="169" y="1062" on="1"/>
        <pt x="287" y="996" on="0"/>
        <pt x="438" y="996" on="1"/>
        <pt x="557" y="996" on="0"/>
        <pt x="596" y="1060" on="1"/>
        <pt x="609" y="1083" on="0"/>
        <pt x="609" y="1164" on="0"/>
        <pt x="560" y="1222" on="0"/>
        <pt x="516" y="1236" on="1"/>
        <pt x="435" y="1261" on="0"/>
        <pt x="268" y="1242" on="1"/>
        <pt x="268" y="1398" on="1"/>
        <pt x="318" y="1396" on="1"/>
        <pt x="338" y="1395" on="0"/>
        <pt x="359" y="1395" on="1"/>
        <pt x="392" y="1395" on="1"/>
        <pt x="518" y="1395" on="0"/>
        <pt x="565" y="1474" on="1"/>
        <pt x="581" y="1500" on="0"/>
      </contour>
    </TTGlyph>
    <TTGlyph name="tilde" xMin="-67" yMin="1199" xMax="666" yMax="1454">
      <contour>
        <pt x="167" y="1310" on="1"/>
        <pt x="93" y="1310" on="0"/>
        <pt x="30" y="1199" on="1"/>
        <pt x="-67" y="1270" on="1"/>
        <pt x="-5" y="1410" on="0"/>
        <pt x="128" y="1446" on="1"/>
        <pt x="158" y="1454" on="0"/>
        <pt x="233" y="1454" on="0"/>
        <pt x="302" y="1419" on="0"/>
        <pt x="331" y="1398" on="1"/>
        <pt x="331" y="1398" on="0"/>
        <pt x="385" y="1360" on="1"/>
        <pt x="410" y="1343" on="0"/>
        <pt x="433" y="1343" on="1"/>
        <pt x="506" y="1343" on="0"/>
        <pt x="570" y="1454" on="1"/>
        <pt x="666" y="1395" on="1"/>
        <pt x="600" y="1245" on="0"/>
        <pt x="472" y="1208" on="1"/>
        <pt x="442" y="1199" on="0"/>
        <pt x="366" y="1199" on="0"/>
        <pt x="298" y="1234" on="0"/>
        <pt x="269" y="1254" on="1"/>
        <pt x="214" y="1292" on="1"/>
        <pt x="189" y="1310" on="0"/>
      </contour>
    </TTGlyph>
    <TTGlyph name="tilde.cap" xMin="-103" yMin="1573" xMax="680" yMax="1808">
      <contour>
        <pt x="453" y="1720" on="1"/>
        <pt x="526" y="1720" on="0"/>
        <pt x="582" y="1808" on="1"/>
        <pt x="680" y="1746" on="1"/>
        <pt x="615" y="1613" on="0"/>
        <pt x="486" y="1580" on="1"/>
        <pt x="456" y="1573" on="0"/>
        <pt x="380" y="1573" on="0"/>
        <pt x="300" y="1600" on="0"/>
        <pt x="263" y="1616" on="1"/>
        <pt x="194" y="1647" on="1"/>
        <pt x="163" y="1661" on="0"/>
        <pt x="137" y="1661" on="1"/>
        <pt x="90" y="1661" on="0"/>
        <pt x="41" y="1617" on="1"/>
        <pt x="19" y="1598" on="0"/>
        <pt x="2" y="1573" on="1"/>
        <pt x="-103" y="1644" on="1"/>
        <pt x="-49" y="1733" on="0"/>
        <pt x="52" y="1782" on="1"/>
        <pt x="103" y="1808" on="0"/>
        <pt x="213" y="1808" on="0"/>
        <pt x="294" y="1780" on="0"/>
        <pt x="331" y="1764" on="1"/>
        <pt x="399" y="1734" on="1"/>
        <pt x="430" y="1720" on="0"/>
      </contour>
    </TTGlyph>
    <TTGlyph name="two" xMin="148" yMin="0" xMax="1122" yMax="1436">
      <contour>
        <pt x="148" y="168" on="1"/>
        <pt x="523" y="492" on="1"/>
        <pt x="889" y="811" on="0"/>
        <pt x="889" y="1002" on="1"/>
        <pt x="889" y="1141" on="0"/>
        <pt x="740" y="1268" on="0"/>
        <pt x="585" y="1268" on="1"/>
        <pt x="459" y="1268" on="0"/>
        <pt x="282" y="1198" on="1"/>
        <pt x="238" y="1181" on="0"/>
        <pt x="213" y="1168" on="1"/>
        <pt x="162" y="1327" on="1"/>
        <pt x="297" y="1396" on="0"/>
        <pt x="498" y="1426" on="1"/>
        <pt x="562" y="1436" on="0"/>
        <pt x="720" y="1436" on="0"/>
        <pt x="893" y="1378" on="0"/>
        <pt x="955" y="1324" on="1"/>
        <pt x="1085" y="1211" on="0"/>
        <pt x="1085" y="1014" on="1"/>
        <pt x="1085" y="745" on="0"/>
        <pt x="706" y="426" on="1"/>
        <pt x="408" y="175" on="1"/>
        <pt x="1122" y="176" on="1"/>
        <pt x="1122" y="0" on="1"/>
        <pt x="148" y="0" on="1"/>
      </contour>
    </TTGlyph>
    <TTGlyph name="twosuperior" xMin="167" yMin="866" xMax="819" yMax="1779">
      <contour>
        <pt x="167" y="1706" on="1"/>
        <pt x="318" y="1779" on="0"/>
        <pt x="466" y="1779" on="1"/>
        <pt x="700" y="1779" on="0"/>
        <pt x="779" y="1632" on="1"/>
        <pt x="806" y="1581" on="0"/>
        <pt x="806" y="1460" on="0"/>
        <pt x="774" y="1369" on="0"/>
        <pt x="746" y="1326" on="1"/>
        <pt x="696" y="1253" on="0"/>
        <pt x="588" y="1163" on="1"/>
        <pt x="415" y="1018" on="1"/>
        <pt x="819" y="1018" on="1"/>
        <pt x="819" y="866" on="1"/>
        <pt x="190" y="866" on="1"/>
        <pt x="190" y="1013" on="1"/>
        <pt x="406" y="1196" on="1"/>
        <pt x="519" y="1293" on="0"/>
        <pt x="558" y="1344" on="1"/>
        <pt x="631" y="1438" on="0"/>
        <pt x="631" y="1504" on="1"/>
        <pt x="631" y="1569" on="0"/>
        <pt x="574" y="1604" on="1"/>
        <pt x="524" y="1635" on="0"/>
        <pt x="327" y="1635" on="0"/>
        <pt x="210" y="1574" on="1"/>
      </contour>
    </TTGlyph>
    <TTGlyph name="u" xMin="163" yMin="-20" xMax="1111" yMax="1000">
      <contour>
        <pt x="937" y="97" on="1"/>
        <pt x="799" y="-20" on="0"/>
        <pt x="603" y="-20" on="1"/>
        <pt x="363" y="-20" on="0"/>
        <pt x="260" y="107" on="1"/>
        <pt x="163" y="225" on="0"/>
        <pt x="163" y="481" on="1"/>
        <pt x="163" y="1000" on="1"/>
        <pt x="353" y="1000" on="1"/>
        <pt x="353" y="493" on="1"/>
        <pt x="353" y="319" on="0"/>
        <pt x="405" y="237" on="1"/>
        <pt x="466" y="140" on="0"/>
        <pt x="616" y="140" on="1"/>
        <pt x="769" y="140" on="0"/>
        <pt x="869" y="224" on="1"/>
        <pt x="900" y="250" on="0"/>
        <pt x="921" y="281" on="1"/>
        <pt x="921" y="1000" on="1"/>
        <pt x="1111" y="1000" on="1"/>
        <pt x="1111" y="0" on="1"/>
        <pt x="966" y="0" on="1"/>
      </contour>
    </TTGlyph>
    <TTGlyph name="uacute" xMin="163" yMin="-20" xMax="1111" yMax="1521">
      <component glyphName="u" x="0" y="0" flags="0x1204"/>
      <component glyphName="acute" x="426" y="0" flags="0x1004"/>
    </TTGlyph>
    <TTGlyph name="ucircumflex" xMin="163" yMin="-20" xMax="1111" yMax="1526">
      <component glyphName="u" x="0" y="0" flags="0x1204"/>
      <component glyphName="circumflex" x="349" y="0" flags="0x1004"/>
    </TTGlyph>
    <TTGlyph name="udieresis" xMin="163" yMin="-20" xMax="1111" yMax="1434">
      <component glyphName="u" x="0" y="0" flags="0x1204"/>
      <component glyphName="dieresis" x="348" y="0" flags="0x1004"/>
    </TTGlyph>
    <TTGlyph name="ugrave" xMin="163" yMin="-20" xMax="1111" yMax="1525">
      <component glyphName="u" x="0" y="0" flags="0x1204"/>
      <component glyphName="grave" x="263" y="0" flags="0x1004"/>
    </TTGlyph>
    <TTGlyph name="underscore" xMin="107" yMin="-154" xMax="1129" yMax="0">
      <contour>
        <pt x="1129" y="0" on="1"/>
        <pt x="1129" y="-154" on="1"/>
        <pt x="107" y="-154" on="1"/>
        <pt x="107" y="0" on="1"/>
      </contour>
    </TTGlyph>
    <TTGlyph name="uni00AD" xMin="207" yMin="515" xMax="929" yMax="669">
      <component glyphName="hyphen" x="0" y="0" flags="0x1204"/>
    </TTGlyph>
    <TTGlyph name="v" xMin="40" yMin="0" xMax="1017" yMax="1000">
      <contour>
        <pt x="40" y="1000" on="1"/>
        <pt x="237" y="1000" on="1"/>
        <pt x="457" y="436" on="0"/>
        <pt x="475" y="387" on="1"/>
        <pt x="475" y="387" on="0"/>
        <pt x="505" y="301" on="1"/>
        <pt x="519" y="259" on="0"/>
        <pt x="531" y="219" on="1"/>
        <pt x="543" y="219" on="1"/>
        <pt x="543" y="219" on="0"/>
        <pt x="597" y="386" on="1"/>
        <pt x="611" y="428" on="0"/>
        <pt x="625" y="462" on="1"/>
        <pt x="835" y="1000" on="1"/>
        <pt x="1017" y="1000" on="1"/>
        <pt x="627" y="0" on="1"/>
        <pt x="430" y="0" on="1"/>
      </contour>
    </TTGlyph>
    <TTGlyph name="w" xMin="62" yMin="0" xMax="1551" yMax="1000">
      <contour>
        <pt x="62" y="1000" on="1"/>
        <pt x="251" y="1000" on="1"/>
        <pt x="387" y="567" on="1"/>
        <pt x="401" y="524" on="0"/>
        <pt x="416" y="468" on="1"/>
        <pt x="473" y="243" on="1"/>
        <pt x="484" y="243" on="1"/>
        <pt x="541" y="458" on="1"/>
        <pt x="556" y="513" on="0"/>
        <pt x="570" y="558" on="1"/>
        <pt x="712" y="1000" on="1"/>
        <pt x="901" y="1000" on="1"/>
        <pt x="1039" y="567" on="1"/>
        <pt x="1055" y="517" on="0"/>
        <pt x="1071" y="461" on="1"/>
        <pt x="1108" y="327" on="0"/>
        <pt x="1129" y="243" on="1"/>
        <pt x="1140" y="243" on="1"/>
        <pt x="1169" y="351" on="1"/>
        <pt x="1199" y="463" on="0"/>
        <pt x="1233" y="564" on="1"/>
        <pt x="1377" y="1000" on="1"/>
        <pt x="1551" y="1000" on="1"/>
        <pt x="1221" y="0" on="1"/>
        <pt x="1047" y="0" on="1"/>
        <pt x="801" y="734" on="1"/>
        <pt x="566" y="0" on="1"/>
        <pt x="392" y="0" on="1"/>
      </contour>
    </TTGlyph>
    <TTGlyph name="x" xMin="46" yMin="0" xMax="1023" yMax="1000">
      <contour>
        <pt x="428" y="509" on="1"/>
        <pt x="56" y="1000" on="1"/>
        <pt x="269" y="1000" on="1"/>
        <pt x="541" y="638" on="1"/>
        <pt x="811" y="1000" on="1"/>
        <pt x="1013" y="1000" on="1"/>
        <pt x="641" y="505" on="1"/>
        <pt x="1023" y="0" on="1"/>
        <pt x="810" y="0" on="1"/>
        <pt x="528" y="376" on="1"/>
        <pt x="248" y="0" on="1"/>
        <pt x="46" y="0" on="1"/>
      </contour>
    </TTGlyph>
    <TTGlyph name="y" xMin="40" yMin="-487" xMax="1017" yMax="1000">
      <contour>
        <pt x="79" y="-299" on="1"/>
        <pt x="130" y="-318" on="0"/>
        <pt x="237" y="-318" on="0"/>
        <pt x="303" y="-275" on="0"/>
        <pt x="330" y="-238" on="1"/>
        <pt x="378" y="-175" on="0"/>
        <pt x="428" y="-46" on="1"/>
        <pt x="438" y="-20" on="1"/>
        <pt x="40" y="1000" on="1"/>
        <pt x="237" y="1000" on="1"/>
        <pt x="447" y="457" on="1"/>
        <pt x="464" y="413" on="0"/>
        <pt x="478" y="368" on="1"/>
        <pt x="478" y="368" on="0"/>
        <pt x="503" y="286" on="1"/>
        <pt x="515" y="243" on="0"/>
        <pt x="525" y="203" on="1"/>
        <pt x="535" y="203" on="1"/>
        <pt x="535" y="203" on="0"/>
        <pt x="558" y="276" on="1"/>
        <pt x="584" y="355" on="0"/>
        <pt x="620" y="448" on="1"/>
        <pt x="835" y="1000" on="1"/>
        <pt x="1017" y="1000" on="1"/>
        <pt x="622" y="0" on="1"/>
        <pt x="478" y="-366" on="0"/>
        <pt x="308" y="-455" on="1"/>
        <pt x="247" y="-487" on="0"/>
        <pt x="136" y="-487" on="0"/>
        <pt x="79" y="-469" on="0"/>
        <pt x="47" y="-444" on="1"/>
      </contour>
    </TTGlyph>
    <TTGlyph name="yacute" xMin="40" yMin="-487" xMax="1017" yMax="1521">
      <component glyphName="y" x="0" y="0" flags="0x1204"/>
      <component glyphName="acute" x="324" y="0" flags="0x1004"/>
    </TTGlyph>
    <TTGlyph name="ydieresis" xMin="40" yMin="-487" xMax="1017" yMax="1434">
      <component glyphName="y" x="0" y="0" flags="0x1204"/>
      <component glyphName="dieresis" x="229" y="0" flags="0x1004"/>
    </TTGlyph>
    <TTGlyph name="yen" xMin="37" yMin="0" xMax="1254" yMax="1416">
      <contour>
        <pt x="185" y="429" on="1"/>
        <pt x="559" y="429" on="1"/>
        <pt x="559" y="575" on="1"/>
        <pt x="185" y="575" on="1"/>
        <pt x="185" y="729" on="1"/>
        <pt x="478" y="729" on="1"/>
        <pt x="37" y="1416" on="1"/>
        <pt x="240" y="1416" on="1"/>
        <pt x="653" y="769" on="1"/>
        <pt x="1063" y="1416" on="1"/>
        <pt x="1254" y="1416" on="1"/>
        <pt x="820" y="729" on="1"/>
        <pt x="1107" y="729" on="1"/>
        <pt x="1107" y="575" on="1"/>
        <pt x="744" y="575" on="1"/>
        <pt x="744" y="429" on="1"/>
        <pt x="1107" y="429" on="1"/>
        <pt x="1107" y="275" on="1"/>
        <pt x="744" y="275" on="1"/>
        <pt x="744" y="0" on="1"/>
        <pt x="559" y="0" on="1"/>
        <pt x="559" y="275" on="1"/>
        <pt x="185" y="275" on="1"/>
      </contour>
    </TTGlyph>
    <TTGlyph name="z" xMin="86" yMin="0" xMax="876" yMax="1000">
      <contour>
        <pt x="86" y="148" on="1"/>
        <pt x="646" y="852" on="1"/>
        <pt x="106" y="852" on="1"/>
        <pt x="106" y="1000" on="1"/>
        <pt x="858" y="1000" on="1"/>
        <pt x="858" y="852" on="1"/>
        <pt x="298" y="148" on="1"/>
        <pt x="876" y="148" on="1"/>
        <pt x="876" y="0" on="1"/>
        <pt x="86" y="0" on="1"/>
      </contour>
    </TTGlyph>
    <TTGlyph name="zero" xMin="137" yMin="-20" xMax="1525" yMax="1436">
      <contour>
        <pt x="137" y="696" on="1"/>
        <pt x="137" y="856" on="0"/>
        <pt x="234" y="1130" on="0"/>
        <pt x="325" y="1228" on="1"/>
        <pt x="518" y="1436" on="0"/>
        <pt x="840" y="1436" on="1"/>
        <pt x="1151" y="1436" on="0"/>
        <pt x="1339" y="1236" on="1"/>
        <pt x="1525" y="1039" on="0"/>
        <pt x="1525" y="723" on="1"/>
        <pt x="1525" y="390" on="0"/>
        <pt x="1337" y="188" on="1"/>
        <pt x="1144" y="-20" on="0"/>
        <pt x="822" y="-20" on="1"/>
        <pt x="511" y="-20" on="0"/>
        <pt x="322" y="180" on="1"/>
        <pt x="137" y="375" on="0"/>
      </contour>
      <contour>
        <pt x="333" y="721" on="1"/>
        <pt x="333" y="601" on="0"/>
        <pt x="400" y="391" on="0"/>
        <pt x="465" y="313" on="1"/>
        <pt x="604" y="146" on="0"/>
        <pt x="840" y="146" on="1"/>
        <pt x="1070" y="146" on="0"/>
        <pt x="1202" y="302" on="1"/>
        <pt x="1329" y="452" on="0"/>
        <pt x="1329" y="693" on="1"/>
        <pt x="1329" y="945" on="0"/>
        <pt x="1197" y="1103" on="1"/>
        <pt x="1058" y="1270" on="0"/>
        <pt x="822" y="1270" on="1"/>
        <pt x="593" y="1270" on="0"/>
        <pt x="460" y="1114" on="1"/>
        <pt x="333" y="966" on="0"/>
      </contour>
    </TTGlyph>
</ttFont>
